<svg preserveAspectRatio="none" width="100%" height="100%" overflow="visible" style="display: block;" viewBox="0 0 20 20" fill="none" xmlns="http://www.w3.org/2000/svg">
<g id="Vector">
<path d="M20 10C20 15.5228 15.5228 20 10 20C4.47715 20 0 15.5228 0 10C0 4.47715 4.47715 0 10 0C15.5228 0 20 4.47715 20 10Z" fill="#275CFD"/>
<path fill-rule="evenodd" clip-rule="evenodd" d="M14.8306 6.28284C15.315 6.68687 15.3507 7.37469 14.9103 7.81912L8.64122 14.1453C8.39973 14.389 8.01482 14.4154 7.74226 14.207L4.76265 11.9292C4.23935 11.5292 4.17032 10.7671 4.61322 10.2795C5.00606 9.84704 5.6646 9.78739 6.12875 10.1422L7.65652 11.3102C7.84845 11.4569 8.11947 11.4383 8.28951 11.2667L13.1559 6.35599C13.5963 5.91156 14.3461 5.8788 14.8306 6.28284Z" fill="var(--fill-0, white)"/>
</g>
</svg>
