<svg preserveAspectRatio="none" width="100%" height="100%" overflow="visible" style="display: block;" viewBox="0 0 32 32" fill="none" xmlns="http://www.w3.org/2000/svg">
<g id="circle-icon" clip-path="url(#clip0_8799_105532)">
<circle id="Base" cx="16" cy="15.6875" r="16" fill="var(--fill-0, #2D2F2F)"/>
<g id="Icon/processing">
<path id="Vector" d="M17.0164 8.18827C15.1813 8.19169 13.411 8.86678 12.0396 10.0861C10.6682 11.3054 9.79059 12.9847 9.57251 14.8067H8.33752C8.20468 14.8067 8.07481 14.846 7.96435 14.9199C7.85389 14.9937 7.76781 15.0986 7.71701 15.2213C7.66622 15.3441 7.653 15.4792 7.67901 15.6094C7.70503 15.7397 7.76909 15.8593 7.86314 15.9532L9.71323 17.8032C9.83909 17.929 10.0097 17.9996 10.1876 17.9996C10.3655 17.9996 10.5361 17.929 10.662 17.8032L12.5121 15.9532C12.6061 15.8593 12.6702 15.7397 12.6962 15.6094C12.7223 15.4792 12.709 15.3441 12.6582 15.2213C12.6074 15.0986 12.5214 14.9937 12.4109 14.9199C12.3004 14.846 12.1706 14.8067 12.0377 14.8067H10.9308C11.1316 13.4374 11.7887 12.1759 12.7956 11.2264C13.8025 10.2769 15.1004 9.69493 16.4791 9.57474C17.8579 9.45455 19.2369 9.80314 20.3929 10.5641C21.5489 11.3251 22.4143 12.4538 22.849 13.7678C23.2838 15.0817 23.2624 16.5039 22.7884 17.8042C22.3144 19.1044 21.4154 20.2067 20.2371 20.9326C19.0587 21.6585 17.6699 21.9655 16.2954 21.8039C14.9208 21.6424 13.641 21.0217 12.6631 20.0424C12.6016 19.9766 12.5275 19.9239 12.4452 19.8874C12.3629 19.8508 12.2741 19.8312 12.1841 19.8297C12.0941 19.8282 12.0047 19.8449 11.9212 19.8786C11.8378 19.9124 11.7619 19.9626 11.6983 20.0262C11.6346 20.0899 11.5844 20.1657 11.5506 20.2492C11.5169 20.3326 11.5002 20.4221 11.5017 20.5121C11.5032 20.6021 11.5228 20.6909 11.5594 20.7732C11.5959 20.8555 11.6486 20.9296 11.7143 20.9911C12.5865 21.8631 13.6602 22.5067 14.8405 22.8647C16.0207 23.2226 17.2711 23.284 18.4807 23.0433C19.6903 22.8027 20.8219 22.2675 21.7753 21.485C22.7287 20.7026 23.4744 19.6971 23.9464 18.5577C24.4184 17.4182 24.6021 16.18 24.4812 14.9526C24.3604 13.7252 23.9387 12.5465 23.2536 11.521C22.5684 10.4955 21.6409 9.65476 20.5532 9.0733C19.4656 8.49184 18.2513 8.1876 17.018 8.1875L17.0164 8.18827Z" fill="var(--fill-0, #9B9C9C)"/>
</g>
</g>
<defs>
<clipPath id="clip0_8799_105532">
<rect width="32" height="32" fill="white"/>
</clipPath>
</defs>
</svg>
