<svg preserveAspectRatio="none" width="100%" height="100%" overflow="visible" style="display: block;" viewBox="0 0 20 20" fill="none" xmlns="http://www.w3.org/2000/svg">
<g id="Group 7813">
<path id="Fill 6" fill-rule="evenodd" clip-rule="evenodd" d="M10 0C4.47733 0 0 4.47733 0 10C0 15.5227 4.47733 20 10 20C15.5227 20 20 15.5227 20 10C20 4.47733 15.5227 0 10 0Z" fill="var(--fill-0, #009393)"/>
<path id="Vector" fill-rule="evenodd" clip-rule="evenodd" d="M11.1867 11.2089C11.1204 11.2135 10.7779 11.2325 10.0139 11.2325C9.40626 11.2325 8.97481 11.2155 8.82345 11.2089C6.47509 11.1127 4.72224 10.7323 4.72224 10.2769C4.72224 9.82142 6.47509 9.44153 8.82345 9.34386V10.83C8.97702 10.8403 9.41675 10.8644 10.0244 10.8644C10.7536 10.8644 11.1188 10.8362 11.1845 10.8305V9.34488C13.5279 9.44204 15.2769 9.82245 15.2769 10.2769C15.2769 10.7313 13.5285 11.1117 11.1845 11.2083L11.1867 11.2089ZM11.1867 9.19118V7.86131H14.4571V5.83334H5.55309V7.86131H8.8229V9.19067C6.16518 9.30427 4.1665 9.79417 4.1665 10.3812C4.1665 10.9683 6.16518 11.4577 8.8229 11.5718V15.8333H11.1862V11.5702C13.8378 11.4566 15.8332 10.9673 15.8332 10.3807C15.8332 9.79417 13.8395 9.30479 11.1862 9.19067L11.1867 9.19118Z" fill="var(--fill-0, white)"/>
</g>
</svg>
