<svg preserveAspectRatio="none" width="100%" height="100%" overflow="visible" style="display: block;" viewBox="0 0 16.875 16.875" fill="none" xmlns="http://www.w3.org/2000/svg">
<path id="Subtract" d="M8.4375 0C13.0974 0 16.875 3.7776 16.875 8.4375C16.875 13.0974 13.0974 16.875 8.4375 16.875C3.7776 16.875 0 13.0974 0 8.4375C0 3.7776 3.7776 0 8.4375 0ZM8.4375 3.75C7.91973 3.75 7.5 4.16973 7.5 4.6875V7.5H4.6875C4.16973 7.5 3.75 7.91973 3.75 8.4375C3.75 8.95527 4.16973 9.375 4.6875 9.375H7.5V12.1875C7.5 12.7053 7.91973 13.125 8.4375 13.125C8.95527 13.125 9.375 12.7053 9.375 12.1875V9.375H12.1875C12.7053 9.375 13.125 8.95527 13.125 8.4375C13.125 7.91973 12.7053 7.5 12.1875 7.5H9.375V4.6875C9.375 4.16973 8.95527 3.75 8.4375 3.75Z" fill="var(--fill-0, #275CFD)"/>
</svg>
