<svg preserveAspectRatio="none" width="100%" height="100%" overflow="visible" style="display: block;" viewBox="0 0 26.6667 26.6667" fill="none" xmlns="http://www.w3.org/2000/svg">
<g id="Group 7813">
<path id="Fill 6" fill-rule="evenodd" clip-rule="evenodd" d="M13.3333 0C5.96978 0 0 5.96978 0 13.3333C0 20.6969 5.96978 26.6667 13.3333 26.6667C20.6969 26.6667 26.6667 20.6969 26.6667 13.3333C26.6667 5.96978 20.6969 0 13.3333 0Z" fill="var(--fill-0, #009393)"/>
<path id="Vector" fill-rule="evenodd" clip-rule="evenodd" d="M14.9156 14.9452C14.8272 14.9513 14.3706 14.9767 13.3519 14.9767C12.5417 14.9767 11.9664 14.9541 11.7646 14.9452C8.63345 14.817 6.29632 14.3098 6.29632 13.7025C6.29632 13.0952 8.63345 12.5887 11.7646 12.4585V14.44C11.9694 14.4537 12.5557 14.4859 13.3659 14.4859C14.3382 14.4859 14.825 14.4482 14.9127 14.4407V12.4598C18.0372 12.5894 20.3692 13.0966 20.3692 13.7025C20.3692 14.3084 18.0379 14.8156 14.9127 14.9445L14.9156 14.9452ZM14.9156 12.2549V10.4817H19.2761V7.77779H7.40412V10.4817H11.7639V12.2542C8.22024 12.4057 5.55534 13.0589 5.55534 13.8416C5.55534 14.6244 8.22024 15.2769 11.7639 15.4291V21.1111H14.9149V15.427C18.4504 15.2755 21.1109 14.623 21.1109 13.841C21.1109 13.0589 18.4526 12.4064 14.9149 12.2542L14.9156 12.2549Z" fill="var(--fill-0, white)"/>
</g>
</svg>
