<svg preserveAspectRatio="none" width="100%" height="100%" overflow="visible" style="display: block;" viewBox="0 0 12.2713 16.2432" fill="none" xmlns="http://www.w3.org/2000/svg">
<path id="Shape" d="M7.46387 0.350586L6.89844 2.61621C7.27585 2.70235 7.65558 2.78969 8.02539 2.88184L8.58691 0.630859L9.99414 0.981445L9.41797 3.29395C11.1948 3.90601 12.4946 4.82359 12.2393 6.53027C12.0544 7.77925 11.3616 8.38359 10.4424 8.5957C11.7048 9.253 12.3471 10.2615 11.7354 12.0088C10.9758 14.1792 9.17109 14.3632 6.77148 13.9092L6.18848 16.2432L4.78125 15.8926L5.35645 13.5889C4.99169 13.4983 4.61837 13.4021 4.23438 13.2979L3.6582 15.6123L2.25195 15.2607L2.83496 12.9229C2.50628 12.8387 2.17176 12.7494 1.83105 12.6641L0 12.207L0.698242 10.5967C0.698242 10.5967 1.73571 10.872 1.72168 10.8516C2.11983 10.9501 2.29639 10.6907 2.36621 10.5176L3.28711 6.82812C3.33866 6.84052 3.38878 6.85267 3.43555 6.86426C3.37947 6.84183 3.32832 6.8274 3.28906 6.81738L3.94531 4.18359C3.96248 3.88461 3.85987 3.50749 3.29004 3.36523C3.30917 3.34982 2.26758 3.11133 2.26758 3.11133L2.64258 1.6084L4.58301 2.09277L4.58105 2.09961C4.87286 2.17216 5.17423 2.24178 5.48047 2.31152L6.05664 0L7.46387 0.350586ZM4.68945 11.6055C5.64336 11.8423 8.58624 12.7871 9.02148 11.04C9.47598 9.21763 6.41716 8.74593 5.46289 8.50781L4.68945 11.6055ZM5.81934 7.08984C6.61383 7.28788 9.06298 8.09519 9.45996 6.50586C9.87322 4.84763 7.31398 4.47731 6.51953 4.2793L5.81934 7.08984Z" fill="var(--fill-0, white)"/>
</svg>
