<svg preserveAspectRatio="none" width="100%" height="100%" overflow="visible" style="display: block;" viewBox="0 0 10.7504 12" fill="none" xmlns="http://www.w3.org/2000/svg">
<g id="Vector">
<path d="M7.9839 0C9.51102 0 10.7504 1.25247 10.7504 2.86781H9.69914C9.69914 1.867 8.93005 1.11201 7.9839 1.11201C7.03774 1.11201 6.26865 1.867 6.26865 2.86781V5.21738H5.21737V2.86781C5.21737 1.25247 6.45677 0 7.9839 0Z" fill="var(--fill-0, white)"/>
<path fill-rule="evenodd" clip-rule="evenodd" d="M7.82516 4.17393H1.11788C0.503046 4.17393 0 4.67704 0 5.29194V10.882C0 11.4969 0.503046 12 1.11788 12H7.82516C8.43999 12 8.94304 11.4969 8.94304 10.882V5.29194C8.94304 4.67704 8.43999 4.17393 7.82516 4.17393ZM3.35364 8.08697C3.35364 8.70187 3.85668 9.20498 4.47152 9.20498C5.08635 9.20498 5.5894 8.70187 5.5894 8.08697C5.5894 7.47206 5.08635 6.96896 4.47152 6.96896C3.85668 6.96896 3.35364 7.47206 3.35364 8.08697Z" fill="var(--fill-0, white)"/>
</g>
</svg>
