<svg preserveAspectRatio="none" width="100%" height="100%" overflow="visible" style="display: block;" viewBox="0 0 14.6667 13.3333" fill="none" xmlns="http://www.w3.org/2000/svg">
<g id="solanaLogoMark 1" clip-path="url(#clip0_8787_73401)">
<path id="Vector" d="M14.5912 10.5124L12.17 13.1517C12.1173 13.2091 12.0537 13.2548 11.9829 13.286C11.9121 13.3173 11.8358 13.3334 11.7587 13.3333H0.281082C0.226316 13.3333 0.172743 13.3171 0.126947 13.2865C0.0811501 13.256 0.045124 13.2126 0.0232948 13.1615C0.00146555 13.1105 -0.00521583 13.054 0.00407156 12.9992C0.0133589 12.9443 0.0382105 12.8934 0.0755729 12.8527L2.49858 10.2133C2.55107 10.1562 2.61455 10.1105 2.68508 10.0793C2.75562 10.0481 2.83171 10.0319 2.90866 10.0317H14.3856C14.4404 10.0317 14.4939 10.048 14.5398 10.0785C14.5855 10.1091 14.6215 10.1525 14.6434 10.2036C14.6652 10.2546 14.6719 10.311 14.6626 10.3659C14.6533 10.4208 14.6285 10.4717 14.5912 10.5124ZM12.17 5.19745C12.1173 5.14012 12.0537 5.09441 11.9829 5.06317C11.9121 5.03194 11.8358 5.01583 11.7587 5.01588H0.281082C0.226316 5.01588 0.172743 5.03214 0.126947 5.06267C0.0811501 5.0932 0.045124 5.13665 0.0232948 5.1877C0.00146555 5.23876 -0.00521583 5.29518 0.00407156 5.35004C0.0133589 5.40489 0.0382105 5.4558 0.0755729 5.49651L2.49858 8.13588C2.55107 8.19306 2.61455 8.23867 2.68508 8.26991C2.75562 8.30114 2.83171 8.31733 2.90866 8.31745H14.3856C14.4404 8.31745 14.4939 8.3012 14.5398 8.27067C14.5855 8.24014 14.6215 8.19668 14.6434 8.14564C14.6652 8.09458 14.6719 8.03815 14.6626 7.98329C14.6533 7.92844 14.6285 7.87753 14.5912 7.83682L12.17 5.19745ZM0.281082 3.30159H11.7587C11.8358 3.30162 11.9121 3.28553 11.9829 3.25429C12.0537 3.22305 12.1173 3.17733 12.17 3.12L14.5912 0.480635C14.6285 0.439935 14.6533 0.389027 14.6626 0.334167C14.6719 0.279306 14.6652 0.222883 14.6434 0.17183C14.6215 0.120777 14.5855 0.0773176 14.5398 0.0467914C14.4939 0.016265 14.4404 1.87991e-06 14.3856 0H2.90866C2.83171 0.00013309 2.75562 0.016318 2.68508 0.0475527C2.61455 0.0787876 2.55107 0.124407 2.49858 0.181588L0.0761975 2.82095C0.0388712 2.86161 0.0140306 2.91247 0.00472216 2.96726C-0.0045863 3.02206 0.00204207 3.07844 0.0237943 3.12947C0.0455466 3.1805 0.0814772 3.22395 0.12718 3.25453C0.172882 3.28511 0.226369 3.30145 0.281082 3.30159Z" fill="url(#paint0_linear_8787_73401)"/>
</g>
<defs>
<linearGradient id="paint0_linear_8787_73401" x1="1.23804" y1="13.6511" x2="13.4945" y2="0.0582227" gradientUnits="userSpaceOnUse">
<stop offset="0.08" stop-color="#9945FF"/>
<stop offset="0.3" stop-color="#8752F3"/>
<stop offset="0.5" stop-color="#5497D5"/>
<stop offset="0.6" stop-color="#43B4CA"/>
<stop offset="0.72" stop-color="#28E0B9"/>
<stop offset="0.97" stop-color="#19FB9B"/>
</linearGradient>
<clipPath id="clip0_8787_73401">
<rect width="14.6667" height="13.3333" fill="white"/>
</clipPath>
</defs>
</svg>
