<svg preserveAspectRatio="none" width="100%" height="100%" overflow="visible" style="display: block;" viewBox="0 0 11 10" fill="none" xmlns="http://www.w3.org/2000/svg">
<g id="solanaLogoMark 1" clip-path="url(#clip0_8787_73358)">
<path id="Vector" d="M10.9434 7.88428L9.12748 9.86381C9.08801 9.90681 9.04024 9.94109 8.98717 9.96452C8.9341 9.98795 8.87684 10 8.81899 10H0.210811C0.169737 10 0.129557 9.9878 0.0952102 9.96491C0.0608626 9.94201 0.033843 9.90942 0.0174711 9.87113C0.00109917 9.83284 -0.00391187 9.79052 0.00305367 9.74938C0.0100192 9.70823 0.0286579 9.67005 0.0566797 9.63952L1.87393 7.66C1.9133 7.61711 1.96091 7.5829 2.01381 7.55948C2.06672 7.53605 2.12379 7.52391 2.1815 7.52381H10.7892C10.8303 7.52381 10.8704 7.53601 10.9048 7.5589C10.9391 7.5818 10.9661 7.6144 10.9826 7.65268C10.9989 7.69098 11.0039 7.73328 10.997 7.77443C10.99 7.81558 10.9714 7.85376 10.9434 7.88428ZM9.12748 3.89809C9.08801 3.85509 9.04024 3.82081 8.98717 3.79738C8.9341 3.77395 8.87684 3.76188 8.81899 3.76191H0.210811C0.169737 3.76191 0.129557 3.7741 0.0952102 3.797C0.0608626 3.8199 0.033843 3.85249 0.0174711 3.89077C0.00109917 3.92907 -0.00391187 3.97139 0.00305367 4.01253C0.0100192 4.05367 0.0286579 4.09185 0.0566797 4.12239L1.87393 6.10191C1.9133 6.1448 1.96091 6.179 2.01381 6.20243C2.06672 6.22585 2.12379 6.238 2.1815 6.23809H10.7892C10.8303 6.23809 10.8704 6.2259 10.9048 6.203C10.9391 6.1801 10.9661 6.14751 10.9826 6.10923C10.9989 6.07093 11.0039 6.02861 10.997 5.98747C10.99 5.94633 10.9714 5.90815 10.9434 5.87761L9.12748 3.89809ZM0.210811 2.47619H8.81899C8.87684 2.47622 8.9341 2.46415 8.98717 2.44072C9.04024 2.41728 9.08801 2.383 9.12748 2.34L10.9434 0.360476C10.9714 0.329951 10.99 0.29177 10.997 0.250625C11.0039 0.20948 10.9989 0.167163 10.9826 0.128873C10.9661 0.090583 10.9391 0.0579882 10.9048 0.0350935C10.8704 0.0121987 10.8303 1.40993e-06 10.7892 0H2.1815C2.12379 9.98178e-05 2.06672 0.0122385 2.01381 0.0356645C1.96091 0.0590907 1.9133 0.0933053 1.87393 0.136191L0.0571481 2.11572C0.0291534 2.1462 0.010523 2.18435 0.00354162 2.22544C-0.00343972 2.26655 0.00153155 2.30883 0.0178457 2.3471C0.0341599 2.38537 0.0611079 2.41797 0.0953847 2.4409C0.129662 2.46383 0.169777 2.47609 0.210811 2.47619Z" fill="url(#paint0_linear_8787_73358)"/>
</g>
<defs>
<linearGradient id="paint0_linear_8787_73358" x1="0.928529" y1="10.2383" x2="10.1209" y2="0.0436672" gradientUnits="userSpaceOnUse">
<stop offset="0.08" stop-color="#9945FF"/>
<stop offset="0.3" stop-color="#8752F3"/>
<stop offset="0.5" stop-color="#5497D5"/>
<stop offset="0.6" stop-color="#43B4CA"/>
<stop offset="0.72" stop-color="#28E0B9"/>
<stop offset="0.97" stop-color="#19FB9B"/>
</linearGradient>
<clipPath id="clip0_8787_73358">
<rect width="11" height="10" fill="white"/>
</clipPath>
</defs>
</svg>
