<svg preserveAspectRatio="none" width="100%" height="100%" overflow="visible" style="display: block;" viewBox="0 0 16.1256 18" fill="none" xmlns="http://www.w3.org/2000/svg">
<g id="Vector">
<path d="M11.9758 0C14.2665 0 16.1256 1.87871 16.1256 4.30172H14.5487C14.5487 2.8005 13.3951 1.66801 11.9758 1.66801C10.5566 1.66801 9.40298 2.8005 9.40298 4.30172V7.82607H7.82606V4.30172C7.82606 1.87871 9.68516 0 11.9758 0Z" fill="var(--fill-0, white)"/>
<path fill-rule="evenodd" clip-rule="evenodd" d="M11.7377 6.2609H1.67682C0.754569 6.2609 0 7.01556 0 7.93791V16.323C0 17.2453 0.754569 18 1.67682 18H11.7377C12.66 18 13.4146 17.2453 13.4146 16.323V7.93791C13.4146 7.01556 12.66 6.2609 11.7377 6.2609ZM5.03046 12.1305C5.03046 13.0528 5.78503 13.8075 6.70728 13.8075C7.62953 13.8075 8.38409 13.0528 8.38409 12.1305C8.38409 11.2081 7.62953 10.4534 6.70728 10.4534C5.78503 10.4534 5.03046 11.2081 5.03046 12.1305Z" fill="var(--fill-0, white)"/>
</g>
</svg>
