<svg width="72" height="30" viewBox="0 0 72 30" fill="none" xmlns="http://www.w3.org/2000/svg">
<path d="M61.3164 19.6523L65.2126 27.1905C65.6949 28.1236 66.8167 28.5246 67.7811 28.1088L71.0713 26.6903" stroke="#3F78FF" stroke-width="1.5" stroke-linecap="round" stroke-linejoin="round"/>
<path d="M0.75 19.6523L5.12774 15.6332C5.68452 15.1221 6.48191 14.9684 7.18874 15.2362L10.3367 16.4285C10.7891 16.5999 11.2883 16.6015 11.7418 16.433L15.0062 15.22C15.6502 14.9807 16.372 15.0887 16.9177 15.506L19.8285 17.732C20.5456 18.2804 21.5412 18.2804 22.2584 17.732L25.3562 15.363C25.7962 15.0265 26.356 14.8876 26.9023 14.9793L30.2514 15.5415C30.7627 15.6273 31.2874 15.5112 31.7147 15.2177L35.5581 12.5782C35.8797 12.3574 36.1296 12.0474 36.2772 11.6863L38.913 5.23724C39.6264 3.49169 42.1379 3.61285 42.6799 5.41898L45.7847 15.7638C45.9565 16.3362 46.3753 16.8018 46.9263 17.033L50.4865 18.5272C50.8591 18.6836 51.2704 18.7234 51.6661 18.6415L55.5627 17.8345C55.8898 17.7668 56.2286 17.7821 56.5482 17.8789L61.0636 19.2471" stroke="#3F78FF" stroke-width="1.5" stroke-linecap="round" stroke-linejoin="round"/>
</svg>
