<svg preserveAspectRatio="none" width="100%" height="100%" overflow="visible" style="display: block;" viewBox="0 0 18 18" fill="none" xmlns="http://www.w3.org/2000/svg">
<g id="Vector">
<path d="M16.3752 6.17143C15.4063 2.59783 12.4709 0 9 0C5.52915 0 2.59367 2.59783 1.62478 6.17143H1.02857C0.460507 6.17143 0 6.63194 0 7.2V11.3143C0 11.8823 0.460507 12.3429 1.02857 12.3429H2.82857C3.39664 12.3429 3.85714 11.8823 3.85714 11.3143V7.2C3.85714 6.63194 3.39664 6.17143 2.82857 6.17143H2.58107C3.51548 3.17522 6.03678 1.02857 9.00047 1.02857C11.9642 1.02857 14.4855 3.17522 15.4199 6.17143H15.1714C14.6034 6.17143 14.1429 6.63194 14.1429 7.2V11.3143C14.1429 11.8333 14.5272 12.2625 15.0268 12.3328C14.1458 14.2285 12.5888 15.6579 10.7191 16.2091C10.5366 16.0437 10.2944 15.9429 10.0286 15.9429H7.97143C7.40336 15.9429 6.94286 16.4034 6.94286 16.9714C6.94286 17.5395 7.40336 18 7.97143 18H10.0286C10.5259 18 10.9408 17.647 11.0364 17.1779C13.2666 16.4879 15.0942 14.6922 16.032 12.3429H16.9714C17.5395 12.3429 18 11.8823 18 11.3143V7.2C18 6.63194 17.5395 6.17143 16.9714 6.17143H16.3752Z" fill="white"/>
<path d="M12.4286 8.31818C12.4286 10.1821 10.2632 12 8.93937 12C7.73684 12 5.57142 10.1821 5.57142 8.31818C5.57142 6.45422 5.81108 5.25 8.93937 5.25C12.0677 5.25 12.4286 6.45422 12.4286 8.31818Z" fill="var(--fill-0, white)"/>
</g>
</svg>
