<svg preserveAspectRatio="none" width="100%" height="100%" overflow="visible" style="display: block;" viewBox="0 0 9.20372 12.1816" fill="none" xmlns="http://www.w3.org/2000/svg">
<path id="Shape" d="M5.59766 0.262695L5.17383 1.96289C5.45695 2.02751 5.74212 2.09201 6.01953 2.16113L6.44043 0.473633L7.49609 0.736328L7.06348 2.46973C8.39612 2.92877 9.37115 3.61744 9.17969 4.89746C9.0411 5.8345 8.52068 6.28824 7.83105 6.44727C8.77796 6.94026 9.26067 7.69626 8.80176 9.00684C8.23208 10.6347 6.87795 10.7722 5.07812 10.4316L4.6416 12.1816L3.58594 11.9189L4.01758 10.1924C3.74401 10.1244 3.46378 10.0518 3.17578 9.97363L2.74316 11.709L1.68945 11.4463L2.12598 9.69238C1.87963 9.62929 1.62938 9.56204 1.37402 9.49805L0 9.15527L0.524414 7.94727C0.544467 7.9526 1.3014 8.1538 1.29102 8.13867C1.58983 8.21262 1.72211 8.01756 1.77441 7.8877L2.46484 5.12109C2.50346 5.13037 2.54113 5.13975 2.57617 5.14844C2.53424 5.13169 2.49616 5.12077 2.4668 5.11328L2.95898 3.1377C2.97186 2.91352 2.89484 2.63117 2.46777 2.52441C2.48414 2.51337 1.71337 2.3358 1.70117 2.33301L1.98145 1.20605L3.4375 1.56934L3.43652 1.5752C3.65524 1.62957 3.88083 1.68113 4.11035 1.7334L4.54297 0L5.59766 0.262695ZM3.51758 8.7041C4.23321 8.88183 6.43947 9.58992 6.76562 8.2793C7.10614 6.9126 4.81211 6.55942 4.09668 6.38086L3.51758 8.7041ZM4.36426 5.31738C4.96009 5.46589 6.79711 6.07117 7.09473 4.87891C7.40437 3.63543 5.48544 3.35846 4.88965 3.20996L4.36426 5.31738Z" fill="var(--fill-0, white)"/>
</svg>
