<svg width="313" height="221" viewBox="0 0 313 221" fill="none" xmlns="http://www.w3.org/2000/svg">
<rect width="312.744" height="220.5" rx="16" fill="#1B1D1D"/>
<path d="M10.1543 83.7098C16.6605 82.3976 32.2254 86.5442 42.4351 113.629C55.1973 147.484 64.2059 154.57 76.2173 147.484C88.2288 140.398 106.246 114.416 123.512 138.036C140.779 161.656 156.544 177.402 180.567 157.719C204.59 138.036 199.185 127.121 240.624 120.905C282.064 114.69 297.929 83.7095 300.681 68.75" stroke="white" stroke-width="2"/>
<rect x="224.523" y="83.25" width="42" height="27" rx="12" fill="#09441C"/>
<path d="M233.503 102.25V92.17H237.465C238.105 92.17 238.641 92.3007 239.075 92.562C239.509 92.8233 239.836 93.1617 240.055 93.577C240.275 93.9877 240.384 94.4217 240.384 94.879C240.384 95.4343 240.247 95.9103 239.971 96.307C239.701 96.7037 239.334 96.9743 238.872 97.119L238.858 96.776C239.502 96.9347 239.997 97.245 240.342 97.707C240.688 98.1643 240.86 98.6987 240.86 99.31C240.86 99.9027 240.741 100.418 240.503 100.857C240.27 101.296 239.927 101.639 239.474 101.886C239.026 102.129 238.483 102.25 237.843 102.25H233.503ZM234.987 100.857H237.619C237.951 100.857 238.247 100.794 238.508 100.668C238.774 100.542 238.982 100.362 239.131 100.129C239.285 99.891 239.362 99.6087 239.362 99.282C239.362 98.9787 239.295 98.7057 239.159 98.463C239.029 98.2157 238.837 98.022 238.585 97.882C238.338 97.7373 238.046 97.665 237.71 97.665H234.987V100.857ZM234.987 96.286H237.444C237.715 96.286 237.958 96.2323 238.172 96.125C238.392 96.013 238.564 95.8543 238.69 95.649C238.821 95.439 238.886 95.187 238.886 94.893C238.886 94.501 238.756 94.179 238.494 93.927C238.233 93.675 237.883 93.549 237.444 93.549H234.987V96.286ZM245.102 102.453C244.58 102.453 244.141 102.369 243.786 102.201C243.432 102.033 243.142 101.814 242.918 101.543C242.699 101.268 242.531 100.969 242.414 100.647C242.298 100.325 242.218 100.01 242.176 99.702C242.134 99.394 242.113 99.1233 242.113 98.89V94.69H243.597V98.407C243.597 98.701 243.621 99.0043 243.667 99.317C243.719 99.625 243.812 99.912 243.947 100.178C244.087 100.444 244.281 100.659 244.528 100.822C244.78 100.985 245.107 101.067 245.508 101.067C245.77 101.067 246.017 101.025 246.25 100.941C246.484 100.852 246.687 100.712 246.859 100.521C247.037 100.33 247.174 100.078 247.272 99.765C247.375 99.4523 247.426 99.072 247.426 98.624L248.336 98.967C248.336 99.653 248.208 100.26 247.951 100.787C247.695 101.31 247.326 101.718 246.845 102.012C246.365 102.306 245.784 102.453 245.102 102.453ZM247.601 102.25V100.066H247.426V94.69H248.903V102.25H247.601ZM251.889 105.61L253.352 101.627L253.373 102.803L250.076 94.69H251.602L254.066 100.955H253.618L255.97 94.69H257.454L253.282 105.61H251.889Z" fill="#5AC47D"/>
<rect x="163.523" y="116.25" width="42" height="27" rx="12" fill="#09441C"/>
<path d="M172.503 135.25V125.17H176.465C177.105 125.17 177.641 125.301 178.075 125.562C178.509 125.823 178.836 126.162 179.055 126.577C179.275 126.988 179.384 127.422 179.384 127.879C179.384 128.434 179.247 128.91 178.971 129.307C178.701 129.704 178.334 129.974 177.872 130.119L177.858 129.776C178.502 129.935 178.997 130.245 179.342 130.707C179.688 131.164 179.86 131.699 179.86 132.31C179.86 132.903 179.741 133.418 179.503 133.857C179.27 134.296 178.927 134.639 178.474 134.886C178.026 135.129 177.483 135.25 176.843 135.25H172.503ZM173.987 133.857H176.619C176.951 133.857 177.247 133.794 177.508 133.668C177.774 133.542 177.982 133.362 178.131 133.129C178.285 132.891 178.362 132.609 178.362 132.282C178.362 131.979 178.295 131.706 178.159 131.463C178.029 131.216 177.837 131.022 177.585 130.882C177.338 130.737 177.046 130.665 176.71 130.665H173.987V133.857ZM173.987 129.286H176.444C176.715 129.286 176.958 129.232 177.172 129.125C177.392 129.013 177.564 128.854 177.69 128.649C177.821 128.439 177.886 128.187 177.886 127.893C177.886 127.501 177.756 127.179 177.494 126.927C177.233 126.675 176.883 126.549 176.444 126.549H173.987V129.286ZM184.102 135.453C183.58 135.453 183.141 135.369 182.786 135.201C182.432 135.033 182.142 134.814 181.918 134.543C181.699 134.268 181.531 133.969 181.414 133.647C181.298 133.325 181.218 133.01 181.176 132.702C181.134 132.394 181.113 132.123 181.113 131.89V127.69H182.597V131.407C182.597 131.701 182.621 132.004 182.667 132.317C182.719 132.625 182.812 132.912 182.947 133.178C183.087 133.444 183.281 133.659 183.528 133.822C183.78 133.985 184.107 134.067 184.508 134.067C184.77 134.067 185.017 134.025 185.25 133.941C185.484 133.852 185.687 133.712 185.859 133.521C186.037 133.33 186.174 133.078 186.272 132.765C186.375 132.452 186.426 132.072 186.426 131.624L187.336 131.967C187.336 132.653 187.208 133.26 186.951 133.787C186.695 134.31 186.326 134.718 185.845 135.012C185.365 135.306 184.784 135.453 184.102 135.453ZM186.601 135.25V133.066H186.426V127.69H187.903V135.25H186.601ZM190.889 138.61L192.352 134.627L192.373 135.803L189.076 127.69H190.602L193.066 133.955H192.618L194.97 127.69H196.454L192.282 138.61H190.889Z" fill="#5AC47D"/>
<rect x="104.523" y="104.25" width="42" height="27" rx="12" fill="#09441C"/>
<path d="M113.503 123.25V113.17H117.465C118.105 113.17 118.641 113.301 119.075 113.562C119.509 113.823 119.836 114.162 120.055 114.577C120.275 114.988 120.384 115.422 120.384 115.879C120.384 116.434 120.247 116.91 119.971 117.307C119.701 117.704 119.334 117.974 118.872 118.119L118.858 117.776C119.502 117.935 119.997 118.245 120.342 118.707C120.688 119.164 120.86 119.699 120.86 120.31C120.86 120.903 120.741 121.418 120.503 121.857C120.27 122.296 119.927 122.639 119.474 122.886C119.026 123.129 118.483 123.25 117.843 123.25H113.503ZM114.987 121.857H117.619C117.951 121.857 118.247 121.794 118.508 121.668C118.774 121.542 118.982 121.362 119.131 121.129C119.285 120.891 119.362 120.609 119.362 120.282C119.362 119.979 119.295 119.706 119.159 119.463C119.029 119.216 118.837 119.022 118.585 118.882C118.338 118.737 118.046 118.665 117.71 118.665H114.987V121.857ZM114.987 117.286H117.444C117.715 117.286 117.958 117.232 118.172 117.125C118.392 117.013 118.564 116.854 118.69 116.649C118.821 116.439 118.886 116.187 118.886 115.893C118.886 115.501 118.756 115.179 118.494 114.927C118.233 114.675 117.883 114.549 117.444 114.549H114.987V117.286ZM125.102 123.453C124.58 123.453 124.141 123.369 123.786 123.201C123.432 123.033 123.142 122.814 122.918 122.543C122.699 122.268 122.531 121.969 122.414 121.647C122.298 121.325 122.218 121.01 122.176 120.702C122.134 120.394 122.113 120.123 122.113 119.89V115.69H123.597V119.407C123.597 119.701 123.621 120.004 123.667 120.317C123.719 120.625 123.812 120.912 123.947 121.178C124.087 121.444 124.281 121.659 124.528 121.822C124.78 121.985 125.107 122.067 125.508 122.067C125.77 122.067 126.017 122.025 126.25 121.941C126.484 121.852 126.687 121.712 126.859 121.521C127.037 121.33 127.174 121.078 127.272 120.765C127.375 120.452 127.426 120.072 127.426 119.624L128.336 119.967C128.336 120.653 128.208 121.26 127.951 121.787C127.695 122.31 127.326 122.718 126.845 123.012C126.365 123.306 125.784 123.453 125.102 123.453ZM127.601 123.25V121.066H127.426V115.69H128.903V123.25H127.601ZM131.889 126.61L133.352 122.627L133.373 123.803L130.076 115.69H131.602L134.066 121.955H133.618L135.97 115.69H137.454L133.282 126.61H131.889Z" fill="#5AC47D"/>
<rect x="44.5234" y="112.25" width="42" height="27" rx="12" fill="#09441C"/>
<path d="M53.5034 131.25V121.17H57.4654C58.1048 121.17 58.6414 121.301 59.0754 121.562C59.5094 121.823 59.8361 122.162 60.0554 122.577C60.2748 122.988 60.3844 123.422 60.3844 123.879C60.3844 124.434 60.2468 124.91 59.9714 125.307C59.7008 125.704 59.3344 125.974 58.8724 126.119L58.8584 125.776C59.5024 125.935 59.9971 126.245 60.3424 126.707C60.6878 127.164 60.8604 127.699 60.8604 128.31C60.8604 128.903 60.7414 129.418 60.5034 129.857C60.2701 130.296 59.9271 130.639 59.4744 130.886C59.0264 131.129 58.4828 131.25 57.8434 131.25H53.5034ZM54.9874 129.857H57.6194C57.9508 129.857 58.2471 129.794 58.5084 129.668C58.7744 129.542 58.9821 129.362 59.1314 129.129C59.2854 128.891 59.3624 128.609 59.3624 128.282C59.3624 127.979 59.2948 127.706 59.1594 127.463C59.0288 127.216 58.8374 127.022 58.5854 126.882C58.3381 126.737 58.0464 126.665 57.7104 126.665H54.9874V129.857ZM54.9874 125.286H57.4444C57.7151 125.286 57.9578 125.232 58.1724 125.125C58.3918 125.013 58.5644 124.854 58.6904 124.649C58.8211 124.439 58.8864 124.187 58.8864 123.893C58.8864 123.501 58.7558 123.179 58.4944 122.927C58.2331 122.675 57.8831 122.549 57.4444 122.549H54.9874V125.286ZM65.1024 131.453C64.5798 131.453 64.1411 131.369 63.7864 131.201C63.4318 131.033 63.1424 130.814 62.9184 130.543C62.6991 130.268 62.5311 129.969 62.4144 129.647C62.2978 129.325 62.2184 129.01 62.1764 128.702C62.1344 128.394 62.1134 128.123 62.1134 127.89V123.69H63.5974V127.407C63.5974 127.701 63.6208 128.004 63.6674 128.317C63.7188 128.625 63.8121 128.912 63.9474 129.178C64.0874 129.444 64.2811 129.659 64.5284 129.822C64.7804 129.985 65.1071 130.067 65.5084 130.067C65.7698 130.067 66.0171 130.025 66.2504 129.941C66.4838 129.852 66.6868 129.712 66.8594 129.521C67.0368 129.33 67.1744 129.078 67.2724 128.765C67.3751 128.452 67.4264 128.072 67.4264 127.624L68.3364 127.967C68.3364 128.653 68.2081 129.26 67.9514 129.787C67.6948 130.31 67.3261 130.718 66.8454 131.012C66.3648 131.306 65.7838 131.453 65.1024 131.453ZM67.6014 131.25V129.066H67.4264V123.69H68.9034V131.25H67.6014ZM71.8887 134.61L73.3517 130.627L73.3727 131.803L70.0757 123.69H71.6017L74.0657 129.955H73.6177L75.9697 123.69H77.4537L73.2817 134.61H71.8887Z" fill="#5AC47D"/>
<ellipse cx="65.3144" cy="149.375" rx="4.88663" ry="5.125" fill="#5AC47D"/>
<ellipse cx="125.385" cy="141.125" rx="4.88663" ry="5.125" fill="#5AC47D"/>
<ellipse cx="185.453" cy="153.375" rx="4.88663" ry="5.125" fill="#5AC47D"/>
<ellipse cx="245.523" cy="119.375" rx="4.88663" ry="5.125" fill="#5AC47D"/>
</svg>
