<svg width="313" height="221" viewBox="0 0 313 221" fill="none" xmlns="http://www.w3.org/2000/svg">
<rect width="312.744" height="220.5" rx="16" fill="#1B1D1D"/>
<path d="M191.631 117.75V110.19H192.933V112.024L192.751 111.786C192.844 111.543 192.966 111.322 193.115 111.121C193.264 110.916 193.437 110.748 193.633 110.617C193.824 110.477 194.037 110.37 194.27 110.295C194.508 110.216 194.751 110.169 194.998 110.155C195.245 110.136 195.483 110.148 195.712 110.19V111.562C195.465 111.497 195.189 111.478 194.886 111.506C194.587 111.534 194.312 111.63 194.06 111.793C193.822 111.947 193.633 112.134 193.493 112.353C193.358 112.572 193.26 112.817 193.199 113.088C193.138 113.354 193.108 113.636 193.108 113.935V117.75H191.631Z" fill="#858585"/>
<path d="M186.63 117.96C185.879 117.96 185.219 117.797 184.649 117.47C184.085 117.139 183.644 116.679 183.326 116.091C183.014 115.499 182.857 114.813 182.857 114.033C182.857 113.207 183.011 112.491 183.319 111.884C183.632 111.278 184.066 110.809 184.621 110.477C185.177 110.146 185.823 109.98 186.56 109.98C187.33 109.98 187.986 110.16 188.527 110.519C189.069 110.874 189.472 111.38 189.738 112.038C190.009 112.696 190.116 113.478 190.06 114.383H188.597V113.851C188.588 112.974 188.42 112.325 188.093 111.905C187.771 111.485 187.279 111.275 186.616 111.275C185.884 111.275 185.333 111.506 184.964 111.968C184.596 112.43 184.411 113.098 184.411 113.97C184.411 114.801 184.596 115.445 184.964 115.902C185.333 116.355 185.865 116.581 186.56 116.581C187.018 116.581 187.412 116.479 187.743 116.273C188.079 116.063 188.341 115.765 188.527 115.377L189.962 115.832C189.668 116.509 189.223 117.034 188.625 117.407C188.028 117.776 187.363 117.96 186.63 117.96ZM183.935 114.383V113.242H189.332V114.383H183.935Z" fill="#858585"/>
<path d="M177.763 117.96C177.058 117.96 176.449 117.785 175.936 117.435C175.427 117.085 175.033 116.609 174.753 116.007C174.478 115.4 174.34 114.719 174.34 113.963C174.34 113.202 174.48 112.523 174.76 111.926C175.04 111.324 175.437 110.85 175.95 110.505C176.468 110.155 177.082 109.98 177.791 109.98C178.505 109.98 179.105 110.155 179.59 110.505C180.08 110.85 180.449 111.324 180.696 111.926C180.948 112.528 181.074 113.207 181.074 113.963C181.074 114.719 180.948 115.398 180.696 116C180.444 116.602 180.073 117.08 179.583 117.435C179.093 117.785 178.486 117.96 177.763 117.96ZM177.966 116.637C178.447 116.637 178.839 116.523 179.142 116.294C179.445 116.065 179.667 115.75 179.807 115.349C179.947 114.948 180.017 114.486 180.017 113.963C180.017 113.44 179.945 112.978 179.8 112.577C179.66 112.176 179.441 111.863 179.142 111.639C178.848 111.415 178.472 111.303 178.015 111.303C177.53 111.303 177.131 111.422 176.818 111.66C176.505 111.898 176.272 112.218 176.118 112.619C175.969 113.02 175.894 113.468 175.894 113.963C175.894 114.462 175.969 114.915 176.118 115.321C176.272 115.722 176.501 116.042 176.804 116.28C177.112 116.518 177.499 116.637 177.966 116.637ZM180.017 117.75V112.311H179.849V107.67H181.319V117.75H180.017Z" fill="#858585"/>
<path d="M171.193 117.751V107.461H172.656V117.751H171.193Z" fill="#858585"/>
<path d="M165.807 117.96C165.051 117.96 164.395 117.79 163.84 117.449C163.284 117.109 162.855 116.64 162.552 116.042C162.253 115.44 162.104 114.747 162.104 113.963C162.104 113.175 162.258 112.482 162.566 111.884C162.874 111.282 163.305 110.816 163.861 110.484C164.416 110.148 165.065 109.98 165.807 109.98C166.563 109.98 167.218 110.151 167.774 110.491C168.329 110.832 168.758 111.301 169.062 111.898C169.365 112.496 169.517 113.184 169.517 113.963C169.517 114.752 169.363 115.447 169.055 116.049C168.751 116.647 168.322 117.116 167.767 117.456C167.211 117.792 166.558 117.96 165.807 117.96ZM165.807 116.581C166.53 116.581 167.069 116.339 167.424 115.853C167.783 115.363 167.963 114.733 167.963 113.963C167.963 113.175 167.781 112.545 167.417 112.073C167.057 111.597 166.521 111.359 165.807 111.359C165.317 111.359 164.913 111.471 164.596 111.695C164.278 111.915 164.043 112.22 163.889 112.612C163.735 113 163.658 113.45 163.658 113.963C163.658 114.757 163.84 115.391 164.204 115.867C164.568 116.343 165.102 116.581 165.807 116.581Z" fill="#858585"/>
<path d="M159.215 117.75V114.033C159.215 113.739 159.19 113.438 159.138 113.13C159.092 112.817 158.998 112.528 158.858 112.262C158.723 111.996 158.529 111.781 158.277 111.618C158.03 111.455 157.706 111.373 157.304 111.373C157.043 111.373 156.796 111.417 156.562 111.506C156.329 111.59 156.124 111.728 155.946 111.919C155.774 112.11 155.636 112.362 155.533 112.675C155.435 112.988 155.386 113.368 155.386 113.816L154.476 113.473C154.476 112.787 154.605 112.183 154.861 111.66C155.118 111.133 155.487 110.722 155.967 110.428C156.448 110.134 157.029 109.987 157.71 109.987C158.233 109.987 158.672 110.071 159.026 110.239C159.381 110.407 159.668 110.629 159.887 110.904C160.111 111.175 160.282 111.471 160.398 111.793C160.515 112.115 160.594 112.43 160.636 112.738C160.678 113.046 160.699 113.317 160.699 113.55V117.75H159.215ZM153.902 117.75V107.67H155.211V113.109H155.386V117.75H153.902Z" fill="#858585"/>
<path d="M148.91 117.96C148.158 117.96 147.498 117.797 146.929 117.47C146.364 117.139 145.923 116.679 145.606 116.091C145.293 115.499 145.137 114.813 145.137 114.033C145.137 113.207 145.291 112.491 145.599 111.884C145.911 111.278 146.345 110.809 146.901 110.477C147.456 110.146 148.102 109.98 148.84 109.98C149.61 109.98 150.265 110.16 150.807 110.519C151.348 110.874 151.752 111.38 152.018 112.038C152.288 112.696 152.396 113.478 152.34 114.383H150.877V113.851C150.867 112.974 150.699 112.325 150.373 111.905C150.051 111.485 149.558 111.275 148.896 111.275C148.163 111.275 147.612 111.506 147.244 111.968C146.875 112.43 146.691 113.098 146.691 113.97C146.691 114.801 146.875 115.445 147.244 115.902C147.612 116.355 148.144 116.581 148.84 116.581C149.297 116.581 149.691 116.479 150.023 116.273C150.359 116.063 150.62 115.765 150.807 115.377L152.242 115.832C151.948 116.509 151.502 117.034 150.905 117.407C150.307 117.776 149.642 117.96 148.91 117.96ZM146.215 114.383V113.242H151.612V114.383H146.215Z" fill="#858585"/>
<path d="M141.039 117.96C140.264 117.96 139.606 117.788 139.065 117.442C138.523 117.097 138.108 116.623 137.819 116.021C137.534 115.419 137.389 114.736 137.385 113.97C137.389 113.191 137.539 112.503 137.833 111.905C138.127 111.303 138.547 110.832 139.093 110.491C139.639 110.151 140.294 109.98 141.06 109.98C141.886 109.98 142.59 110.186 143.174 110.596C143.762 111.007 144.149 111.569 144.336 112.283L142.88 112.703C142.735 112.279 142.497 111.95 142.166 111.716C141.839 111.478 141.463 111.359 141.039 111.359C140.558 111.359 140.164 111.474 139.856 111.702C139.548 111.926 139.319 112.234 139.17 112.626C139.02 113.018 138.943 113.466 138.939 113.97C138.943 114.75 139.121 115.38 139.471 115.86C139.825 116.341 140.348 116.581 141.039 116.581C141.51 116.581 141.89 116.474 142.18 116.259C142.474 116.04 142.698 115.727 142.852 115.321L144.336 115.671C144.088 116.409 143.68 116.976 143.111 117.372C142.541 117.764 141.851 117.96 141.039 117.96Z" fill="#858585"/>
<path d="M131.969 117.96C131.409 117.96 130.94 117.858 130.562 117.652C130.184 117.442 129.897 117.167 129.701 116.826C129.51 116.481 129.414 116.103 129.414 115.692C129.414 115.31 129.482 114.974 129.617 114.684C129.752 114.395 129.953 114.15 130.219 113.949C130.485 113.744 130.812 113.578 131.199 113.452C131.535 113.354 131.915 113.268 132.34 113.193C132.765 113.119 133.21 113.049 133.677 112.983C134.148 112.918 134.615 112.853 135.077 112.787L134.545 113.081C134.554 112.489 134.428 112.05 134.167 111.765C133.91 111.476 133.467 111.331 132.837 111.331C132.44 111.331 132.076 111.425 131.745 111.611C131.414 111.793 131.183 112.097 131.052 112.521L129.687 112.101C129.874 111.453 130.228 110.937 130.751 110.554C131.278 110.172 131.978 109.98 132.851 109.98C133.528 109.98 134.116 110.097 134.615 110.33C135.119 110.559 135.488 110.923 135.721 111.422C135.842 111.67 135.917 111.931 135.945 112.206C135.973 112.482 135.987 112.778 135.987 113.095V117.75H134.692V116.021L134.944 116.245C134.631 116.824 134.232 117.256 133.747 117.54C133.266 117.82 132.674 117.96 131.969 117.96ZM132.228 116.763C132.643 116.763 133 116.691 133.299 116.546C133.598 116.397 133.838 116.208 134.02 115.979C134.202 115.751 134.321 115.513 134.377 115.265C134.456 115.041 134.501 114.789 134.51 114.509C134.524 114.229 134.531 114.005 134.531 113.837L135.007 114.012C134.545 114.082 134.125 114.145 133.747 114.201C133.369 114.257 133.026 114.313 132.718 114.369C132.415 114.421 132.144 114.484 131.906 114.558C131.705 114.628 131.526 114.712 131.367 114.81C131.213 114.908 131.089 115.027 130.996 115.167C130.907 115.307 130.863 115.478 130.863 115.678C130.863 115.874 130.912 116.056 131.01 116.224C131.108 116.388 131.257 116.518 131.458 116.616C131.659 116.714 131.915 116.763 132.228 116.763Z" fill="#858585"/>
<path d="M126.268 117.751V107.461H127.731V117.751H126.268Z" fill="#858585"/>
<path d="M117.352 117.75V107.67H121.426C121.524 107.67 121.645 107.675 121.79 107.684C121.934 107.689 122.072 107.703 122.203 107.726C122.763 107.815 123.229 108.006 123.603 108.3C123.981 108.594 124.263 108.965 124.45 109.413C124.636 109.861 124.73 110.356 124.73 110.897C124.73 111.443 124.636 111.94 124.45 112.388C124.263 112.836 123.981 113.207 123.603 113.501C123.229 113.795 122.763 113.986 122.203 114.075C122.072 114.094 121.932 114.108 121.783 114.117C121.638 114.126 121.519 114.131 121.426 114.131H118.815V117.75H117.352ZM118.815 112.745H121.37C121.463 112.745 121.566 112.74 121.678 112.731C121.794 112.722 121.904 112.705 122.007 112.682C122.305 112.612 122.546 112.484 122.728 112.297C122.91 112.106 123.04 111.886 123.12 111.639C123.199 111.392 123.239 111.144 123.239 110.897C123.239 110.65 123.199 110.405 123.12 110.162C123.04 109.915 122.91 109.698 122.728 109.511C122.546 109.32 122.305 109.189 122.007 109.119C121.904 109.091 121.794 109.072 121.678 109.063C121.566 109.054 121.463 109.049 121.37 109.049H118.815V112.745Z" fill="#858585"/>
</svg>
