<svg width="16" height="16" viewBox="0 0 16 16" fill="none" xmlns="http://www.w3.org/2000/svg">
<path d="M12.4603 3.54616C12.1842 3.27009 11.7382 3.27009 11.4622 3.54616L8.00065 7.00059L4.53914 3.53908C4.26307 3.26301 3.81711 3.26301 3.54104 3.53908C3.26497 3.81516 3.26497 4.26112 3.54104 4.53719L7.00255 7.9987L3.54104 11.4602C3.26497 11.7363 3.26497 12.1822 3.54104 12.4583C3.81711 12.7344 4.26307 12.7344 4.53914 12.4583L8.00065 8.9968L11.4622 12.4583C11.7382 12.7344 12.1842 12.7344 12.4603 12.4583C12.7363 12.1822 12.7363 11.7363 12.4603 11.4602L8.99875 7.9987L12.4603 4.53719C12.7293 4.2682 12.7293 3.81516 12.4603 3.54616Z" fill="#9B9C9C"/>
</svg>
