<svg width="48" height="48" viewBox="0 0 48 48" fill="none" xmlns="http://www.w3.org/2000/svg">
<rect x="4" y="3.75" width="40" height="40" rx="20" fill="#202326"/>
<rect x="12.1641" y="22.0273" width="23.6749" height="4.94038" fill="#3F464C"/>
<rect x="26.0859" y="13.9648" width="17.0467" height="1.54385" transform="rotate(90 26.0859 13.9648)" fill="#3F464C"/>
<rect x="16.125" y="17.0859" width="18.3799" height="14.8211" fill="#565C61"/>
<rect x="34.5039" y="17.0859" width="2.51931" height="16.5184" transform="rotate(90 34.5039 17.0859)" fill="#7C7C7C"/>
<rect x="17.9844" y="31.9062" width="4.12712" height="14.8211" transform="rotate(-180 17.9844 31.9062)" fill="#3F464C"/>
<path d="M31.9796 22.6946C31.9796 23.5355 31.2979 24.2173 30.457 24.2173C29.616 24.2173 28.9343 23.5355 28.9343 22.6946C28.9343 21.8536 29.616 21.1719 30.457 21.1719C31.2979 21.1719 31.9796 21.8536 31.9796 22.6946Z" fill="#202326"/>
<path d="M24.5219 22.6946C24.5219 23.5355 23.8402 24.2173 22.9993 24.2173C22.1583 24.2173 21.4766 23.5355 21.4766 22.6946C21.4766 21.8536 22.1583 21.1719 22.9993 21.1719C23.8402 21.1719 24.5219 21.8536 24.5219 22.6946Z" fill="#202326"/>
<path d="M28.9837 26.5774C28.5371 27.3648 27.6933 27.8929 26.7273 27.8929C25.7613 27.8929 24.9175 27.3648 24.4709 26.5774L22.9692 27.4292C23.71 28.7351 25.1148 29.6193 26.7273 29.6193C28.3398 29.6193 29.7446 28.7351 30.4854 27.4292L28.9837 26.5774Z" fill="#202326"/>
<circle cx="25.313" cy="12.6919" r="2.49656" fill="#3F464C"/>
<circle cx="26.0295" cy="11.9787" r="1.48653" fill="#7C7C7C"/>
</svg>
