<svg width="20" height="20" viewBox="0 0 20 20" fill="none" xmlns="http://www.w3.org/2000/svg">
<g clip-path="url(#clip0_8501_6236)">
<path d="M17.9943 7.4185C16.4304 8.98244 13.8948 8.98244 12.3308 7.4185C10.7669 5.85457 10.7669 3.31892 12.3308 1.75498C13.8948 0.191047 16.4304 0.191047 17.9943 1.75498C19.5583 3.31892 19.5583 5.85457 17.9943 7.4185Z" fill="white"/>
<path d="M7.67045 18.2437C6.10652 19.8077 3.57087 19.8077 2.00694 18.2437C0.443 16.6798 0.443 14.1442 2.00694 12.5802C3.57087 11.0163 6.10652 11.0163 7.67045 12.5802C9.23439 14.1442 9.23439 16.6798 7.67045 18.2437Z" fill="white"/>
<path fill-rule="evenodd" clip-rule="evenodd" d="M1.82537 6.18896L3.02299 5.60288L4.23721 8.08407L7.1123 6.5604L7.73665 7.73852L3.64487 9.90698L1.82537 6.18896Z" fill="white"/>
<path fill-rule="evenodd" clip-rule="evenodd" d="M3.54242 8.20051C4.20273 5.22853 6.37892 2.83891 9.20759 1.86808L9.64042 3.1292C7.24527 3.95124 5.4024 5.97648 4.84401 8.4897L3.54242 8.20051Z" fill="white"/>
<path fill-rule="evenodd" clip-rule="evenodd" d="M18.1761 13.8085L16.9785 14.3946L15.7643 11.9134L12.8892 13.437L12.2648 12.2589L16.3566 10.0905L18.1761 13.8085Z" fill="white"/>
<path fill-rule="evenodd" clip-rule="evenodd" d="M16.4591 11.7969C15.7987 14.7689 13.6226 17.1585 10.7939 18.1294L10.3611 16.8682C12.7562 16.0462 14.5991 14.021 15.1575 11.5077L16.4591 11.7969Z" fill="white"/>
</g>
<defs>
<clipPath id="clip0_8501_6236">
<rect width="20" height="20" fill="white"/>
</clipPath>
</defs>
</svg>
