<svg width="48" height="48" viewBox="0 0 48 48" fill="none" xmlns="http://www.w3.org/2000/svg">
<rect x="4" y="3.75" width="40" height="40" rx="20" fill="#202326"/>
<path d="M22.7304 29.0235C23.848 27.906 23.848 26.0941 22.7304 24.9765C21.6129 23.859 19.801 23.859 18.6834 24.9765L14.0226 29.6374C12.905 30.7549 12.905 32.5668 14.0226 33.6843C15.1401 34.8019 16.952 34.8019 18.0696 33.6843L22.7304 29.0235Z" fill="#3F464C"/>
<path d="M14.0226 29.6374L18.6835 24.9766C19.801 23.859 21.6129 23.859 22.7305 24.9766L14.0226 33.6844C12.9051 32.5668 12.9051 30.7549 14.0226 29.6374Z" fill="#3F464C"/>
<path d="M27.0429 12.5743L33.9806 13.7306L20.712 26.9992L16.665 22.9522L27.0429 12.5743Z" fill="#565C61"/>
<path d="M35.1366 20.668L33.9804 13.7304L20.7118 26.999L24.7587 31.046L35.1366 20.668Z" fill="#7C7C7C"/>
<path d="M14.2304 20.3243L22.2521 25.4553L27.3831 33.4769L24.9496 35.9104L11.797 22.7577L14.2304 20.3243Z" fill="#3F464C"/>
</svg>
