<svg width="52" height="52" viewBox="0 0 52 52" fill="none" xmlns="http://www.w3.org/2000/svg">
<path d="M11.5742 11.5628C18.3399 4.81242 29.3096 4.81241 36.0752 11.5628C42.2285 17.7023 42.7844 27.3108 37.7451 34.0784L44.7354 41.054C45.7549 42.0712 45.7549 43.7204 44.7354 44.7376C43.7159 45.7547 42.0634 45.7547 41.044 44.7376L34.0401 37.7493C27.2629 42.698 17.6973 42.1184 11.5742 36.009C4.80861 29.2585 4.80856 18.3133 11.5742 11.5628ZM32.3828 15.2463C27.6562 10.5308 19.9933 10.5308 15.2666 15.2463C10.5399 19.9625 10.5399 27.6093 15.2666 32.3254C19.9933 37.0414 27.6562 37.0414 32.3828 32.3254C37.1096 27.6093 37.1096 19.9625 32.3828 15.2463Z" fill="#58595A"/>
</svg>
