<svg width="20" height="20" viewBox="0 0 20 20" fill="none" xmlns="http://www.w3.org/2000/svg">
<path fill-rule="evenodd" clip-rule="evenodd" d="M10 17.5C14.1421 17.5 17.5 14.1421 17.5 10C17.5 5.85786 14.1421 2.5 10 2.5C5.85786 2.5 2.5 5.85786 2.5 10C2.5 14.1421 5.85786 17.5 10 17.5ZM10.8333 6.66667C10.8333 6.20643 10.4602 5.83333 10 5.83333C9.53976 5.83333 9.16667 6.20643 9.16667 6.66667V10.3452L11.3552 12.5337C11.6806 12.8591 12.2083 12.8591 12.5337 12.5337C12.8591 12.2083 12.8591 11.6806 12.5337 11.3552L10.8333 9.65482V6.66667Z" fill="white"/>
</svg>
