<svg width="20" height="20" viewBox="0 0 20 20" fill="none" xmlns="http://www.w3.org/2000/svg">
<g clip-path="url(#clip0_8474_3696)">
<path d="M4.99219 16L3.99219 15L15.0089 4L16.0089 5L4.99219 16ZM13.5089 16.25C12.9589 16.25 12.4561 16.1167 12.0005 15.85C11.5505 15.5778 11.1894 15.2167 10.9172 14.7667C10.645 14.3111 10.5089 13.8056 10.5089 13.25C10.5089 12.7056 10.6477 12.2056 10.9255 11.75C11.2033 11.2944 11.57 10.9306 12.0255 10.6583C12.4811 10.3861 12.9755 10.25 13.5089 10.25C14.0589 10.25 14.5616 10.3861 15.0172 10.6583C15.4727 10.925 15.8339 11.2861 16.1005 11.7417C16.3727 12.1917 16.5089 12.6944 16.5089 13.25C16.5089 13.8056 16.3727 14.3111 16.1005 14.7667C15.8339 15.2167 15.4727 15.5778 15.0172 15.85C14.5616 16.1167 14.0589 16.25 13.5089 16.25ZM13.5089 14.9417C13.8144 14.9417 14.095 14.8639 14.3505 14.7083C14.6116 14.5528 14.8172 14.3472 14.9672 14.0917C15.1227 13.8361 15.2005 13.5556 15.2005 13.25C15.2005 12.9444 15.1227 12.6639 14.9672 12.4083C14.8172 12.1472 14.6116 11.9417 14.3505 11.7917C14.095 11.6361 13.8144 11.5583 13.5089 11.5583C13.2033 11.5583 12.9227 11.6361 12.6672 11.7917C12.4116 11.9417 12.2061 12.1472 12.0505 12.4083C11.895 12.6639 11.8172 12.9444 11.8172 13.25C11.8172 13.5556 11.895 13.8361 12.0505 14.0917C12.2061 14.3472 12.4116 14.5528 12.6672 14.7083C12.9227 14.8639 13.2033 14.9417 13.5089 14.9417ZM6.49219 9.75C5.94219 9.75 5.43941 9.61667 4.98385 9.35C4.5283 9.07778 4.16441 8.71667 3.89219 8.26667C3.62552 7.81111 3.49219 7.30556 3.49219 6.75C3.49219 6.20556 3.63108 5.70555 3.90885 5.25C4.18663 4.79444 4.5533 4.43055 5.00885 4.15833C5.46441 3.88611 5.95885 3.75 6.49219 3.75C7.04219 3.75 7.54219 3.88611 7.99219 4.15833C8.44774 4.425 8.81163 4.78611 9.08385 5.24167C9.35608 5.69167 9.49219 6.19444 9.49219 6.75C9.49219 7.30556 9.35608 7.81111 9.08385 8.26667C8.81163 8.71667 8.44774 9.07778 7.99219 9.35C7.54219 9.61667 7.04219 9.75 6.49219 9.75ZM6.49219 8.44167C6.79774 8.44167 7.0783 8.36389 7.33385 8.20833C7.59497 8.05278 7.80052 7.84722 7.95052 7.59167C8.10608 7.33611 8.18385 7.05556 8.18385 6.75C8.18385 6.44444 8.10608 6.16389 7.95052 5.90833C7.80052 5.64722 7.59497 5.44167 7.33385 5.29167C7.0783 5.13611 6.79774 5.05833 6.49219 5.05833C6.18663 5.05833 5.90608 5.13611 5.65052 5.29167C5.39497 5.44167 5.18941 5.64722 5.03385 5.90833C4.8783 6.16389 4.80052 6.44444 4.80052 6.75C4.80052 7.05556 4.8783 7.33611 5.03385 7.59167C5.18941 7.84722 5.39497 8.05278 5.65052 8.20833C5.90608 8.36389 6.18663 8.44167 6.49219 8.44167Z" fill="#0D0E0F"/>
</g>
<defs>
<clipPath id="clip0_8474_3696">
<rect width="20" height="20" fill="white"/>
</clipPath>
</defs>
</svg>
