<svg width="16" height="16" viewBox="0 0 16 16" fill="none" xmlns="http://www.w3.org/2000/svg">
<path fill-rule="evenodd" clip-rule="evenodd" d="M13.0603 4.10901C13.5448 4.51304 13.5805 5.20086 13.1401 5.64529L6.87101 11.9714C6.62952 12.2151 6.24462 12.2416 5.97205 12.0332L2.99244 9.75539C2.46914 9.35534 2.40011 8.59323 2.84301 8.10567C3.23585 7.67321 3.8944 7.61356 4.35855 7.96839L5.88632 9.13633C6.07824 9.28305 6.34926 9.26442 6.51931 9.09283L11.3857 4.18216C11.8261 3.73773 12.5759 3.70498 13.0603 4.10901Z" fill="white"/>
<path fill-rule="evenodd" clip-rule="evenodd" d="M13.1401 5.64529C13.5805 5.20086 13.5448 4.51304 13.0603 4.10901C12.5759 3.70498 11.8261 3.73773 11.3857 4.18216L6.51931 9.09283C6.34926 9.26442 6.07824 9.28305 5.88632 9.13633L4.35855 7.96839C3.8944 7.61356 3.23585 7.67321 2.84301 8.10567C2.40011 8.59323 2.46914 9.35534 2.99244 9.75539L5.97205 12.0332C6.24462 12.2416 6.62952 12.2151 6.87101 11.9714L13.1401 5.64529Z" fill="white"/>
</svg>
