<svg xmlns="http://www.w3.org/2000/svg" width="20" height="20" viewBox="0 0 20 20" fill="none" aria-hidden="true">
  <path fill="#9B9C9C" d="M18.0705 9.99927C18.0705 8.19341 16.6065 6.72947 14.8007 6.72947C13.9815 6.72947 13.2475 7.08632 12.508 7.79781C11.906 8.37697 11.3574 9.13856 10.8266 9.99927C11.3574 10.86 11.906 11.6216 12.508 12.2007C13.2475 12.9122 13.9815 13.2691 14.8007 13.2691L14.8007 14.6704C12.2209 14.6704 10.5438 12.3348 9.19531 9.99927C10.5438 7.6637 12.2209 5.32812 14.8007 5.32812C17.3805 5.32812 19.4718 7.41947 19.4718 9.99927C19.4718 12.5791 17.3805 14.6704 14.8007 14.6704L14.8007 13.2691C16.6065 13.2691 18.0705 11.8051 18.0705 9.99927Z"/>
  <path fill="#9B9C9C" d="M1.93538 10.0007C1.93538 11.8066 3.39932 13.2705 5.20518 13.2705C6.02434 13.2705 6.75837 12.9137 7.49787 12.2022C8.09982 11.623 8.64845 10.8614 9.1793 10.0007C8.64845 9.14002 8.09982 8.37843 7.49787 7.79927C6.75837 7.08779 6.02434 6.73093 5.20518 6.73093L5.20518 5.32959C7.78498 5.32959 9.4621 7.66516 10.8105 10.0007C9.4621 12.3363 7.78498 14.6719 5.20518 14.6719C2.62538 14.6719 0.534035 12.5805 0.534035 10.0007C0.534035 7.42093 2.62538 5.32959 5.20518 5.32959L5.20518 6.73093C3.39932 6.73093 1.93538 8.19487 1.93538 10.0007Z"/>
</svg>
