<svg width="16" height="16" viewBox="0 0 16 16" fill="none" xmlns="http://www.w3.org/2000/svg">
<path fill-rule="evenodd" clip-rule="evenodd" d="M7.99935 1.33268C4.31745 1.33268 1.33268 4.31745 1.33268 7.99935C1.33268 11.6812 4.31745 14.666 7.99935 14.666C11.6812 14.666 14.666 11.6812 14.666 7.99935C14.666 4.31745 11.6812 1.33268 7.99935 1.33268ZM8.00054 12.04C7.45107 12.04 7.00564 11.5945 7.00564 11.0451L7.00564 7.63638C7.00564 7.08691 7.45107 6.64148 8.00054 6.64148C8.55001 6.64148 8.99544 7.08691 8.99544 7.63638L8.99544 11.0451C8.99544 11.5945 8.55001 12.04 8.00054 12.04ZM7.09683 4.86524C7.09683 4.36316 7.50384 3.95615 8.00592 3.95615C8.508 3.95615 8.91501 4.36316 8.91501 4.86524C8.91501 5.36732 8.508 5.77433 8.00592 5.77433C7.50384 5.77433 7.09683 5.36732 7.09683 4.86524Z" fill="#ffffff"/>
</svg>
