<svg width="48" height="48" viewBox="0 0 48 48" fill="none" xmlns="http://www.w3.org/2000/svg">
<rect x="4" y="3.75" width="40" height="40" rx="20" fill="#202326"/>
<path fill-rule="evenodd" clip-rule="evenodd" d="M14.395 25.01L18.1316 20.5056C18.1896 20.5072 18.5342 20.344 18.9861 20.1199L16.489 12.2148C16.212 12.2472 15.9637 12.4061 15.5494 12.7983C14.5805 13.7153 13.7367 15.0279 13.3891 16.5799C13.012 18.2633 13.0192 18.7248 13.0383 19.9601C13.0433 20.2828 13.0491 20.6583 13.0491 21.1222C13.0491 23.362 14.395 25.01 14.395 25.01Z" fill="#565C61"/>
<path fill-rule="evenodd" clip-rule="evenodd" d="M33.6062 25.01L29.8696 20.5056C29.8116 20.5072 29.467 20.344 29.0151 20.1199L31.5122 12.2148C31.7892 12.2472 32.0375 12.4061 32.4519 12.7983C33.4207 13.7153 34.2645 15.0279 34.6121 16.5799C34.9892 18.2633 34.982 18.7248 34.9629 19.9601C34.9579 20.2828 34.9521 20.6583 34.9521 21.1222C34.9521 23.362 33.6062 25.01 33.6062 25.01Z" fill="#565C61"/>
<path d="M30.3763 12.7987C29.529 13.4869 27.0449 16.8732 26.4385 18.1218C26.0406 18.9412 26.089 18.9295 26.2817 18.8829C26.3128 18.8753 26.3476 18.8669 26.3849 18.8609C26.481 18.8455 27.3902 19.3035 28.2569 19.7401C28.5218 19.8735 28.7828 20.005 29.0153 20.1203L31.5125 12.2153C31.1688 12.1751 30.8455 12.4177 30.3763 12.7987Z" fill="#3F464C"/>
<path d="M21.5622 18.1218C20.9558 16.8732 18.4717 13.4869 17.6244 12.7987C17.1553 12.4177 16.832 12.1751 16.4883 12.2153L18.9854 20.1203C19.218 20.005 19.4789 19.8735 19.7439 19.7401C20.6105 19.3035 21.5197 18.8455 21.6159 18.8609C21.6531 18.8669 21.6879 18.8753 21.719 18.8829C21.9118 18.9295 21.9602 18.9412 21.5622 18.1218Z" fill="#3F464C"/>
<path d="M34.9701 26.3701C34.9701 32.4284 29.0588 35.1943 24.0007 35.1943C18.9425 35.1943 13.0313 32.4284 13.0313 26.3701C13.0313 20.3119 17.9424 16.4844 24.0007 16.4844C30.0589 16.4844 34.9701 20.3119 34.9701 26.3701Z" fill="#565C61"/>
<path d="M13.0312 18.7481H14.8439V26.9089H13.0312V18.7481Z" fill="#565C61"/>
<path d="M33.1574 18.7481H34.9701V26.9089H33.1574V18.7481Z" fill="#565C61"/>
<path d="M24.0002 35.2849C27.7223 35.2849 32.7477 33.9083 34.2934 29.7232L24.0002 23.7539L13.707 29.7232C15.2528 33.9083 20.2781 35.2849 24.0002 35.2849Z" fill="#7C7C7C"/>
<path d="M23.9996 32.9407C25.3078 32.9407 26.3683 31.8802 26.3683 30.572V29.3438H21.6309V30.572C21.6309 31.8802 22.6914 32.9407 23.9996 32.9407Z" fill="#3F464C"/>
<path d="M23.9927 28C23.5949 28.7014 22.8432 29.1719 21.9826 29.1719C21.1221 29.1719 20.3704 28.7014 19.9725 28L18.6348 28.7588C19.2947 29.9222 20.5462 30.7099 21.9826 30.7099C23.0424 30.7099 24.0015 30.2811 24.6967 29.5891C24.9437 29.3431 24.2143 29.3216 24.3874 29.0165L23.9927 28Z" fill="#202326"/>
<path d="M28.0269 28C27.629 28.7014 26.8773 29.1719 26.0167 29.1719C25.1562 29.1719 24.4045 28.7014 24.0066 28L23.6135 29.1719C23.7865 29.477 23.0556 29.3431 23.3027 29.5891C23.9979 30.2811 24.957 30.7099 26.0167 30.7099C27.4532 30.7099 28.7047 29.9222 29.3646 28.7588L28.0269 28Z" fill="#202326"/>
<path d="M27.7021 25.8193L24 29.5213L20.2979 25.8193H27.7021Z" fill="#202326"/>
<path d="M29.3367 21.7852C28.2101 21.7852 27.2969 22.6984 27.2969 23.825H31.3765C31.3765 22.6984 30.4632 21.7852 29.3367 21.7852Z" fill="#202326"/>
<path d="M18.6648 21.7852C17.5383 21.7852 16.625 22.6984 16.625 23.825H20.7046C20.7046 22.6984 19.7914 21.7852 18.6648 21.7852Z" fill="#202326"/>
</svg>
