<svg width="56" height="56" viewBox="0 0 56 56" fill="none" xmlns="http://www.w3.org/2000/svg">
<path d="M14.7599 49.5608C21.3226 49.5608 26.6428 44.2406 26.6428 37.6778C26.6428 31.1151 21.3226 25.7949 14.7599 25.7949C8.19712 25.7949 2.87695 31.1151 2.87695 37.6778C2.87695 44.2406 8.19712 49.5608 14.7599 49.5608Z" fill="#0184FF"/>
<path d="M14.7598 28.7656V35.3546L20.6989 37.8431L14.7598 28.7656Z" fill="white" fill-opacity="0.602"/>
<path d="M14.7582 28.7656L8.81836 37.8431L14.7582 35.3546V28.7656Z" fill="white"/>
<path d="M14.7598 42.1137V46.5908L20.7028 38.8809L14.7598 42.1137Z" fill="white" fill-opacity="0.602"/>
<path d="M14.7582 46.5908V42.1129L8.81836 38.8809L14.7582 46.5908Z" fill="white"/>
<path d="M14.7598 41.078L20.6989 37.8444L14.7598 35.3574V41.078Z" fill="white" fill-opacity="0.2"/>
<path d="M8.81836 37.8425L14.7582 41.0761V35.3555L8.81836 37.8425Z" fill="white" fill-opacity="0.602"/>
<path d="M41.2403 49.3049C47.8031 49.3049 53.1233 43.9847 53.1233 37.422C53.1233 30.8592 47.8031 25.5391 41.2403 25.5391C34.6776 25.5391 29.3574 30.8592 29.3574 37.422C29.3574 43.9847 34.6776 49.3049 41.2403 49.3049Z" fill="white"/>
<g clip-path="url(#clip0_8444_7519)">
<path d="M47.1133 40.8493L44.9555 43.2016C44.9086 43.2527 44.8518 43.2934 44.7888 43.3212C44.7257 43.3491 44.6577 43.3634 44.5889 43.3634H34.3599C34.3111 43.3634 34.2633 43.3489 34.2225 43.3217C34.1817 43.2945 34.1496 43.2558 34.1301 43.2103C34.1107 43.1648 34.1047 43.1145 34.113 43.0656C34.1213 43.0167 34.1434 42.9713 34.1767 42.935L36.3362 40.5828C36.3829 40.5318 36.4395 40.4912 36.5024 40.4633C36.5652 40.4355 36.6331 40.4211 36.7016 40.421H46.9301C46.9789 40.421 47.0266 40.4355 47.0675 40.4627C47.1083 40.4899 47.1404 40.5286 47.1599 40.5741C47.1793 40.6196 47.1853 40.6699 47.177 40.7188C47.1687 40.7677 47.1466 40.813 47.1133 40.8493ZM44.9555 36.1125C44.9086 36.0614 44.8518 36.0207 44.7888 35.9929C44.7257 35.965 44.6577 35.9507 44.5889 35.9507H34.3599C34.3111 35.9507 34.2633 35.9652 34.2225 35.9924C34.1817 36.0196 34.1496 36.0584 34.1301 36.1038C34.1107 36.1494 34.1047 36.1996 34.113 36.2485C34.1213 36.2974 34.1434 36.3428 34.1767 36.3791L36.3362 38.7313C36.3829 38.7823 36.4395 38.8229 36.5024 38.8508C36.5652 38.8786 36.6331 38.893 36.7016 38.8931H46.9301C46.9789 38.8931 47.0266 38.8787 47.0675 38.8514C47.1083 38.8242 47.1404 38.7855 47.1599 38.74C47.1793 38.6945 47.1853 38.6442 47.177 38.5953C47.1687 38.5464 47.1466 38.5011 47.1133 38.4648L44.9555 36.1125ZM34.3599 34.4229H44.5889C44.6577 34.4229 44.7257 34.4086 44.7888 34.3808C44.8518 34.3529 44.9086 34.3122 44.9555 34.2611L47.1133 31.9088C47.1466 31.8725 47.1687 31.8272 47.177 31.7783C47.1853 31.7294 47.1793 31.6791 47.1599 31.6336C47.1404 31.5881 47.1083 31.5494 47.0675 31.5222C47.0266 31.495 46.9789 31.4805 46.9301 31.4805H36.7016C36.6331 31.4806 36.5652 31.495 36.5024 31.5228C36.4395 31.5507 36.3829 31.5913 36.3362 31.6423L34.1773 33.9946C34.144 34.0308 34.1219 34.0761 34.1136 34.1249C34.1053 34.1738 34.1112 34.224 34.1306 34.2695C34.15 34.315 34.182 34.3537 34.2227 34.381C34.2635 34.4082 34.3111 34.4228 34.3599 34.4229Z" fill="url(#paint0_linear_8444_7519)"/>
</g>
<path d="M28.0021 26.6428C34.5648 26.6428 39.885 21.3226 39.885 14.7599C39.885 8.19712 34.5648 2.87695 28.0021 2.87695C21.4393 2.87695 16.1191 8.19712 16.1191 14.7599C16.1191 21.3226 21.4393 26.6428 28.0021 26.6428Z" fill="#FF7D43"/>
<path d="M28.8037 7.94141L28.2998 9.96094C28.6362 10.0377 28.9751 10.1151 29.3047 10.1973L29.8057 8.19141L31.0596 8.50391L30.5459 10.5645C32.1293 11.1099 33.287 11.9274 33.0596 13.4482C32.8949 14.5617 32.2775 15.1011 31.458 15.29C32.5833 15.8759 33.1568 16.7745 32.6113 18.332C31.9344 20.2663 30.3252 20.4291 28.1865 20.0244L27.668 22.1045L26.4141 21.792L26.9258 19.7402C26.6008 19.6595 26.2689 19.5733 25.9268 19.4805L25.4121 21.543L24.1592 21.2295L24.6787 19.1455C24.3858 19.0705 24.0878 18.9911 23.7842 18.915L22.1523 18.5078L22.7754 17.0723C22.7943 17.0773 23.6989 17.3178 23.6865 17.2998C24.0416 17.3877 24.1996 17.1563 24.2617 17.002L25.082 13.7139C25.1279 13.7249 25.1722 13.7368 25.2139 13.7471C25.164 13.7271 25.1189 13.714 25.084 13.7051L25.6689 11.3574C25.6842 11.091 25.5918 10.7547 25.084 10.6279C25.1035 10.6148 24.1895 10.405 24.1738 10.4014L24.5068 9.0625L26.2373 9.49414L26.2354 9.5C26.4953 9.56464 26.7633 9.62634 27.0361 9.68848L27.5508 7.62891L28.8037 7.94141ZM26.332 17.9717C27.1822 18.1828 29.8047 19.0251 30.1924 17.4678C30.5975 15.8435 27.8707 15.4231 27.0205 15.2109L26.332 17.9717ZM27.3389 13.9473C28.0471 14.1238 30.2294 14.8434 30.583 13.4268C30.9513 11.9489 28.6709 11.6198 27.9629 11.4434L27.3389 13.9473Z" fill="white"/>
<defs>
<linearGradient id="paint0_linear_8444_7519" x1="35.2127" y1="43.6466" x2="46.136" y2="31.5324" gradientUnits="userSpaceOnUse">
<stop offset="0.08" stop-color="#9945FF"/>
<stop offset="0.3" stop-color="#8752F3"/>
<stop offset="0.5" stop-color="#5497D5"/>
<stop offset="0.6" stop-color="#43B4CA"/>
<stop offset="0.72" stop-color="#28E0B9"/>
<stop offset="0.97" stop-color="#19FB9B"/>
</linearGradient>
<clipPath id="clip0_8444_7519">
<rect width="13.0712" height="11.8829" fill="white" transform="translate(34.1094 31.4805)"/>
</clipPath>
</defs>
</svg>
