<svg width="48" height="48" viewBox="0 0 48 48" fill="none" xmlns="http://www.w3.org/2000/svg">
<rect x="4" y="3.75" width="40" height="40" rx="20" fill="#62370F"/>
<path d="M14.6113 13.2695H33.39C34.4946 13.2695 35.39 14.165 35.39 15.2695V32.2271C35.39 33.3382 34.4844 34.2363 33.3735 34.2271L14.5948 34.0719C13.4967 34.0628 12.6113 33.1701 12.6113 32.072V15.2695C12.6113 14.165 13.5068 13.2695 14.6113 13.2695Z" fill="#BD610D"/>
<circle cx="20.3224" cy="19.0841" r="2.72866" fill="white"/>
<path d="M12.6113 32.152C12.6113 33.2565 13.5068 34.152 14.6113 34.152H33.39C34.4946 34.152 35.39 33.2565 35.39 32.152V30.9329L26.2696 21.8125L21.686 26.3962L19.3229 24.0331L12.6113 30.7446V32.152Z" fill="#FA945A"/>
</svg>
