<svg width="48" height="48" viewBox="0 0 48 48" fill="none" xmlns="http://www.w3.org/2000/svg">
<rect x="4" y="3.75" width="40" height="40" rx="20" fill="#62370F"/>
<path d="M26.7495 28.2688C25.9119 27.7915 24.9643 27.541 24.0003 27.542C23.0363 27.541 22.0887 27.7915 21.2512 28.2688L17.8202 30.2291C17.2711 30.5429 16.6492 30.707 16.0167 30.7049C15.3843 30.7028 14.7634 30.5346 14.2164 30.2171C13.6694 29.8997 13.2153 29.4441 12.8997 28.8961C12.5841 28.348 12.418 27.7266 12.418 27.0941V19.25C12.418 18.1454 13.3134 17.25 14.418 17.25H33.5825C34.6871 17.25 35.5825 18.1454 35.5825 19.25V27.0941C35.5826 27.7266 35.4165 28.348 35.1009 28.8961C34.7854 29.4442 34.3313 29.8998 33.7843 30.2173C33.2373 30.5347 32.6165 30.703 31.984 30.7051C31.3515 30.7072 30.7296 30.5431 30.1805 30.2293L26.7495 28.2688Z" fill="#FA945A"/>
<path d="M26.7493 28.2688C25.9117 27.7915 24.964 27.541 24 27.542L28 17.25H33.62C34.7037 17.25 35.5823 18.1286 35.5823 19.2123V27.0941C35.5824 27.7266 35.4163 28.348 35.1007 28.8961C34.7851 29.4442 34.3311 29.8998 33.7841 30.2173C33.237 30.5347 32.6162 30.703 31.9837 30.7051C31.3513 30.7072 30.7294 30.5431 30.1802 30.2293L26.7493 28.2688Z" fill="white"/>
<path d="M10.5098 21.2266H12.4186V26.4572H10.5098V21.2266Z" fill="#BD610D"/>
<path d="M35.584 21.2266H37.4928V26.4572H35.584V21.2266Z" fill="#BD610D"/>
</svg>
