<svg width="16" height="16" viewBox="0 0 16 16" fill="none" xmlns="http://www.w3.org/2000/svg">
<circle cx="8.00065" cy="7.9987" r="6.66667" fill="white"/>
<path fill-rule="evenodd" clip-rule="evenodd" d="M7.99935 1.33464C4.31745 1.33464 1.33268 4.3194 1.33268 8.0013C1.33268 11.6832 4.31745 14.668 7.99935 14.668C11.6812 14.668 14.666 11.6832 14.666 8.0013C14.666 4.31941 11.6812 1.33464 7.99935 1.33464ZM8.00054 12.0419C7.45107 12.0419 7.00564 11.5965 7.00564 11.047L7.00564 7.63833C7.00564 7.08886 7.45107 6.64343 8.00054 6.64343C8.55001 6.64343 8.99544 7.08886 8.99544 7.63833L8.99544 11.047C8.99544 11.5965 8.55001 12.0419 8.00054 12.0419ZM7.09683 4.86719C7.09683 4.36512 7.50384 3.9581 8.00592 3.9581C8.508 3.9581 8.91501 4.36512 8.91501 4.86719C8.91501 5.36927 8.508 5.77628 8.00592 5.77628C7.50384 5.77628 7.09683 5.36927 7.09683 4.86719Z" fill="#FF6D47"/>
</svg>
