<svg width="32" height="32" viewBox="0 0 32 32" fill="none" xmlns="http://www.w3.org/2000/svg">
<path d="M9.77648 14.2229C12.2311 14.2229 14.2209 12.233 14.2209 9.77843C14.2209 7.32383 12.2311 5.33398 9.77648 5.33398C7.32188 5.33398 5.33203 7.32383 5.33203 9.77843C5.33203 12.233 7.32188 14.2229 9.77648 14.2229Z" fill="#01D183"/>
<path d="M9.77648 26.6702C12.2311 26.6702 14.2209 24.6803 14.2209 22.2257C14.2209 19.7711 12.2311 17.7812 9.77648 17.7812C7.32188 17.7812 5.33203 19.7711 5.33203 22.2257C5.33203 24.6803 7.32188 26.6702 9.77648 26.6702Z" fill="#2390FF"/>
<path d="M22.2218 14.2229C24.6764 14.2229 26.6662 12.233 26.6662 9.77843C26.6662 7.32383 24.6764 5.33398 22.2218 5.33398C19.7672 5.33398 17.7773 7.32383 17.7773 9.77843C17.7773 12.233 19.7672 14.2229 22.2218 14.2229Z" fill="#52D5FF"/>
<path d="M22.2218 26.6702C24.6764 26.6702 26.6662 24.6803 26.6662 22.2257C26.6662 19.7711 24.6764 17.7812 22.2218 17.7812C19.7672 17.7812 17.7773 19.7711 17.7773 22.2257C17.7773 24.6803 19.7672 26.6702 22.2218 26.6702Z" fill="#FF7D43"/>
</svg>
