<svg width="20" height="20" viewBox="0 0 20 20" fill="none" xmlns="http://www.w3.org/2000/svg">
<path d="M16.4853 5.30045C16.3943 5.16405 16.2578 5.11858 16.0757 5.11858H13.2088C12.7993 5.11858 12.4352 4.98218 12.1167 4.75484L10.3419 3.43629C10.1599 3.29988 9.88689 3.29988 9.65935 3.43629L7.93012 4.75484C7.61157 4.98218 7.20202 5.11858 6.83797 5.11858H3.88006C3.74354 5.11858 3.56152 5.16405 3.4705 5.30045C3.37949 5.39139 3.33398 5.52779 3.33398 5.70966C3.51601 7.71023 4.10759 9.7108 5.06322 11.7114C5.97335 13.5755 7.24752 15.1214 8.84024 16.3036C9.15879 16.5309 9.56834 16.6673 9.9779 16.6673C10.3875 16.6673 10.7515 16.5309 11.1156 16.3036C12.7538 15.1669 14.028 13.621 14.9381 11.7114C15.8937 9.7108 16.4853 7.66476 16.6673 5.70966C16.6673 5.52779 16.6218 5.39139 16.4853 5.30045Z" fill="#9B9C9C"/>
</svg>
