<svg width="56" height="56" viewBox="0 0 56 56" fill="none" xmlns="http://www.w3.org/2000/svg">
<path d="M27.9994 51.3327C40.886 51.3327 51.3327 40.886 51.3327 27.9994C51.3327 15.1127 40.886 4.66602 27.9994 4.66602C15.1127 4.66602 4.66602 15.1127 4.66602 27.9994C4.66602 40.886 15.1127 51.3327 27.9994 51.3327Z" fill="white"/>
<g clip-path="url(#clip0_8444_7495)">
<path d="M39.5345 34.7306L35.2975 39.3495C35.2054 39.4499 35.0939 39.5299 34.9701 39.5845C34.8462 39.6392 34.7126 39.6674 34.5776 39.6673H14.4919C14.3961 39.6673 14.3023 39.6388 14.2222 39.5854C14.142 39.532 14.079 39.456 14.0408 39.3666C14.0026 39.2773 13.9909 39.1785 14.0071 39.0825C14.0234 38.9865 14.0669 38.8974 14.1323 38.8262L18.3725 34.2073C18.4644 34.1072 18.5755 34.0274 18.6989 33.9728C18.8223 33.9181 18.9555 33.8898 19.0902 33.8895H39.1748C39.2706 33.8895 39.3644 33.918 39.4446 33.9714C39.5246 34.0248 39.5876 34.1009 39.626 34.1902C39.6641 34.2796 39.6758 34.3783 39.6596 34.4743C39.6433 34.5703 39.5998 34.6594 39.5345 34.7306ZM35.2975 25.4295C35.2054 25.3292 35.0939 25.2492 34.9701 25.1945C34.8462 25.1399 34.7126 25.1117 34.5776 25.1118H14.4919C14.3961 25.1118 14.3023 25.1402 14.2222 25.1937C14.142 25.2471 14.079 25.3231 14.0408 25.4125C14.0026 25.5018 13.9909 25.6006 14.0071 25.6966C14.0234 25.7925 14.0669 25.8816 14.1323 25.9529L18.3725 30.5718C18.4644 30.6718 18.5755 30.7517 18.6989 30.8063C18.8223 30.861 18.9555 30.8893 19.0902 30.8895H39.1748C39.2706 30.8895 39.3644 30.8611 39.4446 30.8077C39.5246 30.7542 39.5876 30.6782 39.626 30.5888C39.6641 30.4995 39.6758 30.4008 39.6596 30.3047C39.6433 30.2088 39.5998 30.1197 39.5345 30.0484L35.2975 25.4295ZM14.4919 22.1118H34.5776C34.7126 22.1118 34.8462 22.0837 34.9701 22.029C35.0939 21.9743 35.2054 21.8943 35.2975 21.794L39.5345 17.1751C39.5998 17.1039 39.6433 17.0148 39.6596 16.9188C39.6758 16.8228 39.6641 16.724 39.626 16.6347C39.5876 16.5453 39.5246 16.4693 39.4446 16.4159C39.3644 16.3624 39.2706 16.334 39.1748 16.334H19.0902C18.9555 16.3342 18.8223 16.3625 18.6989 16.4172C18.5755 16.4719 18.4644 16.5517 18.3725 16.6518L14.1333 21.2707C14.068 21.3418 14.0246 21.4308 14.0083 21.5267C13.992 21.6226 14.0036 21.7213 14.0416 21.8106C14.0797 21.8999 14.1426 21.9759 14.2226 22.0294C14.3025 22.0829 14.3961 22.1115 14.4919 22.1118Z" fill="url(#paint0_linear_8444_7495)"/>
</g>
<defs>
<linearGradient id="paint0_linear_8444_7495" x1="16.1666" y1="40.2234" x2="37.6154" y2="16.4359" gradientUnits="userSpaceOnUse">
<stop offset="0.08" stop-color="#9945FF"/>
<stop offset="0.3" stop-color="#8752F3"/>
<stop offset="0.5" stop-color="#5497D5"/>
<stop offset="0.6" stop-color="#43B4CA"/>
<stop offset="0.72" stop-color="#28E0B9"/>
<stop offset="0.97" stop-color="#19FB9B"/>
</linearGradient>
<clipPath id="clip0_8444_7495">
<rect width="25.6667" height="23.3333" fill="white" transform="translate(14 16.334)"/>
</clipPath>
</defs>
</svg>
