<svg width="32" height="32" viewBox="0 0 32 32" fill="none" xmlns="http://www.w3.org/2000/svg">
<path d="M26.3741 8.47838C26.2285 8.26014 26.0101 8.18739 25.7188 8.18739H21.1318C20.4765 8.18739 19.894 7.96914 19.3844 7.6054L16.5448 5.49571C16.2535 5.27747 15.8167 5.27747 15.4526 5.49571L12.6858 7.6054C12.1762 7.96914 11.5209 8.18739 10.9384 8.18739H6.20575C5.98732 8.18739 5.69608 8.26014 5.55046 8.47838C5.40484 8.62388 5.33203 8.84212 5.33203 9.13311C5.62327 12.334 6.5698 15.5349 8.09881 18.7358C9.55501 21.7185 11.5937 24.1919 14.142 26.0834C14.6517 26.4471 15.307 26.6654 15.9623 26.6654C16.6176 26.6654 17.2001 26.4471 17.7825 26.0834C20.4037 24.2647 22.4424 21.7913 23.8986 18.7358C25.4276 15.5349 26.3741 12.2613 26.6654 9.13311C26.6654 8.84212 26.5926 8.62388 26.3741 8.47838ZM20.4037 13.7162L14.5061 19.3178C14.4333 19.3906 14.3605 19.3906 14.2877 19.3906C14.2149 19.3906 14.0692 19.3178 14.0692 19.3178L11.6665 16.5534C11.5209 16.4079 11.5937 16.1897 11.6665 16.1169L12.3218 15.5349C12.3946 15.4622 12.4674 15.4622 12.613 15.4622C12.6858 15.4622 12.7587 15.5349 12.8315 15.5349L14.4333 17.2809L19.3844 12.5523C19.4572 12.4795 19.53 12.4795 19.6028 12.4795C19.6756 12.4795 19.7484 12.5523 19.8212 12.5523L20.4037 13.207C20.5493 13.4252 20.5493 13.6435 20.4037 13.7162Z" fill="#5AC47D"/>
</svg>
