<svg width="20" height="20" viewBox="0 0 20 20" fill="none" xmlns="http://www.w3.org/2000/svg">
<path fill-rule="evenodd" clip-rule="evenodd" d="M11.5167 2.00488H8.48136C7.45034 2.00488 6.6459 2.00488 6.0002 2.05763C5.34396 2.11125 4.80777 2.22184 4.32445 2.46811C3.52476 2.87557 2.87459 3.52573 2.46713 4.32542C2.22087 4.80874 2.11027 5.34493 2.05666 6.00117C2.0039 6.64688 2.0039 7.45132 2.00391 8.48234V11.5177C2.0039 12.5487 2.0039 13.3531 2.05666 13.9988C2.11027 14.6551 2.22087 15.1913 2.46713 15.6746C2.87459 16.4743 3.52476 17.1244 4.32445 17.5319C4.80777 17.7782 5.34396 17.8888 6.0002 17.9424C6.64592 17.9951 7.45037 17.9951 8.48142 17.9951H11.5166C12.5477 17.9951 13.3521 17.9951 13.9978 17.9424C14.6541 17.8888 15.1903 17.7782 15.6736 17.5319C16.4733 17.1244 17.1235 16.4743 17.5309 15.6746C17.7772 15.1913 17.8878 14.6551 17.9414 13.9988C17.9941 13.3531 17.9941 12.5486 17.9941 11.5176V8.4824C17.9941 7.45135 17.9941 6.64689 17.9414 6.00117C17.8878 5.34493 17.7772 4.80874 17.5309 4.32542C17.1235 3.52573 16.4733 2.87557 15.6736 2.46811C15.1903 2.22184 14.6541 2.11125 13.9978 2.05763C13.3521 2.00488 12.5477 2.00488 11.5167 2.00488ZM10.6008 10.1525L13.6238 6.80127L14.7995 7.86182L10.6008 12.5163L8.79532 10.5149L6.37407 13.1989L5.1984 12.1384L8.79532 8.15105L10.6008 10.1525Z" fill="white"/>
</svg>
