<svg width="20" height="20" viewBox="0 0 20 20" fill="none" xmlns="http://www.w3.org/2000/svg">
<path fill-rule="evenodd" clip-rule="evenodd" d="M4.16602 5.09615C4.16602 3.66234 5.26097 2.5 6.61167 2.5H15.8508C16.301 2.5 16.666 2.88745 16.666 3.36538V13.1731C16.666 13.2057 16.6643 13.238 16.661 13.2697C16.6643 13.3001 16.666 13.331 16.666 13.3624C16.666 13.7856 16.3551 14.1286 15.9716 14.1286H6.38824C5.928 14.1286 5.5549 14.5403 5.5549 15.0481C5.5549 15.5559 5.928 15.9675 6.38824 15.9675H15.9716C16.3551 15.9675 16.666 16.3106 16.666 16.7338C16.666 17.1569 16.3551 17.5 15.9716 17.5H6.38824C5.2459 17.5 4.30488 16.549 4.18007 15.3254L4.16602 15.3365V5.09615ZM9.85982 9.17095C9.81362 9.38672 9.79053 9.60248 9.79053 9.81825H11.121C11.121 9.63518 11.1302 9.49623 11.1487 9.40143C11.1672 9.30662 11.2195 9.18402 11.3057 9.03364C11.3519 8.95845 11.4043 8.88652 11.4628 8.81787C11.5244 8.74595 11.5922 8.67075 11.6661 8.59229C11.7431 8.51056 11.8293 8.41575 11.9248 8.30787C12.1465 8.05614 12.3328 7.78479 12.4837 7.49383C12.6346 7.20287 12.7101 6.87922 12.7101 6.52287C12.7101 6.30056 12.6731 6.07989 12.5992 5.86085C12.5253 5.63854 12.4206 5.44402 12.2851 5.27729C12.0818 5.01248 11.8247 4.82287 11.5136 4.70845C11.2026 4.59075 10.8715 4.53191 10.5204 4.53191C10.3079 4.53191 10.0954 4.5646 9.88292 4.62998C9.67042 4.69537 9.47639 4.79018 9.30085 4.91441C9.06063 5.08114 8.86507 5.30998 8.71417 5.60095C8.56326 5.89191 8.46933 6.21229 8.43237 6.5621H9.76281C9.75973 6.4346 9.77821 6.31854 9.81824 6.21393C9.86136 6.10931 9.92603 6.02268 10.0123 5.95402C10.0831 5.89518 10.1678 5.85268 10.2663 5.82652C10.368 5.80037 10.4711 5.78729 10.5759 5.78729C10.7144 5.78729 10.8438 5.81181 10.9639 5.86085C11.0871 5.90662 11.1856 5.98345 11.2595 6.09133C11.3057 6.15345 11.3365 6.22537 11.3519 6.3071C11.3704 6.38883 11.3797 6.47383 11.3797 6.5621C11.3797 6.7321 11.3581 6.88902 11.315 7.03287C11.2749 7.17345 11.1918 7.31729 11.0655 7.46441C10.9023 7.64748 10.7606 7.7897 10.6405 7.89104C10.5235 7.99239 10.4188 8.0921 10.3264 8.19018C10.2371 8.28498 10.1539 8.41575 10.0769 8.58248C9.98147 8.75902 9.90909 8.95518 9.85982 9.17095ZM9.79976 10.3184V11.7308H11.121V10.3184H9.79976Z" fill="#3F78FF"/>
</svg>
