<svg width="24" height="24" viewBox="0 0 24 24" fill="none" xmlns="http://www.w3.org/2000/svg">
<path d="M2 6C2 3.79086 3.79086 2 6 2H18C20.2091 2 22 3.79086 22 6V18C22 20.2091 20.2091 22 18 22H6C3.79086 22 2 20.2091 2 18V6Z" fill="#275CFD"/>
<path fill-rule="evenodd" clip-rule="evenodd" d="M17.3266 7.99737C17.8111 8.40141 17.8468 9.08923 17.4064 9.53366L11.1373 15.8598C10.8958 16.1035 10.5109 16.13 10.2384 15.9216L7.25874 13.6438C6.73544 13.2437 6.66641 12.4816 7.10931 11.994C7.50215 11.5616 8.1607 11.5019 8.62485 11.8568L10.1526 13.0247C10.3445 13.1714 10.6156 13.1528 10.7856 12.9812L15.652 8.07053C16.0924 7.6261 16.8422 7.59334 17.3266 7.99737Z" fill="white"/>
</svg>
