<svg width="20" height="20" viewBox="0 0 20 20" fill="none" xmlns="http://www.w3.org/2000/svg">
<path d="M10.0014 9.50272C12.1886 9.50272 13.9617 7.72962 13.9617 5.54238C13.9617 3.35514 12.1886 1.58203 10.0014 1.58203C7.81412 1.58203 6.04102 3.35514 6.04102 5.54238C6.04102 7.72962 7.81412 9.50272 10.0014 9.50272Z" fill="#9B9C9C"/>
<path d="M14.4154 17.157C16.6027 17.157 18.3758 15.3839 18.3758 13.1967C18.3758 11.0094 16.6027 9.23633 14.4154 9.23633C12.2282 9.23633 10.4551 11.0094 10.4551 13.1967C10.4551 15.3839 12.2282 17.157 14.4154 17.157Z" fill="#9B9C9C"/>
<path d="M9.54764 13.2846C9.54764 15.4718 7.77456 17.245 5.58732 17.245C3.40006 17.245 1.62695 15.4718 1.62695 13.2846C1.62695 11.0973 3.40006 9.32422 5.58732 9.32422C7.77453 9.32422 9.54764 11.0973 9.54764 13.2846" fill="#9B9C9C"/>
</svg>
