<svg width="16" height="16" viewBox="0 0 16 16" fill="none" xmlns="http://www.w3.org/2000/svg">
<circle cx="7.99935" cy="8.0013" r="6.66667" transform="rotate(180 7.99935 8.0013)" fill="white"/>
<path fill-rule="evenodd" clip-rule="evenodd" d="M8.00065 14.6654C11.6825 14.6654 14.6673 11.6806 14.6673 7.9987C14.6673 4.3168 11.6825 1.33203 8.00065 1.33203C4.31875 1.33203 1.33398 4.3168 1.33398 7.9987C1.33398 11.6806 4.31875 14.6654 8.00065 14.6654ZM7.99946 3.95809C8.54893 3.95809 8.99436 4.40352 8.99436 4.95299V8.36167C8.99436 8.91114 8.54893 9.35657 7.99946 9.35657C7.44999 9.35657 7.00456 8.91114 7.00456 8.36167L7.00456 4.95299C7.00456 4.40352 7.44999 3.95809 7.99946 3.95809ZM8.90317 11.1328C8.90317 11.6349 8.49616 12.0419 7.99408 12.0419C7.492 12.0419 7.08499 11.6349 7.08499 11.1328C7.08499 10.6307 7.492 10.2237 7.99408 10.2237C8.49616 10.2237 8.90317 10.6307 8.90317 11.1328Z" fill="#FF6D47"/>
</svg>
