<svg width="20" height="20" viewBox="0 0 20 20" fill="none" xmlns="http://www.w3.org/2000/svg">
<path d="M15.8327 11.5438C15.8324 14.7652 13.2217 17.3758 10.0003 17.3762C6.77867 17.3762 4.16627 14.7655 4.16602 11.5438C4.16602 9.30863 5.53675 7.12997 6.63247 5.70152C7.21276 4.94506 7.78893 4.3054 8.21947 3.85668C8.43525 3.63179 8.61761 3.45234 8.74714 3.32701L8.76343 3.31124C8.82072 3.25581 8.86719 3.21085 8.90104 3.1791C8.9192 3.16208 8.93429 3.14904 8.94501 3.13913C8.95029 3.13426 8.95567 3.13019 8.959 3.12714L8.965 3.12114L10.0003 2.17773L11.0337 3.11914L11.0357 3.12114L11.0397 3.12714C11.0431 3.13022 11.0483 3.13415 11.0537 3.13913C11.0644 3.14902 11.0794 3.16203 11.0977 3.1791C11.1315 3.21084 11.1779 3.25576 11.2352 3.31117L11.2516 3.32701C11.3811 3.45235 11.5633 3.6316 11.7792 3.85668C12.2098 4.30542 12.7858 4.94489 13.3662 5.70152C14.462 7.12996 15.8327 9.30847 15.8327 11.5438Z" fill="#9B9C9C"/>
</svg>
