<svg width="20" height="20" viewBox="0 0 20 20" fill="none" xmlns="http://www.w3.org/2000/svg">
<circle cx="10" cy="9.99805" r="8.54102" fill="#275CFD"/>
<path d="M9.59004 12.0123C9.68902 12.1169 9.81838 12.1692 9.94773 12.1692C10.0771 12.1692 10.2064 12.1169 10.3054 12.0123L12.0207 10.2002C12.2187 9.9911 12.2187 9.65245 12.0207 9.44451C11.8228 9.23656 11.5022 9.23538 11.3054 9.44451L10.4539 10.344V6.40971C10.4539 6.11384 10.2278 5.875 9.94773 5.875C9.66765 5.875 9.44157 6.11384 9.44157 6.40971V10.3428L8.5901 9.44451C8.39214 9.23538 8.07157 9.23538 7.87473 9.44451C7.67677 9.65364 7.67677 9.99229 7.87473 10.2002L9.59004 12.0123Z" fill="white"/>
<path d="M13.4838 13.1353H6.41156C6.11466 13.1353 5.875 13.3563 5.875 13.6301C5.875 13.904 6.11466 14.125 6.41156 14.125H13.4838C13.7807 14.125 14.0204 13.904 14.0204 13.6301C14.0204 13.3563 13.7807 13.1353 13.4838 13.1353Z" fill="white"/>
</svg>
