<svg width="40" height="40" viewBox="0 0 40 40" fill="none" xmlns="http://www.w3.org/2000/svg">
<circle cx="10.5425" cy="26.9116" r="8.4878" fill="#00EC97"/>
<g clip-path="url(#clip0_8450_2655)">
<path d="M13.3567 22.7213L11.4086 25.6157C11.2738 25.8128 11.5329 26.0514 11.7194 25.8854L13.6365 24.2152C13.6883 24.1737 13.7608 24.2048 13.7608 24.2774V29.4956C13.7608 29.5682 13.6676 29.5993 13.6261 29.5474L7.82314 22.5969C7.63662 22.3686 7.3672 22.2441 7.06668 22.2441H6.85943C6.32059 22.2441 5.875 22.6902 5.875 23.24V30.5848C5.875 31.1346 6.32059 31.5807 6.8698 31.5807C7.21176 31.5807 7.533 31.4044 7.71952 31.1035L9.66766 28.2092C9.80238 28.0121 9.54331 27.7735 9.35679 27.9395L7.43973 29.5993C7.38792 29.6408 7.31538 29.6097 7.31538 29.5371V24.3293C7.31538 24.2567 7.40865 24.2256 7.4501 24.2774L13.2531 31.228C13.4396 31.4562 13.7194 31.5807 14.0095 31.5807H14.2168C14.766 31.5807 15.2116 31.1346 15.2116 30.5848V23.24C15.2116 22.6902 14.766 22.2441 14.2168 22.2441C13.8645 22.2441 13.5432 22.4205 13.3567 22.7213Z" fill="black"/>
</g>
<circle cx="29.4566" cy="26.73" r="8.4878" fill="#202944"/>
<path fill-rule="evenodd" clip-rule="evenodd" d="M29.4554 18.5531C24.9384 18.5531 21.2797 22.2119 21.2797 26.7288C21.2797 31.2458 24.9384 34.9046 29.4554 34.9046C33.9724 34.9046 37.6311 31.2458 37.6311 26.7288C37.6311 22.2119 33.9724 18.5531 29.4554 18.5531ZM20.9688 26.7288C20.9688 22.0402 24.7667 18.2422 29.4554 18.2422C34.1441 18.2422 37.942 22.0402 37.942 26.7288C37.942 31.4175 34.1441 35.2155 29.4554 35.2155C24.7667 35.2155 20.9688 31.4175 20.9688 26.7288Z" fill="url(#paint0_linear_8450_2655)"/>
<path d="M28.6964 22.168H27.6032V23.3087H28.6964V22.168Z" fill="#F8F8F8"/>
<path d="M25.9871 22.168H24.8464V23.3087H25.9871V22.168Z" fill="#F8F8F8"/>
<path d="M25.9396 26.0656V24.9248H24.7988V26.0656H25.9396Z" fill="#F8F8F8"/>
<path d="M25.1791 31.199H25.6069V30.7712H25.1791V31.199Z" fill="#F8F8F8"/>
<path d="M24.8464 28.9175H25.9871V27.8242H24.8464V28.9175Z" fill="#F8F8F8"/>
<path d="M27.9835 31.199H28.4112V30.7712H27.9835V31.199Z" fill="#F8F8F8"/>
<path d="M27.9835 28.5372H28.4112V28.1094H27.9835V28.5372Z" fill="#F8F8F8"/>
<path d="M27.6032 26.1131H28.744V24.9723H27.6032V26.1131Z" fill="#F8F8F8"/>
<path d="M30.7403 31.199H31.1681V30.7712H30.7403V31.199Z" fill="#F8F8F8"/>
<path d="M30.7403 28.5372H31.1681V28.1094H30.7403V28.5372Z" fill="#F8F8F8"/>
<path d="M30.7403 25.7328H31.1681V25.3051H30.7403V25.7328Z" fill="#F8F8F8"/>
<path d="M30.4076 23.3087H31.5483V22.168H30.4076V23.3087Z" fill="#F8F8F8"/>
<path d="M33.5447 31.199H33.9724V30.7712H33.5447V31.199Z" fill="#F8F8F8"/>
<path d="M33.5447 28.5372H33.9724V28.1094H33.5447V28.5372Z" fill="#F8F8F8"/>
<path d="M33.5447 25.7328H33.9724V25.3051H33.5447V25.7328Z" fill="#F8F8F8"/>
<path d="M33.5447 22.976H33.9724V22.5482H33.5447V22.976Z" fill="#F8F8F8"/>
<g clip-path="url(#clip1_8450_2655)">
<path fill-rule="evenodd" clip-rule="evenodd" d="M20.0015 2.05469C24.6867 2.05469 28.4893 5.85722 28.4893 10.5425C28.4893 15.2278 24.6867 19.0303 20.0015 19.0303C15.3162 19.0303 11.5137 15.2278 11.5137 10.5425C11.5137 5.85722 15.3162 2.05469 20.0015 2.05469Z" fill="#CF1011"/>
<path fill-rule="evenodd" clip-rule="evenodd" d="M20.0021 8.53125C21.1089 8.53125 22.012 9.42756 22.012 10.5412C22.012 11.648 21.1157 12.5511 20.0021 12.5511C18.8953 12.5511 17.9922 11.6548 17.9922 10.5412C17.9922 9.43435 18.8885 8.53125 20.0021 8.53125Z" fill="white"/>
<path fill-rule="evenodd" clip-rule="evenodd" d="M20.0492 5.28609C20.6807 5.29288 21.3054 5.4151 21.8894 5.63918C22.4734 5.86326 23.0166 6.18919 23.4919 6.61018L23.5055 6.62377C24.5851 7.58798 25.1759 8.89171 25.2506 10.2294C25.3321 11.5739 24.8975 12.9455 23.9401 14.0319L23.9265 14.0455C22.9623 15.1252 21.6585 15.7159 20.3209 15.7906C18.9764 15.8721 17.6048 15.4375 16.5183 14.4801C15.4319 13.5159 14.8343 12.2053 14.7596 10.8609C14.6782 9.51641 15.1127 8.14478 16.0702 7.05834L16.5251 7.45897C15.6763 8.41639 15.2961 9.63184 15.364 10.8201C15.4387 12.0084 15.9615 13.1696 16.9189 14.0183C17.8764 14.8671 19.0918 15.2474 20.2801 15.1795C21.4684 15.1048 22.6295 14.5819 23.4783 13.6245L23.4919 13.6109C24.3339 12.6535 24.7141 11.4448 24.6395 10.2633C24.5648 9.07504 24.0419 7.91391 23.0845 7.06513L23.0709 7.05155C22.6567 6.68488 22.1814 6.39969 21.6721 6.20277C21.1561 6.00585 20.606 5.89721 20.0492 5.89042L20.056 5.2793L20.0492 5.28609Z" fill="white"/>
<path d="M17.0146 5.32031C17.3812 5.32031 17.7072 5.4697 17.9448 5.70736C18.1825 5.94501 18.3319 6.27774 18.3319 6.63762C18.3319 7.00429 18.1825 7.33022 17.9448 7.56788C17.7072 7.80554 17.3745 7.95493 17.0146 7.95493C16.6479 7.95493 16.322 7.80554 16.0843 7.56788C15.8467 7.33022 15.6973 6.9975 15.6973 6.63762C15.6973 6.27095 15.8467 5.94501 16.0843 5.70736C16.322 5.4697 16.6547 5.32031 17.0146 5.32031ZM17.5171 6.14193C17.388 6.01292 17.2115 5.93143 17.0146 5.93143C16.8177 5.93143 16.6411 6.01292 16.5121 6.14193C16.3831 6.27095 16.3016 6.44749 16.3016 6.64441C16.3016 6.84133 16.3831 7.01787 16.5121 7.14689C16.6411 7.2759 16.8177 7.35739 17.0146 7.35739C17.2115 7.35739 17.388 7.2759 17.5171 7.14689C17.6461 7.01787 17.7275 6.84133 17.7275 6.64441C17.7275 6.44749 17.6461 6.27095 17.5171 6.14193Z" fill="white"/>
</g>
<defs>
<linearGradient id="paint0_linear_8450_2655" x1="29.4553" y1="18.0809" x2="29.4553" y2="35.3766" gradientUnits="userSpaceOnUse">
<stop stop-color="#8994B7"/>
<stop offset="1" stop-color="#4F5159"/>
</linearGradient>
<clipPath id="clip0_8450_2655">
<rect width="9.33659" height="9.33659" fill="white" transform="translate(5.875 22.2441)"/>
</clipPath>
<clipPath id="clip1_8450_2655">
<rect width="16.9756" height="16.9756" fill="white" transform="translate(11.5137 2.05469)"/>
</clipPath>
</defs>
</svg>
