<svg width="32" height="32" viewBox="0 0 32 32" fill="none" xmlns="http://www.w3.org/2000/svg">
<path fill-rule="evenodd" clip-rule="evenodd" d="M15.9993 2.66602C8.63579 2.66602 2.66602 8.63579 2.66602 15.9993C2.66602 23.3629 8.63579 29.3327 15.9993 29.3327C23.3629 29.3327 29.3327 23.3629 29.3327 15.9993C29.3327 8.63579 23.3629 2.66602 15.9993 2.66602Z" fill="#01D183"/>
<path d="M19.4083 16.0075C18.7477 15.3 17.8466 14.9118 16.8706 14.9118H15.1277C14.3102 14.9118 13.6462 14.2279 13.6462 13.388C13.6462 12.9653 13.7961 12.5843 14.0749 12.3104C14.359 12.0147 14.7076 11.8642 15.1102 11.8642H16.8706C17.4771 11.8642 18.0418 12.2741 18.2475 12.8673C18.4514 13.4315 19.0388 13.7181 19.5983 13.515C20.1264 13.2991 20.4052 12.6732 20.2187 12.1163C19.729 10.7195 18.4671 9.76348 17.0449 9.69092V8.19976C17.0449 7.59931 16.576 7.11133 15.9991 7.11133C15.4222 7.11133 14.9534 7.59931 14.9534 8.19976V9.67278C14.061 9.71632 13.2349 10.0936 12.6074 10.7467C11.919 11.4633 11.5547 12.3775 11.5547 13.388C11.5547 15.4379 13.1582 17.1068 15.1277 17.1068H16.888C17.2941 17.1068 17.6601 17.2628 17.9233 17.5531C18.2004 17.8415 18.3521 18.2243 18.3521 18.6306C18.3521 19.485 17.7089 20.1544 16.888 20.1544H15.1277C14.4985 20.1544 13.9582 19.7698 13.7508 19.1657C13.5399 18.6034 12.9333 18.3222 12.4017 18.5399C11.8614 18.7594 11.5913 19.3907 11.7987 19.9385C12.2885 21.3354 13.5155 22.2569 14.9551 22.3258V23.8007C14.9551 24.4011 15.424 24.8891 16.0009 24.8891C16.5778 24.8891 17.0466 24.4011 17.0466 23.8007V22.3277C18.9342 22.2315 20.4436 20.6025 20.4436 18.6125C20.4436 17.6093 20.0758 16.6841 19.4083 16.0075Z" fill="white"/>
</svg>
