<svg width="20" height="20" viewBox="0 0 20 20" fill="none" xmlns="http://www.w3.org/2000/svg">
<circle cx="10.0007" cy="9.9987" r="8.33333" transform="rotate(180 10.0007 9.9987)" fill="white"/>
<path d="M10.001 18.332C5.3986 18.332 1.66797 14.6014 1.66797 9.99902C1.66797 5.39665 5.3986 1.66602 10.001 1.66602C14.6033 1.66602 18.334 5.39665 18.334 9.99902C18.334 14.6014 14.6033 18.332 10.001 18.332ZM6.01953 13.9805C6.26602 14.227 6.66366 14.227 6.91016 13.9805L10.001 10.8906L13.0918 13.9805C13.3383 14.227 13.7359 14.227 13.9824 13.9805C14.2289 13.734 14.2289 13.3363 13.9824 13.0898L10.8926 9.99902L13.9824 6.9082C14.2226 6.66803 14.2226 6.26361 13.9824 6.02344C13.736 5.77723 13.3382 5.77717 13.0918 6.02344L10.001 9.10742L6.91016 6.01758C6.66366 5.77109 6.26602 5.77109 6.01953 6.01758C5.77304 6.26407 5.77304 6.66171 6.01953 6.9082L9.10937 9.99902L6.01953 13.0898C5.77304 13.3363 5.77304 13.734 6.01953 13.9805Z" fill="#EB5347"/>
</svg>
