<svg width="30" height="30" viewBox="0 0 30 30" fill="none" xmlns="http://www.w3.org/2000/svg">
<path d="M27.4901 15.0156C27.4901 21.9191 21.8937 27.5155 14.9902 27.5155C8.08665 27.5155 2.49023 21.9191 2.49023 15.0156C2.49023 8.11204 8.08665 2.51562 14.9902 2.51562C21.8937 2.51562 27.4901 8.11204 27.4901 15.0156Z" fill="#9391F7"/>
<path d="M12.9133 15.6286C13.9895 15.458 14.7113 14.4474 14.5407 13.3712C14.3701 12.2949 13.3595 11.5731 12.2833 11.7437C11.2071 11.9143 10.4852 12.9249 10.6558 14.0012C10.8396 15.0774 11.8502 15.7992 12.9133 15.6286ZM18.0581 15.6286C19.1344 15.458 19.8562 14.4474 19.6856 13.3712C19.515 12.2949 18.5044 11.5731 17.4282 11.7437C16.3519 11.9143 15.6301 12.9249 15.8007 14.0012C15.9713 15.0774 16.9819 15.7992 18.0581 15.6286Z" fill="white"/>
<path d="M15.167 5.57617C9.82529 5.57617 5.49414 9.98607 5.49414 15.4197H7.96158C7.96158 11.3379 11.164 8.04361 15.1539 8.04361C19.1569 8.04361 22.3462 11.351 22.3462 15.4197H24.8137C24.8399 9.98607 20.5088 5.57617 15.167 5.57617Z" fill="white"/>
</svg>
