<svg xmlns="http://www.w3.org/2000/svg" width="20" height="20" viewBox="0 0 20 20" fill="none" aria-hidden="true">
  <path fill="#9B9C9C" d="M7.38156 3.19881L4.85391 6.20067C4.71765 6.3625 4.51727 6.45675 4.30574 6.45844C4.09412 6.46001 3.89196 6.36918 3.75323 6.20937L2.38281 4.63013L3.47697 3.68172L4.2916 4.62034L6.27435 2.26562L7.38156 3.19881Z"/>
  <path fill="#9B9C9C" d="M7.38156 8.96053L4.85391 11.9624C4.71765 12.1242 4.51727 12.2185 4.30574 12.2202C4.09412 12.2217 3.89196 12.1309 3.75323 11.9711L2.38281 10.3919L3.47697 9.44344L4.2916 10.3821L6.27435 8.02734L7.38156 8.96053Z"/>
  <path fill="#9B9C9C" d="M7.38156 14.7242L4.85391 17.7261C4.71765 17.8879 4.51727 17.9821 4.30574 17.9838C4.09412 17.9854 3.89196 17.8946 3.75323 17.7348L2.38281 16.1555L3.47697 15.2071L4.2916 16.1457L6.27435 13.791L7.38156 14.7242Z"/>
  <path fill="#9B9C9C" d="M17.6177 3.92773V5.37646H9.36914V3.92773H17.6177Z"/>
  <path fill="#9B9C9C" d="M17.6177 9.69141V11.1401H9.36914V9.69141H17.6177Z"/>
  <path fill="#9B9C9C" d="M17.6177 15.4531V16.9018H9.36914V15.4531H17.6177Z"/>
</svg>
