<svg width="48" height="48" viewBox="0 0 48 48" fill="none" xmlns="http://www.w3.org/2000/svg">
<rect x="4" y="3.75" width="40" height="40" rx="20" fill="#044430"/>
<path d="M16.473 14.0312H14.15C12.6347 14.0312 11.4062 15.2597 11.4062 16.775V28.436C11.4062 29.9514 12.6347 31.1798 14.15 31.1798H16.473V14.0312Z" fill="#00793A"/>
<rect x="15.2812" y="29.9219" width="6.0094" height="3.54202" fill="#00793A"/>
<rect x="27.3711" y="29.9219" width="6.0094" height="3.54202" fill="#00793A"/>
<path d="M16.4727 14.0312H33.8498C35.3652 14.0312 36.5936 15.2597 36.5936 16.775V28.436C36.5936 29.9514 35.3652 31.1798 33.8498 31.1798H16.4727V14.0312Z" fill="#56C488"/>
<rect x="14.6953" y="25.3125" width="3.55503" height="2.81761" fill="white"/>
<rect x="14.6953" y="17.7812" width="3.55503" height="2.81761" fill="white"/>
<circle cx="26.5334" cy="22.6076" r="4.82633" fill="white"/>
<circle cx="26.5355" cy="22.6058" r="2.70737" fill="#00793A"/>
</svg>
