<svg width="20" height="20" viewBox="0 0 20 20" fill="none" xmlns="http://www.w3.org/2000/svg">
<path fill-rule="evenodd" clip-rule="evenodd" d="M2.21535 13.2058C2.2153 13.9445 2.21527 14.5811 2.2838 15.0908C2.35724 15.637 2.52286 16.1607 2.94758 16.5854C3.37229 17.0101 3.89592 17.1757 4.44218 17.2492C4.95189 17.3177 5.5884 17.3176 6.32714 17.3176L17.3236 17.3176V7.48707H2.2838L2.21535 13.2058ZM14.4142 13.4769C15.0163 13.4769 15.5043 12.9888 15.5043 12.3868C15.5043 11.7847 15.0163 11.2967 14.4142 11.2967C13.8122 11.2967 13.3241 11.7847 13.3241 12.3868C13.3241 12.9888 13.8122 13.4769 14.4142 13.4769Z" fill="white"/>
<path fill-rule="evenodd" clip-rule="evenodd" d="M12.9004 8.1254C12.8607 8.12538 12.8203 8.12536 12.7794 8.12536L12.7793 6.62536C13.703 6.62533 13.9992 6.61724 14.22 6.55053C14.7818 6.38078 15.2211 5.94072 15.3899 5.37863C15.4557 5.15938 15.4636 4.86596 15.4622 3.95851L4.54231 3.95859C3.80594 3.95859 3.20898 4.55555 3.20898 5.29193C3.20898 6.02831 3.80594 6.62527 4.54233 6.62527H10.3756V8.12527H4.54233C2.97751 8.12527 1.70898 6.85674 1.70898 5.29193C1.70898 3.72713 2.9775 2.4586 4.5423 2.45859L16.9597 2.4585L16.9622 3.93531C16.9623 3.97627 16.9624 4.01662 16.9624 4.05638C16.9641 4.80762 16.9653 5.34778 16.8265 5.81003C16.513 6.8539 15.6972 7.67115 14.6538 7.98641C14.1918 8.12601 13.6517 8.12576 12.9004 8.1254Z" fill="white"/>
<path fill-rule="evenodd" clip-rule="evenodd" d="M1.71108 5.38892C1.71109 5.3688 1.7111 5.34844 1.7111 5.32784H3.2111C3.2111 5.71494 3.21415 5.80843 3.22586 5.87291C3.29411 6.24868 3.58819 6.54276 3.96396 6.61101C4.02845 6.62273 4.12193 6.62577 4.50904 6.62577H18.2111V18.0216L5.74402 18.0216C5.00141 18.0216 4.36979 18.0217 3.86572 17.9539C3.32869 17.8817 2.82558 17.7204 2.41893 17.3138C2.01228 16.9071 1.85101 16.404 1.77881 15.867C1.71104 15.3629 1.71107 14.7313 1.7111 13.9887L1.7111 5.50476C1.71103 5.46704 1.71106 5.42844 1.71108 5.38892ZM3.2111 7.94531V13.9383C3.2111 14.7451 3.2127 15.2749 3.26544 15.6671C3.31527 16.0378 3.39809 16.1716 3.47959 16.2531C3.56109 16.3346 3.6949 16.4174 4.06559 16.4673C4.45785 16.52 4.98756 16.5216 5.79444 16.5216H16.7111V8.12577H4.50904C4.48843 8.12577 4.46808 8.12578 4.44796 8.12579C4.15431 8.12597 3.91204 8.12612 3.69591 8.08687C3.52746 8.05627 3.36523 8.00846 3.2111 7.94531Z" fill="white"/>
</svg>
