<svg width="24" height="24" viewBox="0 0 24 24" fill="none" xmlns="http://www.w3.org/2000/svg">
<path d="M22 12C22 17.5228 17.5228 22 12 22C6.47715 22 2 17.5228 2 12C2 6.47715 6.47715 2 12 2C17.5228 2 22 6.47715 22 12Z" fill="#275CFD"/>
<path fill-rule="evenodd" clip-rule="evenodd" d="M16.8306 8.28284C17.315 8.68687 17.3507 9.37469 16.9103 9.81912L10.6412 16.1453C10.3997 16.389 10.0148 16.4154 9.74226 16.207L6.76265 13.9292C6.23935 13.5292 6.17032 12.7671 6.61322 12.2795C7.00606 11.847 7.6646 11.7874 8.12875 12.1422L9.65652 13.3102C9.84845 13.4569 10.1195 13.4383 10.2895 13.2667L15.1559 8.35599C15.5963 7.91156 16.3461 7.8788 16.8306 8.28284Z" fill="white"/>
</svg>
