<svg width="20" height="20" viewBox="0 0 20 20" fill="none" xmlns="http://www.w3.org/2000/svg">
<path d="M13.3139 2.5C15.2228 2.5 16.772 4.06559 16.772 6.08476H15.4579C15.4579 4.83375 14.4965 3.89001 13.3139 3.89001C12.1312 3.89001 11.1698 4.83375 11.1698 6.08476V9.02172H9.8557V6.08476C9.8557 4.06559 11.405 2.5 13.3139 2.5Z" fill="white"/>
<path fill-rule="evenodd" clip-rule="evenodd" d="M13.1154 7.71742H4.73133C3.96279 7.71742 3.33398 8.3463 3.33398 9.11493V16.1025C3.33398 16.8711 3.96279 17.5 4.73133 17.5H13.1154C13.884 17.5 14.5128 16.8711 14.5128 16.1025V9.11493C14.5128 8.3463 13.884 7.71742 13.1154 7.71742ZM7.52603 12.6087C7.52603 13.3773 8.15484 14.0062 8.92338 14.0062C9.69192 14.0062 10.3207 13.3773 10.3207 12.6087C10.3207 11.8401 9.69192 11.2112 8.92338 11.2112C8.15484 11.2112 7.52603 11.8401 7.52603 12.6087Z" fill="white"/>
</svg>
