<svg width="20" height="20" viewBox="0 0 20 20" fill="none" xmlns="http://www.w3.org/2000/svg">
<path d="M11.0164 2.50077C9.18129 2.50419 7.41097 3.17928 6.03957 4.39861C4.66817 5.61794 3.79059 7.29717 3.57251 9.11924H2.33752C2.20468 9.11919 2.07481 9.15855 1.96435 9.23235C1.85389 9.30616 1.76781 9.41106 1.71701 9.53381C1.66622 9.65656 1.653 9.79167 1.67901 9.92194C1.70503 10.0522 1.76909 10.1718 1.86314 10.2657L3.71323 12.1157C3.83909 12.2415 4.00972 12.3121 4.18762 12.3121C4.36551 12.3121 4.53614 12.2415 4.662 12.1157L6.5121 10.2657C6.60614 10.1718 6.67023 10.0522 6.69624 9.92194C6.72226 9.79167 6.70901 9.65656 6.65822 9.53381C6.60742 9.41106 6.52136 9.30616 6.4109 9.23235C6.30044 9.15855 6.17056 9.11919 6.03771 9.11924H4.93082C5.13164 7.7499 5.7887 6.48838 6.7956 5.53887C7.80251 4.58937 9.10036 4.00743 10.4791 3.88724C11.8579 3.76705 13.2369 4.11564 14.3929 4.8766C15.5489 5.63755 16.4143 6.76633 16.849 8.08027C17.2838 9.39421 17.2624 10.8164 16.7884 12.1167C16.3144 13.4169 15.4154 14.5192 14.2371 15.2451C13.0587 15.971 11.6699 16.278 10.2954 16.1164C8.92083 15.9549 7.64104 15.3342 6.66312 14.3549C6.60161 14.2891 6.52751 14.2364 6.44521 14.1999C6.36292 14.1633 6.27412 14.1437 6.18409 14.1422C6.09407 14.1407 6.00468 14.1574 5.92122 14.1911C5.83775 14.2249 5.76193 14.2751 5.69827 14.3387C5.63461 14.4024 5.58439 14.4782 5.55063 14.5617C5.51687 14.6451 5.50024 14.7346 5.50174 14.8246C5.50325 14.9146 5.52284 15.0034 5.55936 15.0857C5.59589 15.168 5.64859 15.2421 5.71434 15.3036C6.58649 16.1756 7.66024 16.8192 8.84049 17.1772C10.0207 17.5351 11.2711 17.5965 12.4807 17.3558C13.6903 17.1152 14.8219 16.58 15.7753 15.7975C16.7287 15.0151 17.4744 14.0096 17.9464 12.8702C18.4184 11.7307 18.6021 10.4925 18.4812 9.26507C18.3604 8.03767 17.9387 6.85905 17.2536 5.83353C16.5684 4.80801 15.6409 3.96726 14.5532 3.3858C13.4656 2.80434 12.2513 2.5001 11.018 2.5L11.0164 2.50077Z" fill="#9B9C9C"/>
</svg>
