<svg width="20" height="20" viewBox="0 0 20 20" fill="none" xmlns="http://www.w3.org/2000/svg">
<path d="M15.5758 4.43563C15.2307 4.09055 14.6733 4.09055 14.3282 4.43563L10.0013 8.75367L5.67442 4.42679C5.32933 4.0817 4.77187 4.0817 4.42679 4.42679C4.0817 4.77187 4.0817 5.32933 4.42679 5.67442L8.75367 10.0013L4.42679 14.3282C4.0817 14.6733 4.0817 15.2307 4.42679 15.5758C4.77187 15.9209 5.32933 15.9209 5.67442 15.5758L10.0013 11.2489L14.3282 15.5758C14.6733 15.9209 15.2307 15.9209 15.5758 15.5758C15.9209 15.2307 15.9209 14.6733 15.5758 14.3282L11.2489 10.0013L15.5758 5.67442C15.9121 5.33818 15.9121 4.77187 15.5758 4.43563V4.43563Z" fill="white"/>
</svg>
