<svg width="20" height="20" viewBox="0 0 20 20" fill="none" xmlns="http://www.w3.org/2000/svg">
<circle cx="10" cy="9.99805" r="8.54102" fill="#275CFD"/>
<path d="M10.3054 6.03185C10.2064 5.92728 10.077 5.875 9.9477 5.875C9.81835 5.875 9.689 5.92728 9.59001 6.03185L7.8747 7.84393C7.67674 8.05306 7.67674 8.39172 7.8747 8.59966C8.07266 8.8076 8.39323 8.80879 8.59007 8.59966L9.44154 7.70015L9.44154 11.6345C9.44154 11.9303 9.66762 12.1692 9.9477 12.1692C10.2278 12.1692 10.4539 11.9303 10.4539 11.6345L10.4539 7.70134L11.3053 8.59966C11.5033 8.80879 11.8239 8.80879 12.0207 8.59966C12.2187 8.39053 12.2187 8.05188 12.0207 7.84393L10.3054 6.03185Z" fill="white"/>
<path d="M13.4838 13.1353H6.41156C6.11466 13.1353 5.875 13.3563 5.875 13.6301C5.875 13.904 6.11466 14.125 6.41156 14.125H13.4838C13.7807 14.125 14.0204 13.904 14.0204 13.6301C14.0204 13.3563 13.7807 13.1353 13.4838 13.1353Z" fill="white"/>
</svg>
