<svg width="16" height="16" viewBox="0 0 16 16" fill="none" xmlns="http://www.w3.org/2000/svg">
<path fill-rule="evenodd" clip-rule="evenodd" d="M11.1292 5.30078C11.2458 5.30109 11.3575 5.34791 11.4395 5.43086L11.7431 5.73818C11.9123 5.90934 11.9116 6.18491 11.7416 6.35521L7.25805 10.9652C7.17592 11.0474 7.06442 11.0937 6.94816 11.0937C6.8319 11.0936 6.72042 11.0474 6.6383 10.9651L4.25874 8.58024C4.08839 8.40951 4.08821 8.13315 4.25834 7.96219L4.56202 7.65704C4.64408 7.57459 4.75557 7.52818 4.8719 7.52806C4.98823 7.52795 5.09982 7.57413 5.18204 7.65641L6.9481 9.42388L10.8182 5.42925C10.9006 5.34672 11.0126 5.30048 11.1292 5.30078Z" fill="#5AC47D"/>
</svg>
