<svg width="30" height="30" viewBox="0 0 30 30" fill="none" xmlns="http://www.w3.org/2000/svg">
<g clip-path="url(#clip0_8455_8671)">
<path d="M15 27.5C21.9036 27.5 27.5 21.9036 27.5 15C27.5 8.09644 21.9036 2.5 15 2.5C8.09644 2.5 2.5 8.09644 2.5 15C2.5 21.9036 8.09644 27.5 15 27.5Z" fill="#8247E5"/>
<path d="M19.1375 12.3256C18.8377 12.1512 18.4479 12.1512 18.1181 12.3256L15.7795 13.6628L14.1905 14.5349L11.852 15.8721C11.5521 16.0465 11.1624 16.0465 10.8326 15.8721L8.97371 14.8256C8.6739 14.6512 8.46404 14.3314 8.46404 13.9825V11.9186C8.46404 11.5698 8.64392 11.25 8.97371 11.0756L10.8026 10.0581C11.1024 9.88371 11.4922 9.88371 11.822 10.0581L13.6508 11.0756C13.9507 11.25 14.1605 11.5698 14.1605 11.9186V13.2558L15.7496 12.3546V11.0174C15.7496 10.6686 15.5697 10.3488 15.2399 10.1744L11.852 8.25581C11.5521 8.0814 11.1624 8.0814 10.8326 8.25581L7.38469 10.1744C7.05488 10.3488 6.875 10.6686 6.875 11.0174V14.8837C6.875 15.2325 7.05488 15.5523 7.38469 15.7267L10.8326 17.6453C11.1324 17.8198 11.5222 17.8198 11.852 17.6453L14.1905 16.3372L15.7795 15.436L18.1181 14.1279C18.4179 13.9535 18.8077 13.9535 19.1375 14.1279L20.9664 15.1453C21.2662 15.3198 21.4761 15.6395 21.4761 15.9884V18.0523C21.4761 18.4011 21.2961 18.7209 20.9664 18.8953L19.1375 19.9418C18.8377 20.1163 18.4479 20.1163 18.1181 19.9418L16.2892 18.9244C15.9894 18.75 15.7795 18.4302 15.7795 18.0814V16.7442L14.1905 17.6453V18.9825C14.1905 19.3314 14.3704 19.6511 14.7002 19.8256L18.1481 21.7442C18.4479 21.9186 18.8377 21.9186 19.1675 21.7442L22.6153 19.8256C22.9152 19.6511 23.125 19.3314 23.125 18.9825V15.1163C23.125 14.7674 22.9452 14.4477 22.6153 14.2732L19.1375 12.3256Z" fill="white"/>
</g>
<defs>
<clipPath id="clip0_8455_8671">
<rect width="25" height="25" fill="white" transform="translate(2.5 2.5)"/>
</clipPath>
</defs>
</svg>
