<svg width="24" height="24" viewBox="0 0 24 24" fill="none" xmlns="http://www.w3.org/2000/svg">
<mask id="mask0_8442_2416" style="mask-type:alpha" maskUnits="userSpaceOnUse" x="2" y="2" width="20" height="20">
<path fill-rule="evenodd" clip-rule="evenodd" d="M12 2C6.47733 2 2 6.47733 2 12C2 17.5227 6.47733 22 12 22C17.5227 22 22 17.5227 22 12C22 6.47733 17.5227 2 12 2Z" fill="#FE264D"/>
</mask>
<g mask="url(#mask0_8442_2416)">
<path fill-rule="evenodd" clip-rule="evenodd" d="M12 -2C5.3728 -2 0 3.3728 0 10C0 16.6272 5.3728 22 12 22C18.6272 22 24 16.6272 24 10C24 3.3728 18.6272 -2 12 -2Z" fill="url(#paint0_linear_8442_2416)"/>
</g>
<path d="M4.80078 14.9996L4.80078 9.59961H5.64878L8.48478 13.6121V9.59961H9.33278V14.9996H8.48478L5.64878 10.9834L5.64878 14.9996H4.80078Z" fill="white"/>
<path d="M11.8852 14.9996V10.3384L9.96922 10.3384V9.59961L14.6372 9.59961V10.3384H12.7212V14.9996H11.8852Z" fill="white"/>
<path d="M17.03 15.6996V14.7872H17.866V15.6996H17.03ZM17.03 9.51575V8.59961H17.866V9.51575H17.03ZM17.49 15.0375C17.09 15.0375 16.7327 14.9682 16.418 14.8296C16.1033 14.6909 15.8447 14.4946 15.642 14.2404C15.442 13.9837 15.3113 13.6808 15.25 13.3317L16.078 13.2046C16.158 13.5332 16.3287 13.795 16.59 13.9901C16.8513 14.1827 17.1647 14.2789 17.53 14.2789C17.8927 14.2789 18.1873 14.1955 18.414 14.0286C18.6433 13.8618 18.758 13.6487 18.758 13.3894C18.758 13.2046 18.6993 13.0544 18.582 12.9389C18.4673 12.8234 18.2793 12.7259 18.018 12.6463L16.666 12.2458C15.866 12.0071 15.466 11.545 15.466 10.8596C15.466 10.5362 15.546 10.2551 15.706 10.0163C15.8687 9.77759 16.0967 9.59276 16.39 9.46184C16.6833 9.33092 17.026 9.26546 17.418 9.26546C17.794 9.2706 18.1273 9.33734 18.418 9.46569C18.7113 9.59405 18.954 9.77888 19.146 10.0202C19.3407 10.2615 19.4753 10.5516 19.55 10.8904L18.698 11.0367C18.6607 10.8391 18.582 10.6645 18.462 10.5131C18.3447 10.3616 18.1953 10.2435 18.014 10.1588C17.8353 10.0741 17.634 10.0304 17.41 10.0279C17.1993 10.0227 17.01 10.0548 16.842 10.1241C16.6767 10.1909 16.5447 10.2859 16.446 10.4091C16.35 10.5297 16.302 10.6671 16.302 10.8211C16.302 10.9905 16.37 11.1343 16.506 11.2524C16.642 11.3704 16.8567 11.4718 17.15 11.5566L18.21 11.8531C18.6953 11.9917 19.046 12.1778 19.262 12.4114C19.478 12.645 19.586 12.9556 19.586 13.3432C19.586 13.6821 19.498 13.9786 19.322 14.2327C19.1487 14.4843 18.9047 14.682 18.59 14.8257C18.2753 14.9669 17.9087 15.0375 17.49 15.0375Z" fill="white"/>
<defs>
<linearGradient id="paint0_linear_8442_2416" x1="7" y1="3.5" x2="17" y2="20.5" gradientUnits="userSpaceOnUse">
<stop stop-color="#1F4C99"/>
<stop offset="1" stop-color="#5DAAF1"/>
</linearGradient>
</defs>
</svg>
