<svg width="30" height="30" viewBox="0 0 30 30" fill="none" xmlns="http://www.w3.org/2000/svg">
<circle cx="15" cy="15" r="12.5" fill="#00EC97"/>
<g clip-path="url(#clip0_8455_8520)">
<path d="M19.1433 8.82778L16.2743 13.0903C16.0759 13.3806 16.4574 13.7319 16.7321 13.4875L19.5554 11.0278C19.6317 10.9667 19.7385 11.0125 19.7385 11.1194V18.8042C19.7385 18.9111 19.6011 18.9569 19.5401 18.8806L10.994 8.64444C10.7193 8.30833 10.3226 8.125 9.87999 8.125H9.57478C8.78122 8.125 8.125 8.78194 8.125 9.59167V20.4083C8.125 21.2181 8.78122 21.875 9.59004 21.875C10.0936 21.875 10.5667 21.6153 10.8414 21.1722L13.7105 16.9097C13.9089 16.6194 13.5273 16.2681 13.2526 16.5125L10.4294 18.9569C10.3531 19.0181 10.2463 18.9722 10.2463 18.8653V11.1958C10.2463 11.0889 10.3836 11.0431 10.4446 11.1194L18.9907 21.3556C19.2654 21.6917 19.6774 21.875 20.1047 21.875H20.41C21.2188 21.875 21.875 21.2181 21.875 20.4083V9.59167C21.875 8.78194 21.2188 8.125 20.41 8.125C19.8911 8.125 19.418 8.38472 19.1433 8.82778Z" fill="black"/>
</g>
<defs>
<clipPath id="clip0_8455_8520">
<rect width="13.75" height="13.75" fill="white" transform="translate(8.125 8.125)"/>
</clipPath>
</defs>
</svg>
