<svg xmlns="http://www.w3.org/2000/svg" width="20" height="20" viewBox="0 0 20 20" fill="none" aria-hidden="true">
  <path fill="#9B9C9C" d="M5.90625 1.86719V18.1328H4.40625V1.86719H5.90625Z"/>
  <path fill="#9B9C9C" d="M12.959 13.4219C14.3821 13.4219 15.6829 12.7988 16.5791 11.8096L16.7734 11.5947V3.45508C16.7734 3.14506 16.5832 2.86651 16.2939 2.75488C16.0046 2.64333 15.676 2.72141 15.4678 2.95117C14.8427 3.64117 13.9394 4.07129 12.959 4.07129C12.1821 4.07122 11.6696 3.7933 10.9883 3.41797C10.302 3.03995 9.46584 2.57812 8.2207 2.57812C6.79804 2.57818 5.49677 3.20113 4.60059 4.19043C4.47564 4.32836 4.40625 4.50822 4.40625 4.69434V12.5449C4.40624 12.855 4.59738 13.1335 4.88672 13.2451C5.17587 13.3564 5.5038 13.2784 5.71191 13.0488C6.33693 12.3589 7.24069 11.9287 8.2207 11.9287C9.05266 11.9287 9.59602 12.2137 10.2646 12.582C10.938 12.9529 11.7559 13.4218 12.959 13.4219ZM12.959 11.9219C12.182 11.9218 11.6697 11.6439 10.9883 11.2686C10.302 10.8905 9.46584 10.4287 8.2207 10.4287C7.38852 10.4287 6.59858 10.6436 5.90625 11.0186V5.00195C6.51732 4.42798 7.33749 4.07817 8.2207 4.07812C9.05266 4.07812 9.59602 4.36312 10.2646 4.73145C10.9379 5.10232 11.7561 5.57121 12.959 5.57129C13.7911 5.57129 14.5814 5.35709 15.2734 4.98242V10.999C14.6624 11.5727 13.8423 11.9219 12.959 11.9219Z"/>
</svg>
