<svg width="21" height="20" viewBox="0 0 21 20" fill="none" xmlns="http://www.w3.org/2000/svg">
<path d="M15.102 2.80025C18.5791 5.26621 19.7217 9.78423 18.071 13.5369L17.4988 13.2857L16.9271 13.0339C18.3446 9.81192 17.3608 5.93463 14.3789 3.81986C12.8002 2.70032 10.9412 2.27941 9.15387 2.48078L9.01364 1.23798C11.0905 1.00396 13.2601 1.49407 15.102 2.80025Z" fill="white"/>
<path d="M16.7093 14.617L15.8971 11.5859L19.7404 13.8048L16.7093 14.617Z" fill="white"/>
<path d="M20.0101 13.8403L19.7673 13.9059L16.7362 14.7175L16.6358 14.745L15.7959 11.613L15.7314 11.37L20.0101 13.8403ZM16.7828 14.4888L19.4704 13.7692L16.0635 11.8023L16.7828 14.4888Z" fill="white"/>
<path d="M4.89448 17.1953C1.40146 14.718 0.264063 10.1697 1.9482 6.40691L2.51866 6.66183L3.08866 6.91742C1.64273 10.1481 2.62206 14.0512 5.61759 16.1756C7.19631 17.2952 9.05528 17.7161 10.8426 17.5147L10.9828 18.7575C8.90591 18.9915 6.73636 18.5014 4.89448 17.1953Z" fill="white"/>
<path d="M3.2787 5.39292L4.07863 8.37831L0.293306 6.19285L3.2787 5.39292Z" fill="white"/>
<path d="M0.0234373 6.15733L3.3529 5.2652L3.3793 5.36596L4.17979 8.35121L4.24432 8.59426L0.0234373 6.15733ZM3.2052 5.52103L0.563859 6.22878L3.91224 8.16196L3.2052 5.52103Z" fill="white"/>
<path d="M10.0017 5.50391C7.88287 5.50391 6.10595 6.97735 5.6325 8.95365C5.55067 9.28985 5.50391 9.64067 5.50391 10.0003C5.50391 10.3599 5.55067 10.7107 5.6325 11.0469C6.10595 13.0232 7.88287 14.4966 10.0017 14.4966C12.4801 14.4966 14.4966 12.4794 14.4966 10.0003C14.4966 7.52113 12.4801 5.50391 10.0017 5.50391ZM11.5502 12.0136C11.3036 12.2523 10.9801 12.4141 10.5903 12.4937L10.5293 12.507V12.5706C10.5213 12.8624 10.2774 13.0985 9.98568 13.0985C9.69399 13.0985 9.44473 12.8571 9.44473 12.5574V12.4937L9.38374 12.4804C9.02045 12.3956 8.7102 12.2337 8.46093 12.0003C8.28592 11.8359 8.14803 11.6422 8.05257 11.4247C7.99688 11.2947 8.00218 11.1515 8.07113 11.0295C8.14803 10.8889 8.29387 10.7907 8.46093 10.7669C8.48745 10.7616 8.51397 10.7616 8.54049 10.7616C8.75793 10.7616 8.97272 10.8915 9.12652 11.1223C9.18751 11.2152 9.26706 11.2974 9.35987 11.3664C9.55345 11.5069 9.77885 11.5759 10.0546 11.5759C10.3145 11.5759 10.5293 11.5202 10.691 11.4061C10.8422 11.3027 10.9138 11.178 10.9138 11.0295C10.9138 10.9287 10.882 10.8491 10.8183 10.7881C10.7467 10.7165 10.6221 10.6555 10.4471 10.6051L9.2432 10.2549C8.30183 9.98435 8.10295 9.39282 8.10295 8.94453C8.10295 8.54929 8.23554 8.21772 8.49806 7.96042C8.7208 7.74025 9.0178 7.58906 9.37843 7.51478L9.43942 7.50152V7.43786C9.44738 7.14607 9.68869 6.90734 9.98303 6.90734C10.2774 6.90734 10.524 7.15138 10.524 7.45908V7.52009L10.5823 7.536C10.9032 7.61823 11.1816 7.76413 11.4044 7.97368C11.5555 8.11162 11.6801 8.27343 11.7756 8.45911C11.8419 8.58643 11.8445 8.73498 11.7809 8.86495C11.7093 9.01085 11.5635 9.11695 11.3964 9.14348C11.1577 9.18327 10.9058 9.05594 10.7096 8.79333C10.6645 8.73498 10.6088 8.67927 10.5478 8.63153C10.3808 8.5042 10.1846 8.43789 9.9459 8.43258C9.72846 8.42993 9.53754 8.47237 9.38108 8.57582C9.24585 8.66601 9.17955 8.77477 9.17955 8.90474C9.17955 8.9631 9.19281 9.05064 9.29888 9.14082C9.36517 9.19388 9.50041 9.2708 9.77354 9.34507L10.6698 9.58646C11.1286 9.71378 11.4521 9.8809 11.6616 10.1011C11.8737 10.3212 11.9824 10.6157 11.9824 10.9738C11.9824 11.3876 11.8366 11.7377 11.5449 12.0136H11.5502Z" fill="white"/>
</svg>
