<svg width="48" height="48" viewBox="0 0 48 48" fill="none" xmlns="http://www.w3.org/2000/svg">
<rect x="4" y="3.75" width="40" height="40" rx="20" fill="#202326"/>
<path d="M11.8164 25.5352V28.6046L24.0006 36.6861L36.1846 28.6046L36.1847 25.5352L11.8164 25.5352Z" fill="#565C61"/>
<path d="M24.0039 25.5352V36.6861L36.188 28.6046L36.188 25.5352L24.0039 25.5352Z" fill="#7C7C7C"/>
<path d="M24.0005 17.4727L11.8164 25.5542L24.0006 33.6357L36.1846 25.5542L24.0005 17.4727Z" fill="#3F464C"/>
<path d="M11.8164 18.8711V21.9405L24.0006 30.0221L36.1846 21.9405L36.1847 18.8711L11.8164 18.8711Z" fill="#565C61"/>
<path d="M24.0039 18.8711V30.0221L36.188 21.9405L36.188 18.8711L24.0039 18.8711Z" fill="#7C7C7C"/>
<path d="M24.0005 10.8086L11.8164 18.8901L24.0006 26.9716L36.1846 18.8901L24.0005 10.8086Z" fill="#3F464C"/>
</svg>
