<svg width="48" height="48" viewBox="0 0 48 48" fill="none" xmlns="http://www.w3.org/2000/svg">
<rect x="4" y="3.75" width="40" height="40" rx="20" fill="#202326"/>
<path d="M13.1562 27.0318C13.1562 31.2084 16.5421 34.5943 20.7188 34.5943C24.5764 34.5943 27.7595 31.7058 28.2232 27.9737C27.9146 28.012 27.6002 28.0318 27.2812 28.0318C23.1046 28.0318 19.7188 24.6459 19.7188 20.4693C19.7188 20.1503 19.7385 19.8359 19.7768 19.5273C16.0447 19.991 13.1562 23.1741 13.1562 27.0318Z" fill="#3F464C"/>
<path d="M28.2812 27.0312C28.2812 22.8546 24.8954 19.4688 20.7188 19.4688C20.3998 19.4688 20.0854 19.4885 19.7768 19.5268C19.7385 19.8354 19.7188 20.1498 19.7188 20.4688C19.7188 24.6454 23.1046 28.0312 27.2812 28.0312C27.6002 28.0312 27.9146 28.0115 28.2232 27.9732C28.2615 27.6646 28.2812 27.3502 28.2812 27.0312Z" fill="#7C7C7C"/>
<path d="M20.7193 19.4688C24.8959 19.4688 28.2818 22.8546 28.2818 27.0312C28.2818 27.3502 28.262 27.6646 28.2237 27.9732C31.9558 27.5095 34.8443 24.3264 34.8443 20.4688C34.8443 16.2921 31.4584 12.9062 27.2818 12.9062C23.4241 12.9062 20.241 15.7947 19.7773 19.5268C20.0859 19.4885 20.4003 19.4688 20.7193 19.4688Z" fill="#565C61"/>
</svg>
