<svg width="20" height="20" viewBox="0 0 20 20" fill="none" xmlns="http://www.w3.org/2000/svg">
<path fill-rule="evenodd" clip-rule="evenodd" d="M6.96911 14.2695C4.68651 12.6507 4.09883 9.54032 5.57916 7.20342L6.91644 8.15182L6.48763 4.46972L2.87088 5.28269L4.23064 6.24704C2.22265 9.32986 2.9853 13.471 6.01273 15.6181C7.44981 16.6372 9.14226 17.0201 10.7657 16.8371L10.4884 15.2068C9.28323 15.3209 8.03354 15.0244 6.96911 14.2695Z" fill="white"/>
<path fill-rule="evenodd" clip-rule="evenodd" d="M15.7658 13.7522C17.7727 10.67 17.0112 6.52829 13.9837 4.38123C12.5467 3.36205 10.8542 2.97922 9.23074 3.16215L9.50812 4.79248C10.7132 4.67836 11.9629 4.97485 13.0278 5.73007C15.31 7.34858 15.8981 10.4593 14.4178 12.7962L13.0805 11.8478L13.5093 15.5299L17.126 14.7169L15.7658 13.7522Z" fill="white"/>
</svg>
