<svg width="16" height="16" viewBox="0 0 16 16" fill="none" xmlns="http://www.w3.org/2000/svg">
<path d="M12.8235 8.50128C13.1408 8.50146 13.3968 8.75726 13.3968 9.07453C13.3999 9.38859 13.1402 9.64777 12.8294 9.64777H10.4622L13.4974 12.6868C13.7214 12.9113 13.7216 13.2731 13.4974 13.4974C13.2731 13.7217 12.9113 13.7214 12.6868 13.4974L9.65167 10.4622L9.64972 12.8206C9.64972 13.138 9.39384 13.3939 9.07647 13.3939C8.75923 13.3937 8.50323 13.1379 8.50323 12.8206V8.95734C8.50346 8.70493 8.70781 8.50128 8.96026 8.50128H12.8235ZM2.5003 2.50031C2.72469 2.27592 3.08643 2.27596 3.31085 2.50031L6.34405 5.53351L6.34698 3.17609C6.34717 2.85899 6.60314 2.60304 6.92022 2.60285C7.23748 2.60285 7.49328 2.85887 7.49347 3.17609V7.03937C7.49347 7.2919 7.2899 7.49627 7.03741 7.4964H3.17413C2.8568 7.4964 2.60095 7.24049 2.60089 6.92316C2.59765 6.60913 2.85655 6.3501 3.16729 6.34992H5.53546L2.5003 3.31085C2.27597 3.08643 2.27591 2.7247 2.5003 2.50031Z" fill="white"/>
</svg>
