<svg width="20" height="20" viewBox="0 0 20 20" fill="none" xmlns="http://www.w3.org/2000/svg">
<path d="M17.1275 17.1379C15.6939 18.5715 13.3695 18.5715 11.9359 17.1379C10.5023 15.7043 10.5023 13.38 11.9359 11.9464C13.3695 10.5128 15.6939 10.5128 17.1275 11.9464C18.5611 13.38 18.5611 15.7043 17.1275 17.1379Z" fill="white"/>
<path d="M8.06558 8.05387C6.63198 9.48748 4.30764 9.48748 2.87403 8.05387C1.44043 6.62026 1.44043 4.29592 2.87403 2.86231C4.30764 1.42871 6.63198 1.42871 8.06558 2.86231C9.49919 4.29592 9.49919 6.62026 8.06558 8.05387Z" fill="white"/>
<path fill-rule="evenodd" clip-rule="evenodd" d="M17.3658 7.69707H15.8658L15.8658 5.1955L3.91557 17.1457L2.85491 16.0851L14.8052 4.13484L12.3036 4.13484V2.63484L17.3658 2.63484V7.69707Z" fill="white"/>
</svg>
