<svg width="32" height="32" viewBox="0 0 32 32" fill="none" xmlns="http://www.w3.org/2000/svg">
<rect x="2.66602" y="2.5" width="26.6667" height="26.6667" rx="13.3333" fill="#3D2D6F"/>
<rect x="8.10742" y="14.6836" width="15.7833" height="3.29358" fill="#7560D0"/>
<rect x="17.3887" y="9.31055" width="11.3645" height="1.02924" transform="rotate(90 17.3887 9.31055)" fill="#7560D0"/>
<rect x="10.7461" y="11.3906" width="12.2532" height="9.88075" fill="#A38CFF"/>
<rect x="23" y="11.3906" width="1.67954" height="11.0123" transform="rotate(90 23 11.3906)" fill="white"/>
<rect x="11.9883" y="21.2715" width="2.75141" height="9.88074" transform="rotate(-180 11.9883 21.2715)" fill="#7560D0"/>
<path d="M21.3165 15.1304C21.3165 15.691 20.862 16.1455 20.3014 16.1455C19.7407 16.1455 19.2863 15.691 19.2863 15.1304C19.2863 14.5697 19.7407 14.1152 20.3014 14.1152C20.862 14.1152 21.3165 14.5697 21.3165 15.1304Z" fill="#201F67"/>
<path d="M16.3447 15.1304C16.3447 15.691 15.8902 16.1455 15.3296 16.1455C14.7689 16.1455 14.3145 15.691 14.3145 15.1304C14.3145 14.5697 14.7689 14.1152 15.3296 14.1152C15.8902 14.1152 16.3447 14.5697 16.3447 15.1304Z" fill="#201F67"/>
<path d="M19.3192 17.7189C19.0215 18.2438 18.459 18.5959 17.8149 18.5959C17.1709 18.5959 16.6084 18.2438 16.3107 17.7189L15.3096 18.2868C15.8034 19.1574 16.74 19.7469 17.8149 19.7469C18.8899 19.7469 19.8265 19.1574 20.3203 18.2868L19.3192 17.7189Z" fill="#201F67"/>
<circle cx="16.8734" cy="8.46125" r="1.66437" fill="#7560D0"/>
<circle cx="17.3504" cy="7.98516" r="0.991018" fill="white"/>
</svg>
