<svg width="20" height="20" viewBox="0 0 20 20" fill="none" xmlns="http://www.w3.org/2000/svg">
<path d="M12.8132 10.75H10.6257C10.2246 10.75 9.89648 11.0875 9.89648 11.5V13.75C9.89648 14.1625 10.2246 14.5 10.6257 14.5H12.8132C13.2142 14.5 13.5423 14.1625 13.5423 13.75V11.5C13.5423 11.0875 13.2142 10.75 12.8132 10.75ZM12.8132 3.25V4H6.97982V3.25C6.97982 2.8375 6.65169 2.5 6.25065 2.5C5.84961 2.5 5.52148 2.8375 5.52148 3.25V4H4.79232C3.98294 4 3.34128 4.675 3.34128 5.5L3.33398 16C3.33398 16.825 3.98294 17.5 4.79232 17.5H15.0007C15.8027 17.5 16.459 16.825 16.459 16V5.5C16.459 4.675 15.8027 4 15.0007 4H14.2715V3.25C14.2715 2.8375 13.9434 2.5 13.5423 2.5C13.1413 2.5 12.8132 2.8375 12.8132 3.25ZM14.2715 16H5.52148C5.12044 16 4.79232 15.6625 4.79232 15.25V7.75H15.0007V15.25C15.0007 15.6625 14.6725 16 14.2715 16Z" fill="#9B9C9C"/>
</svg>
