<svg width="20" height="20" viewBox="0 0 20 20" fill="none" xmlns="http://www.w3.org/2000/svg">
<path fill-rule="evenodd" clip-rule="evenodd" d="M5.87161 12.4328C4.05364 10.6189 4.05364 7.67796 5.87161 5.86406C7.68958 4.05016 10.6371 4.05016 12.4551 5.86406C14.273 7.67796 14.273 10.6189 12.4551 12.4328C10.6371 14.2467 7.68958 14.2467 5.87161 12.4328ZM4.45165 4.44728C1.84945 7.04365 1.84945 11.2532 4.45165 13.8496C6.80666 16.1993 10.4859 16.4225 13.0925 14.5192L15.7861 17.2068C16.1782 17.598 16.814 17.598 17.2061 17.2068C17.5982 16.8155 17.5982 16.1812 17.2061 15.79L14.5175 13.1075C16.4559 10.5045 16.2418 6.8087 13.875 4.44728C11.2728 1.85091 7.05384 1.85091 4.45165 4.44728Z" fill="#9B9C9C"/>
</svg>
