<svg width="20" height="20" viewBox="0 0 20 20" fill="none" xmlns="http://www.w3.org/2000/svg">
<path d="M14.666 7.07816H13.916V6.14764C13.916 4.09305 12.236 2.5 10.166 2.5C8.09602 2.5 6.41602 4.09305 6.41602 6.14764V7.07816H5.66602C4.84102 7.07816 4.16602 7.74814 4.16602 8.567V16.0112C4.16602 16.83 4.84102 17.5 5.66602 17.5H14.666C15.491 17.5 16.166 16.83 16.166 16.0112V8.567C16.166 7.74814 15.491 7.07816 14.666 7.07816ZM10.166 13.7779C9.34102 13.7779 8.66602 13.1079 8.66602 12.2891C8.66602 11.4702 9.34102 10.8002 10.166 10.8002C10.991 10.8002 11.666 11.4702 11.666 12.2891C11.666 13.1079 10.991 13.7779 10.166 13.7779ZM12.491 7.07816H7.84102V6.14764C7.84102 4.87469 8.88352 3.91439 10.166 3.91439C11.4485 3.91439 12.491 4.87469 12.491 6.14764V7.07816Z" fill="white"/>
</svg>
