<svg width="52" height="52" viewBox="0 0 52 52" fill="none" xmlns="http://www.w3.org/2000/svg">
<path fill-rule="evenodd" clip-rule="evenodd" d="M10.832 9.5C10.832 7.84315 12.2204 6.5 13.9331 6.5H24.7867V17.75C24.7867 20.3125 26.3372 22.375 29.4383 22.375H42.032L41.8425 42.5C41.8425 44.1569 40.4541 45.5 38.7414 45.5H13.9331C12.2204 45.5 10.832 44.1569 10.832 42.5V9.5ZM18.0678 29.7917C18.0678 28.8942 18.762 28.1667 19.6183 28.1667H33.0562C33.9125 28.1667 34.6067 28.8942 34.6067 29.7917C34.6067 30.6891 33.9125 31.4167 33.0562 31.4167H19.6183C18.762 31.4167 18.0678 30.6891 18.0678 29.7917ZM19.6183 34.6667C18.762 34.6667 18.0678 35.3942 18.0678 36.2917C18.0678 37.1891 18.762 37.9167 19.6183 37.9167H28.9214C29.7778 37.9167 30.472 37.1891 30.472 36.2917C30.472 35.3942 29.7778 34.6667 28.9214 34.6667H19.6183Z" fill="#58595A"/>
<path d="M30.3005 17.875H39.428C40.1961 17.875 40.5808 16.9016 40.0377 16.3324L30.9102 6.76649C30.367 6.19722 29.4383 6.6004 29.4383 7.40546V16.9713C29.4383 17.4704 29.8243 17.875 30.3005 17.875Z" fill="#58595A"/>
</svg>
