<svg preserveAspectRatio="none" width="100%" height="100%" overflow="visible" style="display: block;" viewBox="0 0 39 39.0004" fill="none" xmlns="http://www.w3.org/2000/svg">
<path id="Vector" d="M5.07428 5.06288C11.84 -1.6876 22.8096 -1.68766 29.5753 5.06288C35.7287 11.2026 36.284 20.8109 31.2442 27.5785L38.2354 34.5541C39.2549 35.5713 39.2549 37.2205 38.2354 38.2377C37.2159 39.2547 35.5634 39.2547 34.544 38.2377L27.5401 31.2494C20.763 36.1981 11.1973 35.6184 5.07428 29.5092C-1.69143 22.7586 -1.69143 11.8134 5.07428 5.06288ZM25.8829 8.74647C21.1561 4.03054 13.4924 4.0304 8.76569 8.74647C4.03913 13.4626 4.0391 21.1095 8.76569 25.8256C13.4923 30.5416 21.1561 30.5415 25.8829 25.8256C30.6096 21.1094 30.6096 13.4626 25.8829 8.74647Z" fill="var(--fill-0, #58595A)"/>
</svg>
