<svg width="16" height="16" viewBox="0 0 16 16" fill="none" xmlns="http://www.w3.org/2000/svg">
<path d="M8.67188 8.67188C8.89631 8.44754 9.25799 8.44754 9.48242 8.67188L12.5166 11.7041L12.5195 9.34766C12.5195 9.03039 12.7754 8.77441 13.0928 8.77441C13.41 8.77459 13.666 9.0305 13.666 9.34766V13.209C13.666 13.4615 13.4616 13.666 13.209 13.666H9.3457C9.02831 13.666 8.77247 13.41 8.77246 13.0928C8.76922 12.7789 9.0281 12.5197 9.33887 12.5195H11.707L8.67188 9.48242C8.44747 9.25811 8.44752 8.89622 8.67188 8.67188ZM6.65234 2.33203C6.96972 2.33203 7.22556 2.58803 7.22559 2.90527C7.22882 3.21918 6.96994 3.47832 6.65918 3.47852H4.29102L7.32617 6.51563C7.55057 6.73993 7.55051 7.10183 7.32617 7.32617C7.10174 7.55051 6.74006 7.55051 6.51562 7.32617L3.48047 4.29297L3.47852 6.65039C3.47852 6.96765 3.22267 7.22363 2.90527 7.22363C2.58803 7.22346 2.33203 6.96755 2.33203 6.65039V2.78906C2.33203 2.53655 2.53644 2.33203 2.78906 2.33203H6.65234Z" fill="white"/>
</svg>
