<svg width="30" height="30" viewBox="0 0 30 30" fill="none" xmlns="http://www.w3.org/2000/svg">
<g clip-path="url(#clip0_8455_8537)">
<path fill-rule="evenodd" clip-rule="evenodd" d="M15 2.5C21.9 2.5 27.5 8.1 27.5 15C27.5 21.9 21.9 27.5 15 27.5C8.1 27.5 2.5 21.9 2.5 15C2.5 8.1 8.1 2.5 15 2.5Z" fill="#CF1011"/>
<path fill-rule="evenodd" clip-rule="evenodd" d="M14.9991 12.0391C16.6291 12.0391 17.9591 13.3591 17.9591 14.9991C17.9591 16.6291 16.6391 17.9591 14.9991 17.9591C13.3691 17.9591 12.0391 16.6391 12.0391 14.9991C12.0391 13.3691 13.3591 12.0391 14.9991 12.0391Z" fill="white"/>
<path fill-rule="evenodd" clip-rule="evenodd" d="M15.0698 7.26C15.9998 7.27 16.9198 7.45 17.7798 7.78C18.6398 8.11 19.4398 8.59 20.1398 9.21L20.1598 9.23C21.7498 10.65 22.6198 12.57 22.7298 14.54C22.8498 16.52 22.2098 18.54 20.7998 20.14L20.7798 20.16C19.3598 21.75 17.4398 22.62 15.4698 22.73C13.4898 22.85 11.4698 22.21 9.86983 20.8C8.26983 19.38 7.38983 17.45 7.27983 15.47C7.15983 13.49 7.79983 11.47 9.20983 9.87L9.87983 10.46C8.62983 11.87 8.06983 13.66 8.16983 15.41C8.27983 17.16 9.04983 18.87 10.4598 20.12C11.8698 21.37 13.6598 21.93 15.4098 21.83C17.1598 21.72 18.8698 20.95 20.1198 19.54L20.1398 19.52C21.3798 18.11 21.9398 16.33 21.8298 14.59C21.7198 12.84 20.9498 11.13 19.5398 9.88L19.5198 9.86C18.9098 9.32 18.2098 8.9 17.4598 8.61C16.6998 8.32 15.8898 8.16 15.0698 8.15L15.0798 7.25L15.0698 7.26Z" fill="white"/>
<path d="M10.6002 7.31055C11.1402 7.31055 11.6202 7.53055 11.9702 7.88055C12.3202 8.23055 12.5402 8.72055 12.5402 9.25055C12.5402 9.79055 12.3202 10.2705 11.9702 10.6205C11.6202 10.9705 11.1302 11.1905 10.6002 11.1905C10.0602 11.1905 9.58016 10.9705 9.23016 10.6205C8.88016 10.2705 8.66016 9.78055 8.66016 9.25055C8.66016 8.71055 8.88016 8.23055 9.23016 7.88055C9.58016 7.53055 10.0702 7.31055 10.6002 7.31055ZM11.3402 8.52055C11.1502 8.33055 10.8902 8.21055 10.6002 8.21055C10.3102 8.21055 10.0502 8.33055 9.86016 8.52055C9.67016 8.71055 9.55016 8.97055 9.55016 9.26055C9.55016 9.55055 9.67016 9.81055 9.86016 10.0005C10.0502 10.1905 10.3102 10.3105 10.6002 10.3105C10.8902 10.3105 11.1502 10.1905 11.3402 10.0005C11.5302 9.81055 11.6502 9.55055 11.6502 9.26055C11.6502 8.97055 11.5302 8.71055 11.3402 8.52055Z" fill="white"/>
</g>
<defs>
<clipPath id="clip0_8455_8537">
<rect width="25" height="25" fill="white" transform="translate(2.5 2.5)"/>
</clipPath>
</defs>
</svg>
