<svg width="16" height="16" viewBox="0 0 16 16" fill="none" xmlns="http://www.w3.org/2000/svg">
<g clip-path="url(#clip0_8437_6878)">
<path d="M5.71169 7.99813C5.71169 9.20119 6.7359 10.1765 7.99932 10.1765C9.26275 10.1765 10.287 9.20119 10.287 7.99813C10.287 6.79508 9.26275 5.81981 7.99932 5.81981C6.7359 5.81981 5.71169 6.79508 5.71169 7.99813Z" fill="#9B9C9C"/>
<path fill-rule="evenodd" clip-rule="evenodd" d="M8.00065 3.5332C10.169 3.5332 11.8196 4.18907 12.9392 5.07065C14.0339 5.93258 14.6673 7.05563 14.6673 7.99987C14.6673 8.9441 14.0339 10.0672 12.9392 10.9291C11.8196 11.8107 10.169 12.4665 8.00065 12.4665C5.83227 12.4665 4.18168 11.8107 3.06208 10.9291C1.96744 10.0672 1.33398 8.9441 1.33398 7.99987C1.33398 7.05563 1.96744 5.93258 3.06208 5.07065C4.18168 4.18907 5.83227 3.5332 8.00065 3.5332ZM13.4914 7.99987C13.4914 7.5325 13.1316 6.71498 12.2099 5.98923C11.3132 5.28315 9.9244 4.70424 8.00065 4.70424C6.0769 4.70424 4.68814 5.28315 3.79142 5.98923C2.86973 6.71498 2.5099 7.5325 2.5099 7.99987C2.5099 8.46724 2.86973 9.28476 3.79142 10.0105C4.68814 10.7166 6.0769 11.2955 8.00065 11.2955C9.9244 11.2955 11.3132 10.7166 12.2099 10.0105C13.1316 9.28476 13.4914 8.46724 13.4914 7.99987Z" fill="#9B9C9C"/>
</g>
<defs>
<clipPath id="clip0_8437_6878">
<rect width="16" height="16" fill="white"/>
</clipPath>
</defs>
</svg>
