<svg width="21" height="20" viewBox="0 0 21 20" fill="none" xmlns="http://www.w3.org/2000/svg">
<path d="M15.1039 2.8022C18.581 5.26816 19.7237 9.78618 18.0729 13.5388L17.5008 13.2877L16.9291 13.0359C18.3465 9.81387 17.3627 5.93659 14.3808 3.82181C12.8021 2.70227 10.9431 2.28136 9.15582 2.48273L9.01559 1.23993C11.0925 1.00592 13.2621 1.49603 15.1039 2.8022Z" fill="white"/>
<path d="M16.7113 14.619L15.8991 11.5879L19.7424 13.8068L16.7113 14.619Z" fill="white"/>
<path d="M20.0121 13.8422L19.7693 13.9079L16.7382 14.7194L16.6377 14.747L15.7979 11.615L15.7334 11.3719L20.0121 13.8422ZM16.7847 14.4907L19.4723 13.7712L16.0655 11.8042L16.7847 14.4907Z" fill="white"/>
<path d="M4.89643 17.1972C1.40341 14.7199 0.266016 10.1716 1.95015 6.40886L2.52061 6.66378L3.09061 6.91937C1.64468 10.15 2.62401 14.0531 5.61954 16.1776C7.19826 17.2971 9.05724 17.718 10.8445 17.5167L10.9848 18.7595C8.90786 18.9935 6.73831 18.5034 4.89643 17.1972Z" fill="white"/>
<path d="M3.28065 5.39487L4.08059 8.38027L0.295259 6.19481L3.28065 5.39487Z" fill="white"/>
<path d="M0.0253904 6.15928L3.35485 5.26715L3.38126 5.36791L4.18175 8.35316L4.24628 8.59621L0.0253904 6.15928ZM3.20715 5.52299L0.565812 6.23073L3.91419 8.16392L3.20715 5.52299Z" fill="white"/>
<path fill-rule="evenodd" clip-rule="evenodd" d="M5.6325 8.95365C6.10595 6.97735 7.88287 5.50391 10.0017 5.50391C12.4801 5.50391 14.4966 7.52113 14.4966 10.0003C14.4966 12.4794 12.4801 14.4966 10.0017 14.4966C7.88287 14.4966 6.10595 13.0232 5.6325 11.0469C5.55067 10.7107 5.50391 10.3599 5.50391 10.0003C5.50391 9.64067 5.55067 9.28985 5.6325 8.95365ZM11.8665 8.0859C11.9778 8.08619 12.0844 8.13086 12.1626 8.21002L12.4524 8.50328C12.6138 8.66661 12.6131 8.92957 12.4509 9.09208L9.63735 12.2171C9.55897 12.2956 9.45258 12.3398 9.34164 12.3397C9.23069 12.3397 9.12431 12.2956 9.04595 12.2171L7.49082 10.761C7.32826 10.5981 7.32808 10.3344 7.49043 10.1713L7.78022 9.88006C7.85852 9.80138 7.96491 9.7571 8.07592 9.75699C8.18692 9.75688 8.2934 9.80094 8.37186 9.87947L9.34158 10.7464L11.5698 8.20849C11.6484 8.12973 11.7552 8.08561 11.8665 8.0859Z" fill="white"/>
</svg>
