<svg width="20" height="20" viewBox="0 0 20 20" fill="none" xmlns="http://www.w3.org/2000/svg">
<path fill-rule="evenodd" clip-rule="evenodd" d="M11.9418 18.1791V13.8399C11.9418 13.7479 11.8672 13.6733 11.7751 13.6733H8.27515C8.1831 13.6733 8.10848 13.7479 8.10848 13.8399V18.1791H5.83398C3.62485 18.1791 1.83398 16.3883 1.83398 14.1791V9.87025C1.83398 8.99951 2.19253 8.16719 2.82529 7.56903L8.11152 2.57189C9.1716 1.56979 10.8297 1.56979 11.8898 2.57189L17.176 7.56903C17.8088 8.16719 18.1673 8.99951 18.1673 9.87025V14.1791C18.1673 16.3883 16.3765 18.1791 14.1673 18.1791H11.9418ZM5.10848 16.5722C4.08157 16.2613 3.33398 15.3075 3.33398 14.1791V9.87025C3.33398 9.41196 3.52269 8.9739 3.85572 8.65908L9.14195 3.66194C9.62381 3.20644 10.3775 3.20644 10.8593 3.66194L16.1456 8.65908C16.4786 8.9739 16.6673 9.41196 16.6673 9.87025V14.1791C16.6673 15.2895 15.9434 16.2308 14.9418 16.5569C14.698 16.6362 14.4377 16.6791 14.1673 16.6791H13.4418V13.8399C13.4418 12.9195 12.6956 12.1733 11.7751 12.1733H8.27515C7.35467 12.1733 6.60848 12.9195 6.60848 13.8399V16.6791H5.83398C5.58167 16.6791 5.33809 16.6418 5.10848 16.5722Z" fill="#58595A"/>
</svg>
