<svg width="24" height="24" viewBox="0 0 24 24" fill="none" xmlns="http://www.w3.org/2000/svg">
<path fill-rule="evenodd" clip-rule="evenodd" d="M5 6.11539C5 4.39481 6.31395 3 7.93478 3H19.0217C19.562 3 20 3.46494 20 4.03846V15.8077C20 15.8469 19.998 15.8856 19.994 15.9237C19.998 15.9601 20 15.9972 20 16.0349C20 16.5427 19.6269 16.9543 19.1667 16.9543H7.66667C7.11438 16.9543 6.66667 17.4483 6.66667 18.0577C6.66667 18.6671 7.11438 19.1611 7.66667 19.1611H19.1667C19.6269 19.1611 20 19.5727 20 20.0805C20 20.5883 19.6269 21 19.1667 21H7.66667C6.29586 21 5.16664 19.8588 5.01686 18.3904L5 18.4038V6.11539ZM11.8326 11.0051C11.7771 11.2641 11.7494 11.523 11.7494 11.7819H13.3459C13.3459 11.5622 13.357 11.3955 13.3792 11.2817C13.4014 11.1679 13.4642 11.0208 13.5677 10.8404C13.6231 10.7501 13.6859 10.6638 13.7562 10.5814C13.8301 10.4951 13.9114 10.4049 14.0001 10.3108C14.0925 10.2127 14.1959 10.0989 14.3105 9.96944C14.5766 9.66737 14.8002 9.34175 14.9813 8.9926C15.1623 8.64344 15.2529 8.25506 15.2529 7.82744C15.2529 7.56067 15.2085 7.29587 15.1198 7.03302C15.0312 6.76625 14.9055 6.53283 14.7429 6.33275C14.499 6.01498 14.1904 5.78744 13.8171 5.65014C13.4439 5.5089 13.0466 5.43829 12.6253 5.43829C12.3703 5.43829 12.1153 5.47752 11.8603 5.55598C11.6053 5.63444 11.3725 5.74821 11.1618 5.89729C10.8735 6.09737 10.6389 6.37198 10.4578 6.72114C10.2767 7.07029 10.164 7.45475 10.1196 7.87452H11.7162C11.7125 7.72152 11.7346 7.58225 11.7827 7.45671C11.8344 7.33117 11.912 7.22721 12.0155 7.14483C12.1005 7.07421 12.2021 7.02321 12.3204 6.99183C12.4423 6.96044 12.5662 6.94475 12.6918 6.94475C12.8581 6.94475 13.0133 6.97417 13.1575 7.03302C13.3053 7.08794 13.4235 7.18014 13.5122 7.3096C13.5677 7.38414 13.6046 7.47044 13.6231 7.56852C13.6453 7.6666 13.6564 7.7686 13.6564 7.87452C13.6564 8.07852 13.6305 8.26683 13.5788 8.43944C13.5307 8.60813 13.4309 8.78075 13.2794 8.95729C13.0835 9.17698 12.9135 9.34764 12.7694 9.46925C12.629 9.59087 12.5033 9.71052 12.3925 9.82821C12.2853 9.94198 12.1855 10.0989 12.0931 10.299C11.9785 10.5108 11.8917 10.7462 11.8326 11.0051ZM11.7605 12.3821V14.0769H13.3459V12.3821H11.7605Z" fill="white"/>
</svg>
