<svg width="20" height="20" viewBox="0 0 20 20" fill="none" xmlns="http://www.w3.org/2000/svg">
<path d="M9.99944 13.29V11.8451C9.99944 7.24268 13.7304 3.51172 18.3328 3.51172L18.4321 3.51172V4.95663C18.4321 9.55901 14.7011 13.29 10.0987 13.29H9.99944Z" fill="white"/>
<path fill-rule="evenodd" clip-rule="evenodd" d="M9.43694 13.8525V11.8451C9.43694 6.93202 13.4197 2.94922 18.3328 2.94922L18.9946 2.94922L18.9946 4.95663C18.9946 9.86967 15.0118 13.8525 10.0987 13.8525H9.43694ZM10.5619 12.7139C14.638 12.4743 17.8696 9.09284 17.8696 4.95663L17.8696 4.0878C13.7935 4.32742 10.5619 7.70885 10.5619 11.8451V12.7139Z" fill="white"/>
<path d="M9.99944 13.29V11.8451C9.99944 7.24268 6.26807 3.51172 1.6657 3.51172L1.56641 3.51172L1.56641 4.95663C1.56641 9.55901 5.29736 13.29 9.89974 13.29H9.99944Z" fill="white"/>
<path fill-rule="evenodd" clip-rule="evenodd" d="M10.5615 13.8525L10.5619 11.8451C10.5619 6.93202 6.57873 2.94922 1.6657 2.94922L1.00391 2.94922L1.00391 4.95663C1.00391 9.86967 4.9867 13.8525 9.89974 13.8525H10.5615ZM9.43653 12.7139C5.36046 12.4743 2.12891 9.09284 2.12891 4.95663L2.12891 4.0878C6.20498 4.32742 9.43694 7.70885 9.43694 11.8451L9.43653 12.7139Z" fill="white"/>
<path fill-rule="evenodd" clip-rule="evenodd" d="M9.24985 17.6678V11.2123H10.7498V17.6678H9.24985Z" fill="white"/>
</svg>
