<svg width="16" height="16" viewBox="0 0 16 16" fill="none" xmlns="http://www.w3.org/2000/svg">
<circle cx="8.00065" cy="7.9987" r="6.66667" fill="white"/>
<path d="M8.00098 1.33203C11.6829 1.33203 14.668 4.31713 14.668 7.99902C14.668 11.6809 11.6829 14.666 8.00098 14.666C4.31908 14.666 1.33398 11.6809 1.33398 7.99902C1.33398 4.31713 4.31908 1.33203 8.00098 1.33203ZM11.1865 4.81348C10.9894 4.61633 10.6708 4.61641 10.4736 4.81348L8.00098 7.28613L5.52832 4.81348C5.33112 4.61641 5.01258 4.61633 4.81543 4.81348C4.61828 5.01063 4.61837 5.32917 4.81543 5.52637L7.28809 7.99902L4.81543 10.4717C4.62342 10.6638 4.62334 10.9876 4.81543 11.1797C5.01256 11.3767 5.33114 11.3766 5.52832 11.1797L8.00098 8.71192L10.4736 11.1846C10.6708 11.3816 10.9894 11.3817 11.1865 11.1846C11.3837 10.9874 11.3836 10.6689 11.1865 10.4717L8.71387 7.99902L11.1865 5.52637C11.3836 5.32917 11.3837 5.01063 11.1865 4.81348Z" fill="#EB5347"/>
</svg>
