<svg width="20" height="20" viewBox="0 0 20 20" fill="none" xmlns="http://www.w3.org/2000/svg">
<path d="M16.4853 5.2985C16.3943 5.1621 16.2578 5.11663 16.0757 5.11663H13.2088C12.7993 5.11663 12.4352 4.98023 12.1167 4.75289L10.3419 3.43433C10.1599 3.29793 9.88689 3.29793 9.65935 3.43433L7.93012 4.75289C7.61157 4.98023 7.20202 5.11663 6.83797 5.11663H3.88006C3.74354 5.11663 3.56152 5.1621 3.4705 5.2985C3.37949 5.38943 3.33398 5.52584 3.33398 5.70771C3.51601 7.70827 4.10759 9.70884 5.06322 11.7094C5.97335 13.5736 7.24752 15.1195 8.84024 16.3016C9.15879 16.529 9.56834 16.6654 9.9779 16.6654C10.3875 16.6654 10.7515 16.529 11.1156 16.3016C12.7538 15.1649 14.028 13.619 14.9381 11.7094C15.8937 9.70884 16.4853 7.66281 16.6673 5.70771C16.6673 5.52584 16.6218 5.38943 16.4853 5.2985Z" fill="#8FB8FF"/>
</svg>
