<svg width="60" height="60" viewBox="0 0 60 60" fill="none" xmlns="http://www.w3.org/2000/svg">
<circle cx="30" cy="30" r="25" fill="white"/>
<path d="M30 5C43.8071 5 55 16.1929 55 30C55 43.8071 43.8071 55 30 55C16.1929 55 5 43.8071 5 30C5 16.1929 16.1929 5 30 5ZM42.1992 19.9795C41.7877 19.9784 41.3924 20.1414 41.1016 20.4326L25.1328 36.8408L18.8994 30.6016C18.6092 30.3111 18.2152 30.1481 17.8047 30.1484C17.3942 30.1489 17.0005 30.3127 16.7109 30.6035L15.6387 31.6807C15.0381 32.2841 15.0393 33.2597 15.6406 33.8623L24.0391 42.2803C24.3288 42.5707 24.7226 42.7342 25.1328 42.7344C25.543 42.7344 25.9367 42.5714 26.2266 42.2812L44.3604 23.7012C44.9603 23.1002 44.9629 22.1276 44.3662 21.5234L43.2939 20.4385C43.0047 20.1458 42.6107 19.9807 42.1992 19.9795Z" fill="#56C488"/>
</svg>
