<svg width="64" height="64" viewBox="0 0 64 64" fill="none" xmlns="http://www.w3.org/2000/svg">
<path d="M30.449 43.412C30.449 50.9122 24.3692 56.9922 16.8691 56.9922C9.36903 56.9922 3.28906 50.9122 3.28906 43.412C3.28906 35.912 9.36903 29.832 16.8691 29.832C24.3691 29.832 30.449 35.912 30.449 43.412" fill="#2D2F2F"/>
<path d="M47.1347 56.701C54.6347 56.701 60.7147 50.6211 60.7147 43.121C60.7147 35.621 54.6347 29.541 47.1347 29.541C39.6347 29.541 33.5547 35.621 33.5547 43.121C33.5547 50.6211 39.6347 56.701 47.1347 56.701Z" fill="#2D2F2F"/>
<path d="M31.9999 30.4491C39.4999 30.4491 45.5799 24.3691 45.5799 16.8691C45.5799 9.36904 39.4999 3.28906 31.9999 3.28906C24.4999 3.28906 18.4199 9.36904 18.4199 16.8691C18.4199 24.3691 24.4999 30.4491 31.9999 30.4491Z" fill="#2D2F2F"/>
</svg>
