<svg width="20" height="20" viewBox="0 0 20 20" fill="none" xmlns="http://www.w3.org/2000/svg">
<circle cx="10" cy="10" r="8" fill="white"/>
<path d="M10 1.5625C14.6599 1.5625 18.4375 5.3401 18.4375 10C18.4375 14.6599 14.6599 18.4375 10 18.4375C5.3401 18.4375 1.5625 14.6599 1.5625 10C1.5625 5.3401 5.3401 1.5625 10 1.5625ZM10 5.3125C9.48223 5.3125 9.0625 5.73223 9.0625 6.25V9.0625H6.25C5.73223 9.0625 5.3125 9.48223 5.3125 10C5.3125 10.5178 5.73223 10.9375 6.25 10.9375H9.0625V13.75C9.0625 14.2678 9.48223 14.6875 10 14.6875C10.5178 14.6875 10.9375 14.2678 10.9375 13.75V10.9375H13.75C14.2678 10.9375 14.6875 10.5178 14.6875 10C14.6875 9.48223 14.2678 9.0625 13.75 9.0625H10.9375V6.25C10.9375 5.73223 10.5178 5.3125 10 5.3125Z" fill="#275CFD"/>
</svg>
