<svg width="32" height="32" viewBox="0 0 32 32" fill="none" xmlns="http://www.w3.org/2000/svg">
<rect x="2.66602" y="2.5" width="26.6667" height="26.6667" rx="13.3333" fill="#044430"/>
<path d="M10.9814 9.35547H9.43269C8.42247 9.35547 7.60352 10.1744 7.60352 11.1846V18.9586C7.60352 19.9689 8.42247 20.7878 9.43269 20.7878H10.9814V9.35547Z" fill="#00793A"/>
<rect x="10.1855" y="19.9492" width="4.00627" height="2.36135" fill="#00793A"/>
<rect x="18.2461" y="19.9492" width="4.00627" height="2.36135" fill="#00793A"/>
<path d="M10.9824 9.35547H22.5672C23.5774 9.35547 24.3964 10.1744 24.3964 11.1846V18.9586C24.3964 19.9689 23.5774 20.7878 22.5672 20.7878H10.9824V9.35547Z" fill="#56C488"/>
<rect x="9.79688" y="16.877" width="2.37002" height="1.87841" fill="white"/>
<rect x="9.79688" y="11.8535" width="2.37002" height="1.87841" fill="white"/>
<circle cx="17.6883" cy="15.0711" r="3.21755" fill="white"/>
<circle cx="17.6877" cy="15.0725" r="1.80491" fill="#00793A"/>
</svg>
