<svg width="24" height="24" viewBox="0 0 24 24" fill="none" xmlns="http://www.w3.org/2000/svg">
<path d="M4 16.947C4 16.7402 4.08213 16.5419 4.22833 16.3957L12.9011 7.72295C13.2055 7.41851 13.6991 7.41851 14.0036 7.72295L16.277 9.99642C16.5815 10.3009 16.5815 10.7945 16.277 11.0989L7.60428 19.7717C7.45808 19.9179 7.2598 20 7.05304 20H4.77957C4.34903 20 4 19.651 4 19.2204L4 16.947Z" fill="white"/>
<path d="M15.1089 6.61759C14.8045 6.31315 14.8045 5.81956 15.1089 5.51511L16.2184 4.40566C16.7593 3.86478 17.6348 3.86478 18.1757 4.40566L19.5943 5.82431C20.1352 6.36519 20.1352 7.24073 19.5943 7.78161L18.4849 8.89106C18.3387 9.03726 18.1404 9.11939 17.9336 9.11939C17.7269 9.11939 17.5286 9.03726 17.3824 8.89106L15.1089 6.61759Z" fill="white"/>
</svg>
