<svg width="20" height="20" viewBox="0 0 20 20" fill="none" xmlns="http://www.w3.org/2000/svg">
<rect width="20" height="20" rx="10" fill="#275CFD"/>
<path fill-rule="evenodd" clip-rule="evenodd" d="M15.0603 6.38245C15.5448 6.78648 15.5805 7.4743 15.1401 7.91873L8.87101 14.2449C8.62952 14.4886 8.24462 14.515 7.97205 14.3067L4.99244 12.0288C4.46914 11.6288 4.40011 10.8667 4.84301 10.3791C5.23585 9.94665 5.8944 9.887 6.35855 10.2418L7.88632 11.4098C8.07824 11.5565 8.34926 11.5379 8.51931 11.3663L13.3857 6.4556C13.8261 6.01117 14.5759 5.97841 15.0603 6.38245Z" fill="white"/>
<path fill-rule="evenodd" clip-rule="evenodd" d="M15.1401 7.91873C15.5805 7.4743 15.5448 6.78648 15.0603 6.38245C14.5759 5.97841 13.8261 6.01117 13.3857 6.4556L8.51931 11.3663C8.34926 11.5379 8.07824 11.5565 7.88632 11.4098L6.35855 10.2418C5.8944 9.887 5.23585 9.94665 4.84301 10.3791C4.40011 10.8667 4.46914 11.6288 4.99244 12.0288L7.97205 14.3067C8.24462 14.515 8.62952 14.4886 8.87101 14.2449L15.1401 7.91873Z" fill="white"/>
</svg>
