<svg width="24" height="24" viewBox="0 0 24 24" fill="none" xmlns="http://www.w3.org/2000/svg">
<path d="M4.80078 12.0008C4.80078 8.02433 8.02433 4.80078 12.0008 4.80078C15.9772 4.80078 19.2008 8.02433 19.2008 12.0008C19.2008 15.9772 15.9772 19.2008 12.0008 19.2008C8.02433 19.2008 4.80078 15.9772 4.80078 12.0008Z" fill="white"/>
<path fill-rule="evenodd" clip-rule="evenodd" d="M12 2C6.47715 2 2 6.47715 2 12C2 17.5228 6.47715 22 12 22C17.5229 22 22 17.5228 22 12C22 6.47715 17.5229 2 12 2ZM12.0018 18.0609C11.1776 18.0609 10.5094 17.3928 10.5094 16.5686V11.4555C10.5094 10.6313 11.1776 9.96319 12.0018 9.96319C12.826 9.96319 13.4941 10.6313 13.4941 11.4555V16.5686C13.4941 17.3928 12.826 18.0609 12.0018 18.0609ZM10.6462 7.29884C10.6462 6.54572 11.2567 5.9352 12.0099 5.9352C12.763 5.9352 13.3735 6.54572 13.3735 7.29884C13.3735 8.05195 12.763 8.66247 12.0099 8.66247C11.2567 8.66247 10.6462 8.05195 10.6462 7.29884Z" fill="#8FB8FF"/>
</svg>
