<svg width="24" height="24" viewBox="0 0 24 24" fill="none" xmlns="http://www.w3.org/2000/svg">
<path d="M17.4286 12.2857C17.4286 13.5429 18.4571 14.5714 19.7143 14.5714C20.9714 14.5714 22 13.5429 22 12.2857C22 11.0286 20.9714 10 19.7143 10C18.4571 10 17.4286 11.0286 17.4286 12.2857ZM14.2857 12.2857C14.2857 11.0286 13.2571 10 12 10C10.7429 10 9.71428 11.0286 9.71428 12.2857C9.71428 13.5429 10.7429 14.5714 12 14.5714C13.2571 14.5714 14.2857 13.5429 14.2857 12.2857ZM6.57142 12.2857C6.57142 11.0286 5.54286 10 4.28571 10C3.02857 10 2 11.0286 2 12.2857C2 13.5429 3.02857 14.5714 4.28571 14.5714C5.54286 14.5714 6.57142 13.5429 6.57142 12.2857Z" fill="white"/>
</svg>
