<svg width="30" height="30" viewBox="0 0 30 30" fill="none" xmlns="http://www.w3.org/2000/svg">
<g clip-path="url(#clip0_8455_8615)">
<path fill-rule="evenodd" clip-rule="evenodd" d="M15 4.28571C9.08482 4.28571 4.28571 9.08482 4.28571 15C4.28571 20.9152 9.08482 25.7143 15 25.7143H21.4174C19.5201 26.8304 17.3438 27.5 15 27.5C8.08036 27.5 2.5 21.8638 2.5 15C2.5 8.08036 8.08036 2.5 15 2.5C21.9196 2.5 27.5 8.08036 27.5 15C27.5 15.6138 27.4442 16.2277 27.3884 16.7857H25.6027C25.7143 16.2277 25.7701 15.6138 25.7701 15C25.7143 9.08482 20.9152 4.28571 15 4.28571Z" fill="white"/>
<path fill-rule="evenodd" clip-rule="evenodd" d="M25.2687 22.1437C24.8223 22.7575 24.2642 23.3714 23.7062 23.9294H20.916H15.0008C10.0901 23.9294 6.07227 19.9116 6.07227 15.0008C6.07227 10.0901 10.0901 6.07227 15.0008 6.07227C19.9116 6.07227 23.9294 10.0901 23.9294 15.0008C23.9294 15.6147 23.8736 16.2285 23.762 16.7866H21.9205C22.0879 16.2285 22.1437 15.6147 22.1437 15.0008C22.1437 11.0388 18.9629 7.85798 15.0008 7.85798C11.0388 7.85798 7.85798 11.0388 7.85798 15.0008C7.85798 18.9629 11.0388 22.1437 15.0008 22.1437H20.358H22.9807H25.2687Z" fill="white"/>
<path fill-rule="evenodd" clip-rule="evenodd" d="M26.2723 20.3569C26.5513 19.7988 26.7746 19.185 26.942 18.5711H25.0446H23.1473H21.1384H18.9621H14.9442C12.9911 18.5711 11.3728 16.9528 11.3728 14.9997C11.3728 13.0466 12.9911 11.4283 14.9442 11.4283C16.8973 11.4283 18.5156 13.0466 18.5156 14.9997C18.5156 15.6694 18.3482 16.2832 18.0134 16.7854H19.9665C20.1897 16.2274 20.2455 15.6136 20.2455 14.9997C20.2455 12.0421 17.846 9.64258 14.8884 9.64258C11.9308 9.64258 9.53125 12.0421 9.53125 14.9997C9.53125 17.9573 11.9308 20.3569 14.8884 20.3569H19.6317H22.0312H24.2634H26.2723Z" fill="white"/>
</g>
<defs>
<clipPath id="clip0_8455_8615">
<rect width="25" height="25" fill="white" transform="translate(2.5 2.5)"/>
</clipPath>
</defs>
</svg>
