<svg width="24" height="24" viewBox="0 0 24 24" fill="none" xmlns="http://www.w3.org/2000/svg">
<path d="M3.10817 18.6231H4.1273L4.1273 20.5185C4.1273 20.9207 4.45635 21.2497 4.85852 21.2497C5.26069 21.2497 5.58973 20.9207 5.58973 20.5185V18.6231H6.60887C7.01103 18.6231 7.34008 18.294 7.34008 17.8919V14.966C7.34008 14.5639 7.01103 14.2348 6.60887 14.2348H5.58973V12.2937C5.58973 11.8915 5.26069 11.5625 4.85852 11.5625C4.45635 11.5625 4.1273 11.8915 4.1273 12.2937V14.2348H3.10817C2.706 14.2348 2.37695 14.5639 2.37695 14.966L2.37695 17.8919C2.37695 18.2986 2.70143 18.6231 3.10817 18.6231Z" fill="white"/>
<path d="M10.2488 17.545H11.2679V19.4404C11.2679 19.8426 11.597 20.1717 11.9991 20.1717C12.4013 20.1717 12.7304 19.8426 12.7304 19.4404V17.545H13.7495C14.1517 17.545 14.4807 17.216 14.4807 16.8138L14.4807 11.9296C14.4807 11.5274 14.1517 11.1984 13.7495 11.1984H12.7304V9.2527C12.7304 8.85053 12.4013 8.52148 11.9991 8.52148C11.597 8.52148 11.2679 8.85053 11.2679 9.2527V11.1938H10.2488C9.84663 11.1938 9.51758 11.5228 9.51758 11.925L9.51758 16.8093C9.51758 17.216 9.84663 17.545 10.2488 17.545Z" fill="white"/>
<path d="M17.3914 14.702H18.4105V16.5974C18.4105 16.9996 18.7396 17.3286 19.1417 17.3286C19.5439 17.3286 19.8729 16.9996 19.8729 16.5974L19.8729 14.702H20.8921C21.2942 14.702 21.6233 14.373 21.6233 13.9708V6.15353C21.6233 5.75136 21.2942 5.42231 20.8921 5.42231L19.8729 5.42231V3.48122C19.8729 3.07905 19.5439 2.75 19.1417 2.75C18.7396 2.75 18.4105 3.07905 18.4105 3.48122V5.42231H17.3914C16.9892 5.42231 16.6602 5.75136 16.6602 6.15353L16.6602 13.9754C16.6602 14.3775 16.9892 14.702 17.3914 14.702Z" fill="white"/>
</svg>
