<svg width="48" height="48" viewBox="0 0 48 48" fill="none" xmlns="http://www.w3.org/2000/svg">
<rect x="4" y="3.75" width="40" height="40" rx="20" fill="#202326"/>
<path d="M17.872 15H26.5873L29.3109 23.104H15.1484L17.872 15Z" fill="#3F464C"/>
<path d="M11.0634 23.1055H33.3964L36.12 31.2095H8.33984L11.0634 23.1055Z" fill="#3F464C"/>
<path d="M31.4892 23.1055H36.9363L39.6598 31.2095H28.7656L31.4892 23.1055Z" fill="#565C61"/>
<path d="M25.9735 15H31.4206L34.1442 23.104H23.25L25.9735 15Z" fill="#565C61"/>
<path d="M20.5946 23.1055H26.0417L28.7653 31.2095H17.8711L20.5946 23.1055Z" fill="#565C61"/>
<path fill-rule="evenodd" clip-rule="evenodd" d="M26.0424 23.1055H20.5953L19.6875 25.8068H26.9503L26.0424 23.1055Z" fill="#7C7C7C"/>
<path fill-rule="evenodd" clip-rule="evenodd" d="M20.5953 23.1055H26.0424L26.9503 25.8068H19.6875L20.5953 23.1055Z" fill="#7C7C7C"/>
<path fill-rule="evenodd" clip-rule="evenodd" d="M36.937 23.1055H31.4899L30.582 25.8068H37.8448L36.937 23.1055Z" fill="#7C7C7C"/>
<path fill-rule="evenodd" clip-rule="evenodd" d="M31.4899 23.1055H36.937L37.8448 25.8068H30.582L31.4899 23.1055Z" fill="#7C7C7C"/>
<path fill-rule="evenodd" clip-rule="evenodd" d="M31.4213 15H25.9743L25.0664 17.7013H32.3292L31.4213 15Z" fill="#7C7C7C"/>
<path fill-rule="evenodd" clip-rule="evenodd" d="M25.9743 15H31.4213L32.3292 17.7013H25.0664L25.9743 15Z" fill="#7C7C7C"/>
</svg>
