<svg width="56" height="56" viewBox="0 0 56 56" fill="none" xmlns="http://www.w3.org/2000/svg">
<rect x="1.33203" y="1.75" width="52.5" height="52.5" rx="8" fill="#2D2F2F"/>
<path d="M7.45898 21.0664C7.45898 19.9618 8.35441 19.0664 9.45898 19.0664H11.9612C13.0658 19.0664 13.9612 19.9618 13.9612 21.0664V41.5286H7.45898V21.0664Z" fill="#58595A"/>
<path d="M18.9844 16.4727C18.9844 15.3681 19.8798 14.4727 20.9844 14.4727H23.4866C24.5912 14.4727 25.4866 15.3681 25.4866 16.4727V41.5287H18.9844V16.4727Z" fill="#58595A"/>
<path d="M30.5117 29.1367C30.5117 28.0322 31.4071 27.1367 32.5117 27.1367H35.0139C36.1185 27.1367 37.0139 28.0321 37.0139 29.1367V41.5277H30.5117V29.1367Z" fill="#58595A"/>
<path d="M42.0391 21.0664C42.0391 19.9618 42.9345 19.0664 44.0391 19.0664H46.5413C47.6459 19.0664 48.5413 19.9618 48.5413 21.0664V41.5286H42.0391V21.0664Z" fill="#58595A"/>
<rect x="7.45898" y="37.1641" width="6.50223" height="4.36278" fill="#9B9C9C"/>
<rect x="18.9844" y="37.1641" width="6.50223" height="4.36278" fill="#9B9C9C"/>
<rect x="30.5117" y="37.1641" width="6.50223" height="4.36278" fill="#9B9C9C"/>
<rect x="42.0391" y="37.1641" width="6.50223" height="4.36278" fill="#9B9C9C"/>
</svg>
