<svg width="56" height="56" viewBox="0 0 56 56" fill="none" xmlns="http://www.w3.org/2000/svg">
<rect x="1.75" y="1.75" width="52.5" height="52.5" rx="8" fill="#081B68"/>
<path fill-rule="evenodd" clip-rule="evenodd" d="M42.6196 16.5107V39.1546C42.6196 42.0541 40.2691 44.4046 37.3696 44.4046H18.6289C15.7294 44.4046 13.3789 42.0541 13.3789 39.1546L13.3789 16.5106C14.563 16.3912 15.745 16.01 16.9164 15.3669C19.1828 14.1225 21.3848 14.1225 23.6513 15.3669C26.5283 16.9465 29.4701 16.9465 32.3471 15.3669C34.6136 14.1225 36.8156 14.1225 39.082 15.3669C40.2534 16.01 41.4355 16.3913 42.6196 16.5107Z" fill="#1F4CAF"/>
<rect x="13.3789" y="22.1797" width="29.2407" height="7.12715" fill="#3362C2"/>
<path fill-rule="evenodd" clip-rule="evenodd" d="M27.9715 34.9007C27.5373 34.9007 27.1852 34.5487 27.1852 34.1144V33.8046C26.4109 33.6747 25.7692 33.3723 25.2603 32.8973C24.9505 32.6083 24.7124 32.2726 24.5461 31.8903C24.364 31.472 24.6843 31.0398 25.1356 30.9725C25.5507 30.9107 25.9275 31.1892 26.159 31.5393C26.2906 31.7383 26.4565 31.9109 26.6567 32.057C27.0569 32.3493 27.5376 32.4955 28.0988 32.4955C28.6382 32.4955 29.0819 32.3757 29.4299 32.1362C29.778 31.8967 29.952 31.5963 29.952 31.235C29.952 30.9833 29.8693 30.7763 29.704 30.6139C29.5387 30.4515 29.2733 30.3176 28.9079 30.212L26.6436 29.5544C25.3255 29.1769 24.6665 28.4299 24.6665 27.3136C24.6665 26.6316 24.8905 26.0693 25.3386 25.6268C25.791 25.1803 26.4066 24.9043 27.1852 24.7987V24.5011C27.1852 24.0669 27.5373 23.7148 27.9715 23.7148C28.4058 23.7148 28.7578 24.0669 28.7578 24.5011V24.8292C29.4539 24.955 30.0325 25.2311 30.4936 25.6573C30.758 25.8995 30.9747 26.1822 31.1437 26.5056C31.3597 26.919 31.0536 27.3803 30.5938 27.4585C30.1698 27.5306 29.7826 27.2331 29.5233 26.89C29.4252 26.7603 29.3071 26.6437 29.1689 26.5402C28.8209 26.2723 28.3989 26.1323 27.903 26.1201C27.4289 26.112 27.0308 26.2155 26.7089 26.4306C26.387 26.6458 26.226 26.9157 26.226 27.2405C26.226 27.4841 26.3282 27.6911 26.5327 27.8616C26.7415 28.028 27.07 28.1721 27.518 28.2939L29.2081 28.7506C30.0216 28.9739 30.6067 29.2743 30.9634 29.6518C31.3245 30.0253 31.505 30.5205 31.505 31.1376C31.505 31.852 31.2549 32.4488 30.7546 32.9278C30.2587 33.4068 29.5931 33.7052 28.7578 33.8229V34.1144C28.7578 34.5487 28.4058 34.9007 27.9715 34.9007Z" fill="white"/>
<path d="M13.3789 36.4336H42.6196V40.5607C42.6196 42.2176 41.2765 43.5607 39.6196 43.5607H16.3789C14.7221 43.5607 13.3789 42.2176 13.3789 40.5607V36.4336Z" fill="#3362C2"/>
<path d="M12.6523 39.1562V11.5938H14.105V39.1562C14.105 41.6546 16.1303 43.6799 18.6287 43.6799H37.3694C39.8678 43.6799 41.8931 41.6546 41.8931 39.1562V11.5938H43.3457V39.1562C43.3457 42.4568 40.67 45.1326 37.3694 45.1326H18.6287C15.3281 45.1326 12.6523 42.4568 12.6523 39.1562Z" fill="white"/>
</svg>
