<svg width="47" height="45" viewBox="0 0 47 45" fill="none" xmlns="http://www.w3.org/2000/svg">
<path d="M23.4393 22.4078C29.0645 22.4078 33.6246 17.8477 33.6246 12.2225C33.6246 6.59725 29.0645 2.03711 23.4393 2.03711C17.814 2.03711 13.2539 6.59725 13.2539 12.2225C13.2539 17.8477 17.814 22.4078 23.4393 22.4078Z" fill="#FF7D43"/>
<path d="M24.1309 6.37891L23.6992 8.11035C23.9876 8.17617 24.278 8.24209 24.5605 8.3125L24.9893 6.59375L26.0645 6.86133L25.624 8.62695C26.9814 9.09451 27.9743 9.79583 27.7793 11.0996C27.6381 12.054 27.1087 12.5158 26.4062 12.6777C27.3707 13.1799 27.862 13.9503 27.3945 15.2852C26.8143 16.9431 25.4356 17.0832 23.6025 16.7363L23.1572 18.5195L22.082 18.251L22.5215 16.4922C22.2429 16.423 21.9583 16.3491 21.665 16.2695L21.2236 18.0371L20.1504 17.7695L20.5947 15.9834C20.3438 15.9191 20.0891 15.8503 19.8291 15.7852L18.4297 15.4365L18.9639 14.2061C18.9859 14.2119 19.7418 14.4127 19.7451 14.4014C20.0492 14.4764 20.1841 14.2777 20.2373 14.1455L20.9404 11.3271C20.9798 11.3366 21.018 11.3466 21.0537 11.3555C21.011 11.3384 20.9723 11.327 20.9424 11.3193L21.4443 9.30762C21.4575 9.07929 21.3783 8.79141 20.9434 8.68262C20.9587 8.67105 20.1679 8.4896 20.1621 8.48828L20.4482 7.33984L21.9307 7.70996L21.9297 7.71582C22.1525 7.77122 22.3824 7.8237 22.6162 7.87695L23.0566 6.11133L24.1309 6.37891ZM22.0127 14.9766C22.7417 15.1576 24.9888 15.8793 25.3213 14.5449C25.6685 13.1527 23.3313 12.7922 22.6025 12.6104L22.0127 14.9766ZM22.875 11.5273C23.4819 11.6786 25.3531 12.2954 25.6562 11.0811C25.9719 9.81433 24.017 9.53212 23.4102 9.38086L22.875 11.5273Z" fill="white"/>
<rect x="2.03516" y="21.9102" width="20.3667" height="20.3667" rx="10.1833" fill="#3D2D6F"/>
<rect x="6.19141" y="31.2168" width="12.0545" height="2.51547" fill="#7560D0"/>
<rect x="13.2773" y="27.1113" width="8.67963" height="0.786079" transform="rotate(90 13.2773 27.1113)" fill="#7560D0"/>
<rect x="8.20703" y="28.7012" width="9.35842" height="7.54642" fill="#A38CFF"/>
<rect x="17.5664" y="28.7012" width="1.28275" height="8.41062" transform="rotate(90 17.5664 28.7012)" fill="white"/>
<rect x="9.15625" y="36.2461" width="2.10139" height="7.54642" transform="rotate(-180 9.15625 36.2461)" fill="#7560D0"/>
<path d="M16.2814 31.5566C16.2814 31.9847 15.9343 32.3319 15.5061 32.3319C15.0779 32.3319 14.7308 31.9847 14.7308 31.5566C14.7308 31.1284 15.0779 30.7812 15.5061 30.7812C15.9343 30.7812 16.2814 31.1284 16.2814 31.5566Z" fill="#201F67"/>
<path d="M12.4842 31.5566C12.4842 31.9847 12.1371 32.3319 11.7089 32.3319C11.2807 32.3319 10.9336 31.9847 10.9336 31.5566C10.9336 31.1284 11.2807 30.7812 11.7089 30.7812C12.1371 30.7812 12.4842 31.1284 12.4842 31.5566Z" fill="#201F67"/>
<path d="M14.756 33.5336C14.5286 33.9345 14.099 34.2034 13.6071 34.2034C13.1152 34.2034 12.6856 33.9345 12.4582 33.5336L11.6936 33.9673C12.0708 34.6322 12.7861 35.0824 13.6071 35.0824C14.4281 35.0824 15.1434 34.6322 15.5206 33.9673L14.756 33.5336Z" fill="#201F67"/>
<circle cx="12.8844" cy="26.4626" r="1.27116" fill="#7560D0"/>
<circle cx="13.2491" cy="26.0987" r="0.75689" fill="white"/>
<rect x="24.4727" y="21.9102" width="20.3667" height="20.3667" rx="10.1833" fill="#4A3B08"/>
<path d="M34.7751 25.7871L36.5909 29.697L40.8705 30.2157L37.7131 33.1508L38.5423 37.3813L34.7751 35.2854L31.0079 37.3813L31.8371 33.1508L28.6797 30.2157L32.9593 29.697L34.7751 25.7871Z" fill="#FAD75A"/>
<path d="M31.0079 37.3813L34.7751 35.2854V25.7871L32.9593 29.697L28.6797 30.2157L31.8371 33.1508L31.0079 37.3813Z" fill="#BD950D"/>
</svg>
