<svg width="48" height="48" viewBox="0 0 48 48" fill="none" xmlns="http://www.w3.org/2000/svg">
<path d="M8.27015 43.9727C11.6209 43.9727 14.3372 43.1743 14.3372 42.1893V40.1172H2.20312V42.1893C2.20312 43.1743 4.91943 43.9727 8.27015 43.9727Z" fill="#F2A200"/>
<path d="M8.27015 41.8262C11.6209 41.8262 14.3372 41.0278 14.3372 40.0428V37.9707H2.20312V40.0428C2.20312 41.0278 4.91943 41.8262 8.27015 41.8262Z" fill="#FFCA06"/>
<path d="M8.27015 41.2833C11.6209 41.2833 14.3372 40.4848 14.3372 39.4998V37.4277H2.20312V39.4998C2.20312 40.4848 4.91943 41.2833 8.27015 41.2833Z" fill="#F2A200"/>
<path d="M8.27015 39.1329C11.6209 39.1329 14.3372 38.3344 14.3372 37.3495V35.2773H2.20312V37.3495C2.20312 38.3344 4.91943 39.1329 8.27015 39.1329Z" fill="#FFCA06"/>
<path d="M8.27015 38.5899C11.6209 38.5899 14.3372 37.7914 14.3372 36.8065V34.7344H2.20312V36.8065C2.20312 37.7914 4.91943 38.5899 8.27015 38.5899Z" fill="#F2A200"/>
<ellipse cx="8.27015" cy="34.6565" rx="6.06703" ry="1.78343" fill="#FFCA06"/>
<path d="M12.7923 34.6583C12.7923 34.7712 12.7128 34.8799 12.5657 34.9816C11.971 35.3928 10.273 35.6896 8.27117 35.6896C6.2693 35.6896 4.57131 35.3928 3.97665 34.9816C3.82958 34.8799 3.75 34.7712 3.75 34.6583C3.75 34.0887 5.7742 33.627 8.27117 33.627C10.7681 33.627 12.7923 34.0887 12.7923 34.6583Z" fill="#FDD74A"/>
<path fill-rule="evenodd" clip-rule="evenodd" d="M12.5657 34.9816C11.971 35.3928 10.273 35.6896 8.27117 35.6896C6.2693 35.6896 4.57131 35.3928 3.97665 34.9816C4.57131 34.5704 6.2693 34.2736 8.27117 34.2736C10.273 34.2736 11.971 34.5704 12.5657 34.9816Z" fill="#FDD74A"/>
<path fill-rule="evenodd" clip-rule="evenodd" d="M12.5657 34.9816C12.7128 34.8799 12.7923 34.7712 12.7923 34.6583C12.7923 34.0887 10.7681 33.627 8.27117 33.627C5.7742 33.627 3.75 34.0887 3.75 34.6583C3.75 34.7712 3.82958 34.8799 3.97665 34.9816C4.57131 34.5704 6.2693 34.2736 8.27117 34.2736C10.273 34.2736 11.971 34.5704 12.5657 34.9816Z" fill="#ECB41B"/>
<path d="M23.9967 43.9727C27.3474 43.9727 30.0637 43.1743 30.0637 42.1893V40.1172H17.9297V42.1893C17.9297 43.1743 20.646 43.9727 23.9967 43.9727Z" fill="#FFCA06"/>
<path d="M23.9967 43.4259C27.3474 43.4259 30.0637 42.6274 30.0637 41.6424V39.5703H17.9297V41.6424C17.9297 42.6274 20.646 43.4259 23.9967 43.4259Z" fill="#F2A200"/>
<path d="M23.9967 41.2774C27.3474 41.2774 30.0637 40.4789 30.0637 39.494V37.4219H17.9297V39.494C17.9297 40.4789 20.646 41.2774 23.9967 41.2774Z" fill="#FFCA06"/>
<path d="M23.9967 40.7364C27.3474 40.7364 30.0637 39.9379 30.0637 38.953V36.8809H17.9297V38.953C17.9297 39.9379 20.646 40.7364 23.9967 40.7364Z" fill="#F2A200"/>
<path d="M23.9967 38.5899C27.3474 38.5899 30.0637 37.7914 30.0637 36.8065V34.7344H17.9297V36.8065C17.9297 37.7914 20.646 38.5899 23.9967 38.5899Z" fill="#FFCA06"/>
<path d="M23.9967 38.0411C27.3474 38.0411 30.0637 37.2426 30.0637 36.2577V34.1855H17.9297V36.2577C17.9297 37.2426 20.646 38.0411 23.9967 38.0411Z" fill="#F2A200"/>
<path d="M23.9967 35.8946C27.3474 35.8946 30.0637 35.0961 30.0637 34.1112V32.0391H17.9297V34.1112C17.9297 35.0961 20.646 35.8946 23.9967 35.8946Z" fill="#FFCA06"/>
<path d="M23.9967 35.3516C27.3474 35.3516 30.0637 34.5532 30.0637 33.5682V31.4961H17.9297V33.5682C17.9297 34.5532 20.646 35.3516 23.9967 35.3516Z" fill="#F2A200"/>
<path d="M23.9967 33.2012C27.3474 33.2012 30.0637 32.4028 30.0637 31.4178V29.3457H17.9297V31.4178C17.9297 32.4028 20.646 33.2012 23.9967 33.2012Z" fill="#FFCA06"/>
<path d="M23.9967 32.6583C27.3474 32.6583 30.0637 31.8598 30.0637 30.8748V28.8027H17.9297V30.8748C17.9297 31.8598 20.646 32.6583 23.9967 32.6583Z" fill="#F2A200"/>
<ellipse cx="23.9967" cy="28.7248" rx="6.06703" ry="1.78343" fill="#FFCA06"/>
<path d="M28.5228 28.7267C28.5228 28.8396 28.4432 28.9483 28.2962 29.05C27.7015 29.4612 26.0035 29.758 24.0016 29.758C21.9998 29.758 20.3018 29.4612 19.7071 29.05C19.5601 28.9483 19.4805 28.8396 19.4805 28.7267C19.4805 28.1571 21.5047 27.6953 24.0016 27.6953C26.4986 27.6953 28.5228 28.1571 28.5228 28.7267Z" fill="#FDD74A"/>
<path fill-rule="evenodd" clip-rule="evenodd" d="M28.2962 29.05C27.7015 29.4612 26.0035 29.758 24.0016 29.758C21.9998 29.758 20.3018 29.4612 19.7071 29.05C20.3018 28.6388 21.9998 28.342 24.0016 28.342C26.0035 28.342 27.7015 28.6388 28.2962 29.05Z" fill="#FDD74A"/>
<path fill-rule="evenodd" clip-rule="evenodd" d="M28.2962 29.05C28.4432 28.9483 28.5228 28.8396 28.5228 28.7267C28.5228 28.1571 26.4986 27.6953 24.0016 27.6953C21.5047 27.6953 19.4805 28.1571 19.4805 28.7267C19.4805 28.8396 19.5601 28.9483 19.7071 29.05C20.3018 28.6388 21.9998 28.342 24.0016 28.342C26.0035 28.342 27.7015 28.6388 28.2962 29.05Z" fill="#ECB41B"/>
<path d="M39.7311 43.9727C43.0818 43.9727 45.7981 43.1743 45.7981 42.1893V40.1172H33.6641V42.1893C33.6641 43.1743 36.3804 43.9727 39.7311 43.9727Z" fill="#F2A200"/>
<path d="M39.7311 41.8262C43.0818 41.8262 45.7981 41.0278 45.7981 40.0428V37.9707H33.6641V40.0428C33.6641 41.0278 36.3804 41.8262 39.7311 41.8262Z" fill="#FFCA06"/>
<path d="M39.7311 41.2774C43.0818 41.2774 45.7981 40.4789 45.7981 39.494V37.4219H33.6641V39.494C33.6641 40.4789 36.3804 41.2774 39.7311 41.2774Z" fill="#F2A200"/>
<path d="M39.7311 39.1309C43.0818 39.1309 45.7981 38.3325 45.7981 37.3475V35.2754H33.6641V37.3475C33.6641 38.3325 36.3804 39.1309 39.7311 39.1309Z" fill="#FFCA06"/>
<path d="M39.7311 38.5899C43.0818 38.5899 45.7981 37.7914 45.7981 36.8065V34.7344H33.6641V36.8065C33.6641 37.7914 36.3804 38.5899 39.7311 38.5899Z" fill="#F2A200"/>
<path d="M39.7311 36.4434C43.0818 36.4434 45.7981 35.645 45.7981 34.66V32.5879H33.6641V34.66C33.6641 35.645 36.3804 36.4434 39.7311 36.4434Z" fill="#FFCA06"/>
<path d="M39.7311 35.8946C43.0818 35.8946 45.7981 35.0961 45.7981 34.1112V32.0391H33.6641V34.1112C33.6641 35.0961 36.3804 35.8946 39.7311 35.8946Z" fill="#F2A200"/>
<path d="M39.7311 33.7481C43.0818 33.7481 45.7981 32.9497 45.7981 31.9647V29.8926H33.6641V31.9647C33.6641 32.9497 36.3804 33.7481 39.7311 33.7481Z" fill="#FFCA06"/>
<path d="M39.7311 33.1993C43.0818 33.1993 45.7981 32.4008 45.7981 31.4159V29.3438H33.6641V31.4159C33.6641 32.4008 36.3804 33.1993 39.7311 33.1993Z" fill="#F2A200"/>
<path d="M39.7311 31.0528C43.0818 31.0528 45.7981 30.2543 45.7981 29.2694V27.1973H33.6641V29.2694C33.6641 30.2543 36.3804 31.0528 39.7311 31.0528Z" fill="#FFCA06"/>
<path d="M39.7311 30.5118C43.0818 30.5118 45.7981 29.7133 45.7981 28.7284V26.6562H33.6641V28.7284C33.6641 29.7133 36.3804 30.5118 39.7311 30.5118Z" fill="#F2A200"/>
<path d="M39.7311 28.3634C43.0818 28.3634 45.7981 27.5649 45.7981 26.5799V24.5078H33.6641V26.5799C33.6641 27.5649 36.3804 28.3634 39.7311 28.3634Z" fill="#FFCA06"/>
<path d="M39.7311 27.8165C43.0818 27.8165 45.7981 27.018 45.7981 26.033V23.9609H33.6641V26.033C33.6641 27.018 36.3804 27.8165 39.7311 27.8165Z" fill="#F2A200"/>
<path d="M39.7311 25.668C43.0818 25.668 45.7981 24.8696 45.7981 23.8846V21.8125H33.6641V23.8846C33.6641 24.8696 36.3804 25.668 39.7311 25.668Z" fill="#FFCA06"/>
<path d="M39.7311 25.1251C43.0818 25.1251 45.7981 24.3266 45.7981 23.3416V21.2695H33.6641V23.3416C33.6641 24.3266 36.3804 25.1251 39.7311 25.1251Z" fill="#F2A200"/>
<path d="M39.7311 22.9766C43.0818 22.9766 45.7981 22.1782 45.7981 21.1932V19.1211H33.6641V21.1932C33.6641 22.1782 36.3804 22.9766 39.7311 22.9766Z" fill="#FFCA06"/>
<path d="M39.7311 22.4317C43.0818 22.4317 45.7981 21.6332 45.7981 20.6483V18.5762H33.6641V20.6483C33.6641 21.6332 36.3804 22.4317 39.7311 22.4317Z" fill="#F2A200"/>
<ellipse cx="39.7311" cy="18.4983" rx="6.06703" ry="1.78343" fill="#FFCA06"/>
<path d="M44.2494 18.502C44.2494 18.615 44.1698 18.7237 44.0227 18.8254C43.4281 19.2366 41.7301 19.5334 39.7282 19.5334C37.7263 19.5334 36.0283 19.2366 35.4337 18.8254C35.2866 18.7237 35.207 18.615 35.207 18.502C35.207 17.9324 37.2312 17.4707 39.7282 17.4707C42.2252 17.4707 44.2494 17.9324 44.2494 18.502Z" fill="#FDD74A"/>
<path fill-rule="evenodd" clip-rule="evenodd" d="M44.0227 18.8254C43.4281 19.2366 41.7301 19.5334 39.7282 19.5334C37.7263 19.5334 36.0283 19.2366 35.4337 18.8254C36.0283 18.4142 37.7263 18.1174 39.7282 18.1174C41.7301 18.1174 43.4281 18.4142 44.0227 18.8254Z" fill="#FDD74A"/>
<path fill-rule="evenodd" clip-rule="evenodd" d="M44.0227 18.8254C44.1698 18.7237 44.2494 18.615 44.2494 18.502C44.2494 17.9324 42.2252 17.4707 39.7282 17.4707C37.2312 17.4707 35.207 17.9324 35.207 18.502C35.207 18.615 35.2866 18.7237 35.4337 18.8254C36.0283 18.4142 37.7263 18.1174 39.7282 18.1174C41.7301 18.1174 43.4281 18.4142 44.0227 18.8254Z" fill="#ECB41B"/>
<path d="M2.63281 29.1257C5.88157 28.0965 9.49479 26.78 13.4694 25.0986C27.4026 19.2047 36.8945 10.9623 41.8135 5.93945" stroke="white"/>
<path d="M42.8908 7.58443C44.3903 7.58443 45.6059 6.36885 45.6059 4.86936C45.6059 3.36987 44.3903 2.1543 42.8908 2.1543C41.3914 2.1543 40.1758 3.36987 40.1758 4.86936C40.1758 6.36885 41.3914 7.58443 42.8908 7.58443Z" fill="#40E4B3"/>
</svg>
