<svg width="40" height="40" viewBox="0 0 40 40" fill="none" xmlns="http://www.w3.org/2000/svg">
<path d="M6.88984 36.6446C9.68211 36.6446 11.9457 35.9792 11.9457 35.1584V33.4316H1.83398V35.1584C1.83398 35.9792 4.09757 36.6446 6.88984 36.6446Z" fill="#F2A200"/>
<path d="M6.88984 34.8555C9.68211 34.8555 11.9457 34.1901 11.9457 33.3693V31.6426H1.83398V33.3693C1.83398 34.1901 4.09757 34.8555 6.88984 34.8555Z" fill="#FFCA06"/>
<path d="M6.88984 34.4024C9.68211 34.4024 11.9457 33.737 11.9457 32.9162V31.1895H1.83398V32.9162C1.83398 33.737 4.09757 34.4024 6.88984 34.4024Z" fill="#F2A200"/>
<path d="M6.88984 32.6114C9.68211 32.6114 11.9457 31.946 11.9457 31.1252V29.3984H1.83398V31.1252C1.83398 31.946 4.09757 32.6114 6.88984 32.6114Z" fill="#FFCA06"/>
<path d="M6.88984 32.1583C9.68211 32.1583 11.9457 31.4929 11.9457 30.6721V28.9453H1.83398V30.6721C1.83398 31.4929 4.09757 32.1583 6.88984 32.1583Z" fill="#F2A200"/>
<ellipse cx="6.88984" cy="28.8807" rx="5.05586" ry="1.48619" fill="#FFCA06"/>
<path d="M10.6583 28.8829C10.6583 28.977 10.592 29.0676 10.4695 29.1523C9.97391 29.495 8.55892 29.7423 6.89069 29.7423C5.22247 29.7423 3.80747 29.495 3.31193 29.1523C3.18937 29.0676 3.12305 28.977 3.12305 28.8829C3.12305 28.4082 4.80988 28.0234 6.89069 28.0234C8.9715 28.0234 10.6583 28.4082 10.6583 28.8829Z" fill="#FDD74A"/>
<path fill-rule="evenodd" clip-rule="evenodd" d="M10.4695 29.1523C9.97391 29.495 8.55892 29.7423 6.89069 29.7423C5.22247 29.7423 3.80747 29.495 3.31193 29.1523C3.80747 28.8097 5.22247 28.5623 6.89069 28.5623C8.55892 28.5623 9.97391 28.8097 10.4695 29.1523Z" fill="#FDD74A"/>
<path fill-rule="evenodd" clip-rule="evenodd" d="M10.4695 29.1523C10.592 29.0676 10.6583 28.977 10.6583 28.8829C10.6583 28.4082 8.9715 28.0234 6.89069 28.0234C4.80988 28.0234 3.12305 28.4082 3.12305 28.8829C3.12305 28.977 3.18937 29.0676 3.31193 29.1523C3.80747 28.8097 5.22247 28.5623 6.89069 28.5623C8.55892 28.5623 9.97391 28.8097 10.4695 29.1523Z" fill="#ECB41B"/>
<path d="M19.9992 36.6446C22.7915 36.6446 25.0551 35.9792 25.0551 35.1584V33.4316H14.9434V35.1584C14.9434 35.9792 17.2069 36.6446 19.9992 36.6446Z" fill="#FFCA06"/>
<path d="M19.9992 36.1876C22.7915 36.1876 25.0551 35.5222 25.0551 34.7014V32.9746H14.9434V34.7014C14.9434 35.5222 17.2069 36.1876 19.9992 36.1876Z" fill="#F2A200"/>
<path d="M19.9992 34.3985C22.7915 34.3985 25.0551 33.7331 25.0551 32.9123V31.1855H14.9434V32.9123C14.9434 33.7331 17.2069 34.3985 19.9992 34.3985Z" fill="#FFCA06"/>
<path d="M19.9992 33.9473C22.7915 33.9473 25.0551 33.2819 25.0551 32.4611V30.7344H14.9434V32.4611C14.9434 33.2819 17.2069 33.9473 19.9992 33.9473Z" fill="#F2A200"/>
<path d="M19.9992 32.1583C22.7915 32.1583 25.0551 31.4929 25.0551 30.6721V28.9453H14.9434V30.6721C14.9434 31.4929 17.2069 32.1583 19.9992 32.1583Z" fill="#FFCA06"/>
<path d="M19.9992 31.7012C22.7915 31.7012 25.0551 31.0358 25.0551 30.215V28.4883H14.9434V30.215C14.9434 31.0358 17.2069 31.7012 19.9992 31.7012Z" fill="#F2A200"/>
<path d="M19.9992 29.9122C22.7915 29.9122 25.0551 29.2468 25.0551 28.426V26.6992H14.9434V28.426C14.9434 29.2468 17.2069 29.9122 19.9992 29.9122Z" fill="#FFCA06"/>
<path d="M19.9992 29.459C22.7915 29.459 25.0551 28.7937 25.0551 27.9729V26.2461H14.9434V27.9729C14.9434 28.7937 17.2069 29.459 19.9992 29.459Z" fill="#F2A200"/>
<path d="M19.9992 27.668C22.7915 27.668 25.0551 27.0026 25.0551 26.1818V24.4551H14.9434V26.1818C14.9434 27.0026 17.2069 27.668 19.9992 27.668Z" fill="#FFCA06"/>
<path d="M19.9992 27.2149C22.7915 27.2149 25.0551 26.5495 25.0551 25.7287V24.002H14.9434V25.7287C14.9434 26.5495 17.2069 27.2149 19.9992 27.2149Z" fill="#F2A200"/>
<ellipse cx="19.9992" cy="23.9374" rx="5.05586" ry="1.48619" fill="#FFCA06"/>
<path d="M23.7697 23.9395C23.7697 24.0336 23.7033 24.1242 23.5808 24.209C23.0852 24.5517 21.6702 24.799 20.002 24.799C18.3338 24.799 16.9188 24.5517 16.4233 24.209C16.3007 24.1242 16.2344 24.0336 16.2344 23.9395C16.2344 23.4649 17.9212 23.0801 20.002 23.0801C22.0828 23.0801 23.7697 23.4649 23.7697 23.9395Z" fill="#FDD74A"/>
<path fill-rule="evenodd" clip-rule="evenodd" d="M23.5808 24.209C23.0852 24.5517 21.6702 24.799 20.002 24.799C18.3338 24.799 16.9188 24.5517 16.4233 24.209C16.9188 23.8663 18.3338 23.619 20.002 23.619C21.6702 23.619 23.0852 23.8663 23.5808 24.209Z" fill="#FDD74A"/>
<path fill-rule="evenodd" clip-rule="evenodd" d="M23.5808 24.209C23.7033 24.1242 23.7697 24.0336 23.7697 23.9395C23.7697 23.4649 22.0828 23.0801 20.002 23.0801C17.9212 23.0801 16.2344 23.4649 16.2344 23.9395C16.2344 24.0336 16.3007 24.1242 16.4233 24.209C16.9188 23.8663 18.3338 23.619 20.002 23.619C21.6702 23.619 23.0852 23.8663 23.5808 24.209Z" fill="#ECB41B"/>
<path d="M33.1086 36.6446C35.9009 36.6446 38.1644 35.9792 38.1644 35.1584V33.4316H28.0527V35.1584C28.0527 35.9792 30.3163 36.6446 33.1086 36.6446Z" fill="#F2A200"/>
<path d="M33.1086 34.8555C35.9009 34.8555 38.1644 34.1901 38.1644 33.3693V31.6426H28.0527V33.3693C28.0527 34.1901 30.3163 34.8555 33.1086 34.8555Z" fill="#FFCA06"/>
<path d="M33.1086 34.3985C35.9009 34.3985 38.1644 33.7331 38.1644 32.9123V31.1855H28.0527V32.9123C28.0527 33.7331 30.3163 34.3985 33.1086 34.3985Z" fill="#F2A200"/>
<path d="M33.1086 32.6094C35.9009 32.6094 38.1644 31.944 38.1644 31.1232V29.3965H28.0527V31.1232C28.0527 31.944 30.3163 32.6094 33.1086 32.6094Z" fill="#FFCA06"/>
<path d="M33.1086 32.1583C35.9009 32.1583 38.1644 31.4929 38.1644 30.6721V28.9453H28.0527V30.6721C28.0527 31.4929 30.3163 32.1583 33.1086 32.1583Z" fill="#F2A200"/>
<path d="M33.1086 30.3692C35.9009 30.3692 38.1644 29.7038 38.1644 28.883V27.1562H28.0527V28.883C28.0527 29.7038 30.3163 30.3692 33.1086 30.3692Z" fill="#FFCA06"/>
<path d="M33.1086 29.9122C35.9009 29.9122 38.1644 29.2468 38.1644 28.426V26.6992H28.0527V28.426C28.0527 29.2468 30.3163 29.9122 33.1086 29.9122Z" fill="#F2A200"/>
<path d="M33.1086 28.1231C35.9009 28.1231 38.1644 27.4577 38.1644 26.6369V24.9102H28.0527V26.6369C28.0527 27.4577 30.3163 28.1231 33.1086 28.1231Z" fill="#FFCA06"/>
<path d="M33.1086 27.6661C35.9009 27.6661 38.1644 27.0007 38.1644 26.1799V24.4531H28.0527V26.1799C28.0527 27.0007 30.3163 27.6661 33.1086 27.6661Z" fill="#F2A200"/>
<path d="M33.1086 25.877C35.9009 25.877 38.1644 25.2116 38.1644 24.3908V22.6641H28.0527V24.3908C28.0527 25.2116 30.3163 25.877 33.1086 25.877Z" fill="#FFCA06"/>
<path d="M33.1086 25.4258C35.9009 25.4258 38.1644 24.7605 38.1644 23.9396V22.2129H28.0527V23.9396C28.0527 24.7605 30.3163 25.4258 33.1086 25.4258Z" fill="#F2A200"/>
<path d="M33.1086 23.6368C35.9009 23.6368 38.1644 22.9714 38.1644 22.1506V20.4238H28.0527V22.1506C28.0527 22.9714 30.3163 23.6368 33.1086 23.6368Z" fill="#FFCA06"/>
<path d="M33.1086 23.1797C35.9009 23.1797 38.1644 22.5144 38.1644 21.6936V19.9668H28.0527V21.6936C28.0527 22.5144 30.3163 23.1797 33.1086 23.1797Z" fill="#F2A200"/>
<path d="M33.1086 21.3907C35.9009 21.3907 38.1644 20.7253 38.1644 19.9045V18.1777H28.0527V19.9045C28.0527 20.7253 30.3163 21.3907 33.1086 21.3907Z" fill="#FFCA06"/>
<path d="M33.1086 20.9376C35.9009 20.9376 38.1644 20.2722 38.1644 19.4514V17.7246H28.0527V19.4514C28.0527 20.2722 30.3163 20.9376 33.1086 20.9376Z" fill="#F2A200"/>
<path d="M33.1086 19.1465C35.9009 19.1465 38.1644 18.4812 38.1644 17.6604V15.9336H28.0527V17.6604C28.0527 18.4812 30.3163 19.1465 33.1086 19.1465Z" fill="#FFCA06"/>
<path d="M33.1086 18.6934C35.9009 18.6934 38.1644 18.028 38.1644 17.2072V15.4805H28.0527V17.2072C28.0527 18.028 30.3163 18.6934 33.1086 18.6934Z" fill="#F2A200"/>
<ellipse cx="33.1086" cy="15.4159" rx="5.05586" ry="1.48619" fill="#FFCA06"/>
<path d="M36.8732 15.418C36.8732 15.5122 36.8069 15.6027 36.6843 15.6875C36.1888 16.0302 34.7738 16.2775 33.1055 16.2775C31.4373 16.2775 30.0223 16.0302 29.5268 15.6875C29.4042 15.6027 29.3379 15.5122 29.3379 15.418C29.3379 14.9434 31.0247 14.5586 33.1055 14.5586C35.1863 14.5586 36.8732 14.9434 36.8732 15.418Z" fill="#FDD74A"/>
<path fill-rule="evenodd" clip-rule="evenodd" d="M36.6843 15.6875C36.1888 16.0302 34.7738 16.2775 33.1055 16.2775C31.4373 16.2775 30.0223 16.0302 29.5268 15.6875C30.0223 15.3448 31.4373 15.0975 33.1055 15.0975C34.7738 15.0975 36.1888 15.3448 36.6843 15.6875Z" fill="#FDD74A"/>
<path fill-rule="evenodd" clip-rule="evenodd" d="M36.6843 15.6875C36.8069 15.6027 36.8732 15.5122 36.8732 15.418C36.8732 14.9434 35.1863 14.5586 33.1055 14.5586C31.0247 14.5586 29.3379 14.9434 29.3379 15.418C29.3379 15.5122 29.4042 15.6027 29.5268 15.6875C30.0223 15.3448 31.4373 15.0975 33.1055 15.0975C34.7738 15.0975 36.1888 15.3448 36.6843 15.6875Z" fill="#ECB41B"/>
<path d="M2.19336 24.2711C4.90065 23.4134 7.91167 22.3163 11.2239 20.9152C22.8349 16.0036 30.7448 9.13494 34.8439 4.94922" stroke="white"/>
<path d="M35.7411 6.32003C36.9906 6.32003 38.0036 5.30705 38.0036 4.05748C38.0036 2.8079 36.9906 1.79492 35.7411 1.79492C34.4915 1.79492 33.4785 2.8079 33.4785 4.05748C33.4785 5.30705 34.4915 6.32003 35.7411 6.32003Z" fill="#40E4B3"/>
</svg>
