<svg width="299" height="177" viewBox="0 0 299 177" fill="none" xmlns="http://www.w3.org/2000/svg">
<path d="M0 150.078H262" stroke="#3C4248"/>
<path d="M261.504 0L261.504 150.582" stroke="#3C4248"/>
<path d="M2.60938 116.211C12.5669 116.211 12.5669 128.933 22.5244 128.933C32.4819 128.933 32.4819 122.792 42.4393 122.792C52.3968 122.792 52.3968 123.669 62.3543 123.669C72.3118 123.669 72.3118 126.74 82.2693 126.74C92.2268 126.74 92.2268 125.863 102.184 125.863C112.142 125.863 112.142 124.546 122.099 124.546C132.057 124.546 132.057 121.475 142.014 121.475C151.972 121.475 151.972 117.527 161.929 117.527C171.887 117.527 171.887 112.701 181.844 112.701C191.802 112.701 191.802 119.282 201.759 119.282C211.717 119.282 211.717 117.088 221.674 117.088C231.632 117.088 231.632 115.333 241.589 115.333C251.547 115.333 251.547 114.895 261.504 114.895" stroke="#275CFD" stroke-width="2" stroke-linecap="round"/>
<path d="M1.48828 114.878C11.4889 114.878 11.4889 96.2242 21.4895 96.2242C31.4901 96.2242 31.4901 103.943 41.4907 103.943C51.4913 103.943 51.4913 86.5755 61.4919 86.5755C71.4925 86.5755 71.4925 100.727 81.4931 100.727C91.4937 100.727 91.4937 112.949 101.494 112.949C111.495 112.949 111.495 104.586 121.495 104.586C131.496 104.586 131.496 107.803 141.497 107.803C151.497 107.803 151.497 112.949 161.498 112.949C171.498 112.949 171.498 102.013 181.499 102.013C191.5 102.013 191.5 81.4295 201.5 81.4295C211.501 81.4295 211.501 65.9915 221.501 65.9915C231.502 65.9915 231.502 46.0508 241.503 46.0508C251.503 46.0508 251.503 52.1616 261.504 52.1616M261.504 52.1616V52.1616Z" stroke="#8FB8FF" stroke-width="2" stroke-linecap="round"/>
<circle cx="261.504" cy="52.293" r="4" fill="#8FB8FF"/>
<path d="M0.988281 168.495L0.993281 167.565L4.12828 164.755C4.38161 164.532 4.55328 164.318 4.64328 164.115C4.73661 163.912 4.78328 163.708 4.78328 163.505C4.78328 163.248 4.72661 163.018 4.61328 162.815C4.49995 162.608 4.34328 162.445 4.14328 162.325C3.94328 162.205 3.71328 162.145 3.45328 162.145C3.18661 162.145 2.94828 162.208 2.73828 162.335C2.53161 162.458 2.36995 162.623 2.25328 162.83C2.13661 163.037 2.07995 163.26 2.08328 163.5H1.01328C1.01328 163.033 1.11828 162.625 1.32828 162.275C1.54161 161.922 1.83328 161.647 2.20328 161.45C2.57328 161.25 2.99661 161.15 3.47328 161.15C3.92661 161.15 4.33328 161.253 4.69328 161.46C5.05328 161.663 5.33661 161.943 5.54328 162.3C5.75328 162.657 5.85828 163.063 5.85828 163.52C5.85828 163.85 5.81495 164.13 5.72828 164.36C5.64161 164.59 5.51161 164.803 5.33828 165C5.16495 165.197 4.94828 165.41 4.68828 165.64L2.26828 167.8L2.15328 167.5H5.85828V168.495H0.988281ZM9.56742 168.65C9.07742 168.65 8.64409 168.543 8.26742 168.33C7.89076 168.113 7.59409 167.817 7.37742 167.44C7.16409 167.063 7.05742 166.63 7.05742 166.14V163.66C7.05742 163.17 7.16409 162.737 7.37742 162.36C7.59409 161.983 7.89076 161.688 8.26742 161.475C8.64409 161.258 9.07742 161.15 9.56742 161.15C10.0574 161.15 10.4908 161.258 10.8674 161.475C11.2441 161.688 11.5391 161.983 11.7524 162.36C11.9691 162.737 12.0774 163.17 12.0774 163.66V166.14C12.0774 166.63 11.9691 167.063 11.7524 167.44C11.5391 167.817 11.2441 168.113 10.8674 168.33C10.4908 168.543 10.0574 168.65 9.56742 168.65ZM9.56742 167.65C9.83409 167.65 10.0758 167.587 10.2924 167.46C10.5124 167.33 10.6874 167.157 10.8174 166.94C10.9474 166.72 11.0124 166.475 11.0124 166.205V163.585C11.0124 163.318 10.9474 163.077 10.8174 162.86C10.6874 162.64 10.5124 162.467 10.2924 162.34C10.0758 162.21 9.83409 162.145 9.56742 162.145C9.30076 162.145 9.05742 162.21 8.83742 162.34C8.62076 162.467 8.44742 162.64 8.31742 162.86C8.18742 163.077 8.12242 163.318 8.12242 163.585V166.205C8.12242 166.475 8.18742 166.72 8.31742 166.94C8.44742 167.157 8.62076 167.33 8.83742 167.46C9.05742 167.587 9.30076 167.65 9.56742 167.65ZM13.2734 168.495L13.2784 167.565L16.4134 164.755C16.6668 164.532 16.8384 164.318 16.9284 164.115C17.0218 163.912 17.0684 163.708 17.0684 163.505C17.0684 163.248 17.0118 163.018 16.8984 162.815C16.7851 162.608 16.6284 162.445 16.4284 162.325C16.2284 162.205 15.9984 162.145 15.7384 162.145C15.4718 162.145 15.2334 162.208 15.0234 162.335C14.8168 162.458 14.6551 162.623 14.5384 162.83C14.4218 163.037 14.3651 163.26 14.3684 163.5H13.2984C13.2984 163.033 13.4034 162.625 13.6134 162.275C13.8268 161.922 14.1184 161.647 14.4884 161.45C14.8584 161.25 15.2818 161.15 15.7584 161.15C16.2118 161.15 16.6184 161.253 16.9784 161.46C17.3384 161.663 17.6218 161.943 17.8284 162.3C18.0384 162.657 18.1434 163.063 18.1434 163.52C18.1434 163.85 18.1001 164.13 18.0134 164.36C17.9268 164.59 17.7968 164.803 17.6234 165C17.4501 165.197 17.2334 165.41 16.9734 165.64L14.5534 167.8L14.4384 167.5H18.1434V168.495H13.2734ZM20.5976 168.5V162.45L19.2426 163.275V162.11L20.5976 161.3H21.6626V168.5H20.5976Z" fill="#58595A"/>
<path d="M60.9922 168.495L60.9972 167.565L64.1322 164.755C64.3855 164.532 64.5572 164.318 64.6472 164.115C64.7405 163.912 64.7872 163.708 64.7872 163.505C64.7872 163.248 64.7305 163.018 64.6172 162.815C64.5039 162.608 64.3472 162.445 64.1472 162.325C63.9472 162.205 63.7172 162.145 63.4572 162.145C63.1905 162.145 62.9522 162.208 62.7422 162.335C62.5355 162.458 62.3739 162.623 62.2572 162.83C62.1405 163.037 62.0839 163.26 62.0872 163.5H61.0172C61.0172 163.033 61.1222 162.625 61.3322 162.275C61.5455 161.922 61.8372 161.647 62.2072 161.45C62.5772 161.25 63.0005 161.15 63.4772 161.15C63.9305 161.15 64.3372 161.253 64.6972 161.46C65.0572 161.663 65.3405 161.943 65.5472 162.3C65.7572 162.657 65.8622 163.063 65.8622 163.52C65.8622 163.85 65.8189 164.13 65.7322 164.36C65.6455 164.59 65.5155 164.803 65.3422 165C65.1689 165.197 64.9522 165.41 64.6922 165.64L62.2722 167.8L62.1572 167.5H65.8622V168.495H60.9922ZM69.5713 168.65C69.0813 168.65 68.648 168.543 68.2713 168.33C67.8947 168.113 67.598 167.817 67.3813 167.44C67.168 167.063 67.0613 166.63 67.0613 166.14V163.66C67.0613 163.17 67.168 162.737 67.3813 162.36C67.598 161.983 67.8947 161.688 68.2713 161.475C68.648 161.258 69.0813 161.15 69.5713 161.15C70.0613 161.15 70.4947 161.258 70.8713 161.475C71.248 161.688 71.543 161.983 71.7563 162.36C71.973 162.737 72.0813 163.17 72.0813 163.66V166.14C72.0813 166.63 71.973 167.063 71.7563 167.44C71.543 167.817 71.248 168.113 70.8713 168.33C70.4947 168.543 70.0613 168.65 69.5713 168.65ZM69.5713 167.65C69.838 167.65 70.0797 167.587 70.2963 167.46C70.5163 167.33 70.6913 167.157 70.8213 166.94C70.9513 166.72 71.0163 166.475 71.0163 166.205V163.585C71.0163 163.318 70.9513 163.077 70.8213 162.86C70.6913 162.64 70.5163 162.467 70.2963 162.34C70.0797 162.21 69.838 162.145 69.5713 162.145C69.3047 162.145 69.0613 162.21 68.8413 162.34C68.6247 162.467 68.4513 162.64 68.3213 162.86C68.1913 163.077 68.1263 163.318 68.1263 163.585V166.205C68.1263 166.475 68.1913 166.72 68.3213 166.94C68.4513 167.157 68.6247 167.33 68.8413 167.46C69.0613 167.587 69.3047 167.65 69.5713 167.65ZM73.2773 168.495L73.2823 167.565L76.4173 164.755C76.6707 164.532 76.8423 164.318 76.9323 164.115C77.0257 163.912 77.0723 163.708 77.0723 163.505C77.0723 163.248 77.0157 163.018 76.9023 162.815C76.789 162.608 76.6323 162.445 76.4323 162.325C76.2323 162.205 76.0023 162.145 75.7423 162.145C75.4757 162.145 75.2373 162.208 75.0273 162.335C74.8207 162.458 74.659 162.623 74.5423 162.83C74.4257 163.037 74.369 163.26 74.3723 163.5H73.3023C73.3023 163.033 73.4073 162.625 73.6173 162.275C73.8307 161.922 74.1223 161.647 74.4923 161.45C74.8623 161.25 75.2857 161.15 75.7623 161.15C76.2157 161.15 76.6223 161.253 76.9823 161.46C77.3423 161.663 77.6257 161.943 77.8323 162.3C78.0423 162.657 78.1473 163.063 78.1473 163.52C78.1473 163.85 78.104 164.13 78.0173 164.36C77.9307 164.59 77.8007 164.803 77.6273 165C77.454 165.197 77.2373 165.41 76.9773 165.64L74.5573 167.8L74.4423 167.5H78.1473V168.495H73.2773ZM79.1465 168.495L79.1515 167.565L82.2865 164.755C82.5398 164.532 82.7115 164.318 82.8015 164.115C82.8948 163.912 82.9415 163.708 82.9415 163.505C82.9415 163.248 82.8848 163.018 82.7715 162.815C82.6582 162.608 82.5015 162.445 82.3015 162.325C82.1015 162.205 81.8715 162.145 81.6115 162.145C81.3448 162.145 81.1065 162.208 80.8965 162.335C80.6898 162.458 80.5282 162.623 80.4115 162.83C80.2948 163.037 80.2382 163.26 80.2415 163.5H79.1715C79.1715 163.033 79.2765 162.625 79.4865 162.275C79.6998 161.922 79.9915 161.647 80.3615 161.45C80.7315 161.25 81.1548 161.15 81.6315 161.15C82.0848 161.15 82.4915 161.253 82.8515 161.46C83.2115 161.663 83.4948 161.943 83.7015 162.3C83.9115 162.657 84.0165 163.063 84.0165 163.52C84.0165 163.85 83.9732 164.13 83.8865 164.36C83.7998 164.59 83.6698 164.803 83.4965 165C83.3232 165.197 83.1065 165.41 82.8465 165.64L80.4265 167.8L80.3115 167.5H84.0165V168.495H79.1465Z" fill="#58595A"/>
<path d="M120.994 168.495L120.999 167.565L124.134 164.755C124.387 164.532 124.559 164.318 124.649 164.115C124.742 163.912 124.789 163.708 124.789 163.505C124.789 163.248 124.732 163.018 124.619 162.815C124.506 162.608 124.349 162.445 124.149 162.325C123.949 162.205 123.719 162.145 123.459 162.145C123.192 162.145 122.954 162.208 122.744 162.335C122.537 162.458 122.376 162.623 122.259 162.83C122.142 163.037 122.086 163.26 122.089 163.5H121.019C121.019 163.033 121.124 162.625 121.334 162.275C121.547 161.922 121.839 161.647 122.209 161.45C122.579 161.25 123.002 161.15 123.479 161.15C123.932 161.15 124.339 161.253 124.699 161.46C125.059 161.663 125.342 161.943 125.549 162.3C125.759 162.657 125.864 163.063 125.864 163.52C125.864 163.85 125.821 164.13 125.734 164.36C125.647 164.59 125.517 164.803 125.344 165C125.171 165.197 124.954 165.41 124.694 165.64L122.274 167.8L122.159 167.5H125.864V168.495H120.994ZM129.573 168.65C129.083 168.65 128.65 168.543 128.273 168.33C127.897 168.113 127.6 167.817 127.383 167.44C127.17 167.063 127.063 166.63 127.063 166.14V163.66C127.063 163.17 127.17 162.737 127.383 162.36C127.6 161.983 127.897 161.688 128.273 161.475C128.65 161.258 129.083 161.15 129.573 161.15C130.063 161.15 130.497 161.258 130.873 161.475C131.25 161.688 131.545 161.983 131.758 162.36C131.975 162.737 132.083 163.17 132.083 163.66V166.14C132.083 166.63 131.975 167.063 131.758 167.44C131.545 167.817 131.25 168.113 130.873 168.33C130.497 168.543 130.063 168.65 129.573 168.65ZM129.573 167.65C129.84 167.65 130.082 167.587 130.298 167.46C130.518 167.33 130.693 167.157 130.823 166.94C130.953 166.72 131.018 166.475 131.018 166.205V163.585C131.018 163.318 130.953 163.077 130.823 162.86C130.693 162.64 130.518 162.467 130.298 162.34C130.082 162.21 129.84 162.145 129.573 162.145C129.307 162.145 129.063 162.21 128.843 162.34C128.627 162.467 128.453 162.64 128.323 162.86C128.193 163.077 128.128 163.318 128.128 163.585V166.205C128.128 166.475 128.193 166.72 128.323 166.94C128.453 167.157 128.627 167.33 128.843 167.46C129.063 167.587 129.307 167.65 129.573 167.65ZM133.279 168.495L133.284 167.565L136.419 164.755C136.673 164.532 136.844 164.318 136.934 164.115C137.028 163.912 137.074 163.708 137.074 163.505C137.074 163.248 137.018 163.018 136.904 162.815C136.791 162.608 136.634 162.445 136.434 162.325C136.234 162.205 136.004 162.145 135.744 162.145C135.478 162.145 135.239 162.208 135.029 162.335C134.823 162.458 134.661 162.623 134.544 162.83C134.428 163.037 134.371 163.26 134.374 163.5H133.304C133.304 163.033 133.409 162.625 133.619 162.275C133.833 161.922 134.124 161.647 134.494 161.45C134.864 161.25 135.288 161.15 135.764 161.15C136.218 161.15 136.624 161.253 136.984 161.46C137.344 161.663 137.628 161.943 137.834 162.3C138.044 162.657 138.149 163.063 138.149 163.52C138.149 163.85 138.106 164.13 138.019 164.36C137.933 164.59 137.803 164.803 137.629 165C137.456 165.197 137.239 165.41 136.979 165.64L134.559 167.8L134.444 167.5H138.149V168.495H133.279ZM141.363 168.635C141.007 168.635 140.672 168.568 140.358 168.435C140.045 168.298 139.773 168.105 139.543 167.855C139.317 167.605 139.152 167.31 139.048 166.97L140.058 166.69C140.155 167 140.323 167.238 140.563 167.405C140.803 167.568 141.07 167.648 141.363 167.645C141.627 167.642 141.858 167.58 142.058 167.46C142.258 167.34 142.415 167.178 142.528 166.975C142.642 166.768 142.698 166.532 142.698 166.265C142.698 165.865 142.573 165.535 142.323 165.275C142.077 165.015 141.753 164.885 141.353 164.885C141.24 164.885 141.123 164.902 141.003 164.935C140.887 164.968 140.777 165.012 140.673 165.065L140.183 164.24L142.723 161.995L142.833 162.295H139.333V161.3H143.663V162.295L141.553 164.325L141.543 163.985C141.997 163.985 142.39 164.087 142.723 164.29C143.057 164.49 143.313 164.763 143.493 165.11C143.677 165.453 143.768 165.838 143.768 166.265C143.768 166.725 143.66 167.133 143.443 167.49C143.23 167.847 142.942 168.127 142.578 168.33C142.218 168.533 141.813 168.635 141.363 168.635Z" fill="#58595A"/>
<path d="M181.996 168.495L182.001 167.565L185.136 164.755C185.389 164.532 185.561 164.318 185.651 164.115C185.744 163.912 185.791 163.708 185.791 163.505C185.791 163.248 185.734 163.018 185.621 162.815C185.508 162.608 185.351 162.445 185.151 162.325C184.951 162.205 184.721 162.145 184.461 162.145C184.194 162.145 183.956 162.208 183.746 162.335C183.539 162.458 183.378 162.623 183.261 162.83C183.144 163.037 183.088 163.26 183.091 163.5H182.021C182.021 163.033 182.126 162.625 182.336 162.275C182.549 161.922 182.841 161.647 183.211 161.45C183.581 161.25 184.004 161.15 184.481 161.15C184.934 161.15 185.341 161.253 185.701 161.46C186.061 161.663 186.344 161.943 186.551 162.3C186.761 162.657 186.866 163.063 186.866 163.52C186.866 163.85 186.823 164.13 186.736 164.36C186.649 164.59 186.519 164.803 186.346 165C186.173 165.197 185.956 165.41 185.696 165.64L183.276 167.8L183.161 167.5H186.866V168.495H181.996ZM190.575 168.65C190.085 168.65 189.652 168.543 189.275 168.33C188.899 168.113 188.602 167.817 188.385 167.44C188.172 167.063 188.065 166.63 188.065 166.14V163.66C188.065 163.17 188.172 162.737 188.385 162.36C188.602 161.983 188.899 161.688 189.275 161.475C189.652 161.258 190.085 161.15 190.575 161.15C191.065 161.15 191.499 161.258 191.875 161.475C192.252 161.688 192.547 161.983 192.76 162.36C192.977 162.737 193.085 163.17 193.085 163.66V166.14C193.085 166.63 192.977 167.063 192.76 167.44C192.547 167.817 192.252 168.113 191.875 168.33C191.499 168.543 191.065 168.65 190.575 168.65ZM190.575 167.65C190.842 167.65 191.084 167.587 191.3 167.46C191.52 167.33 191.695 167.157 191.825 166.94C191.955 166.72 192.02 166.475 192.02 166.205V163.585C192.02 163.318 191.955 163.077 191.825 162.86C191.695 162.64 191.52 162.467 191.3 162.34C191.084 162.21 190.842 162.145 190.575 162.145C190.309 162.145 190.065 162.21 189.845 162.34C189.629 162.467 189.455 162.64 189.325 162.86C189.195 163.077 189.13 163.318 189.13 163.585V166.205C189.13 166.475 189.195 166.72 189.325 166.94C189.455 167.157 189.629 167.33 189.845 167.46C190.065 167.587 190.309 167.65 190.575 167.65ZM194.281 168.495L194.286 167.565L197.421 164.755C197.675 164.532 197.846 164.318 197.936 164.115C198.03 163.912 198.076 163.708 198.076 163.505C198.076 163.248 198.02 163.018 197.906 162.815C197.793 162.608 197.636 162.445 197.436 162.325C197.236 162.205 197.006 162.145 196.746 162.145C196.48 162.145 196.241 162.208 196.031 162.335C195.825 162.458 195.663 162.623 195.546 162.83C195.43 163.037 195.373 163.26 195.376 163.5H194.306C194.306 163.033 194.411 162.625 194.621 162.275C194.835 161.922 195.126 161.647 195.496 161.45C195.866 161.25 196.29 161.15 196.766 161.15C197.22 161.15 197.626 161.253 197.986 161.46C198.346 161.663 198.63 161.943 198.836 162.3C199.046 162.657 199.151 163.063 199.151 163.52C199.151 163.85 199.108 164.13 199.021 164.36C198.935 164.59 198.805 164.803 198.631 165C198.458 165.197 198.241 165.41 197.981 165.64L195.561 167.8L195.446 167.5H199.151V168.495H194.281ZM203.205 168.5V167.245H199.955V166.255L202.295 161.3H203.49L201.15 166.255H203.205V164.305H204.265V166.255H204.98V167.245H204.265V168.5H203.205Z" fill="#58595A"/>
<path d="M240 168.495L240.005 167.565L243.14 164.755C243.393 164.532 243.565 164.318 243.655 164.115C243.748 163.912 243.795 163.708 243.795 163.505C243.795 163.248 243.738 163.018 243.625 162.815C243.512 162.608 243.355 162.445 243.155 162.325C242.955 162.205 242.725 162.145 242.465 162.145C242.198 162.145 241.96 162.208 241.75 162.335C241.543 162.458 241.382 162.623 241.265 162.83C241.148 163.037 241.092 163.26 241.095 163.5H240.025C240.025 163.033 240.13 162.625 240.34 162.275C240.553 161.922 240.845 161.647 241.215 161.45C241.585 161.25 242.008 161.15 242.485 161.15C242.938 161.15 243.345 161.253 243.705 161.46C244.065 161.663 244.348 161.943 244.555 162.3C244.765 162.657 244.87 163.063 244.87 163.52C244.87 163.85 244.827 164.13 244.74 164.36C244.653 164.59 244.523 164.803 244.35 165C244.177 165.197 243.96 165.41 243.7 165.64L241.28 167.8L241.165 167.5H244.87V168.495H240ZM248.579 168.65C248.089 168.65 247.656 168.543 247.279 168.33C246.902 168.113 246.606 167.817 246.389 167.44C246.176 167.063 246.069 166.63 246.069 166.14V163.66C246.069 163.17 246.176 162.737 246.389 162.36C246.606 161.983 246.902 161.688 247.279 161.475C247.656 161.258 248.089 161.15 248.579 161.15C249.069 161.15 249.502 161.258 249.879 161.475C250.256 161.688 250.551 161.983 250.764 162.36C250.981 162.737 251.089 163.17 251.089 163.66V166.14C251.089 166.63 250.981 167.063 250.764 167.44C250.551 167.817 250.256 168.113 249.879 168.33C249.502 168.543 249.069 168.65 248.579 168.65ZM248.579 167.65C248.846 167.65 249.087 167.587 249.304 167.46C249.524 167.33 249.699 167.157 249.829 166.94C249.959 166.72 250.024 166.475 250.024 166.205V163.585C250.024 163.318 249.959 163.077 249.829 162.86C249.699 162.64 249.524 162.467 249.304 162.34C249.087 162.21 248.846 162.145 248.579 162.145C248.312 162.145 248.069 162.21 247.849 162.34C247.632 162.467 247.459 162.64 247.329 162.86C247.199 163.077 247.134 163.318 247.134 163.585V166.205C247.134 166.475 247.199 166.72 247.329 166.94C247.459 167.157 247.632 167.33 247.849 167.46C248.069 167.587 248.312 167.65 248.579 167.65ZM252.285 168.495L252.29 167.565L255.425 164.755C255.678 164.532 255.85 164.318 255.94 164.115C256.033 163.912 256.08 163.708 256.08 163.505C256.08 163.248 256.023 163.018 255.91 162.815C255.797 162.608 255.64 162.445 255.44 162.325C255.24 162.205 255.01 162.145 254.75 162.145C254.483 162.145 254.245 162.208 254.035 162.335C253.828 162.458 253.667 162.623 253.55 162.83C253.433 163.037 253.377 163.26 253.38 163.5H252.31C252.31 163.033 252.415 162.625 252.625 162.275C252.838 161.922 253.13 161.647 253.5 161.45C253.87 161.25 254.293 161.15 254.77 161.15C255.223 161.15 255.63 161.253 255.99 161.46C256.35 161.663 256.633 161.943 256.84 162.3C257.05 162.657 257.155 163.063 257.155 163.52C257.155 163.85 257.112 164.13 257.025 164.36C256.938 164.59 256.808 164.803 256.635 165C256.462 165.197 256.245 165.41 255.985 165.64L253.565 167.8L253.45 167.5H257.155V168.495H252.285ZM260.489 168.65C260.119 168.65 259.774 168.575 259.454 168.425C259.138 168.272 258.866 168.062 258.639 167.795C258.413 167.525 258.251 167.215 258.154 166.865L259.159 166.595C259.216 166.808 259.313 166.993 259.449 167.15C259.589 167.307 259.753 167.428 259.939 167.515C260.126 167.598 260.319 167.64 260.519 167.64C260.783 167.64 261.021 167.577 261.234 167.45C261.451 167.323 261.621 167.153 261.744 166.94C261.871 166.727 261.934 166.492 261.934 166.235C261.934 165.972 261.869 165.733 261.739 165.52C261.613 165.307 261.441 165.138 261.224 165.015C261.011 164.888 260.776 164.825 260.519 164.825C260.226 164.825 259.978 164.883 259.774 165C259.571 165.117 259.413 165.252 259.299 165.405L258.389 165.085L258.609 161.3H262.494V162.285H259.144L259.569 161.89L259.394 164.725L259.189 164.46C259.379 164.27 259.606 164.125 259.869 164.025C260.133 163.925 260.394 163.875 260.654 163.875C261.101 163.875 261.499 163.978 261.849 164.185C262.203 164.392 262.481 164.673 262.684 165.03C262.888 165.383 262.989 165.785 262.989 166.235C262.989 166.682 262.874 167.088 262.644 167.455C262.414 167.818 262.109 168.108 261.729 168.325C261.349 168.542 260.936 168.65 260.489 168.65Z" fill="#58595A"/>
<path d="M274.96 152.603C274.47 152.603 274.037 152.496 273.66 152.283C273.283 152.066 272.987 151.77 272.77 151.393C272.557 151.016 272.45 150.583 272.45 150.093V147.613C272.45 147.123 272.557 146.69 272.77 146.313C272.987 145.936 273.283 145.641 273.66 145.428C274.037 145.211 274.47 145.103 274.96 145.103C275.45 145.103 275.883 145.211 276.26 145.428C276.637 145.641 276.932 145.936 277.145 146.313C277.362 146.69 277.47 147.123 277.47 147.613V150.093C277.47 150.583 277.362 151.016 277.145 151.393C276.932 151.77 276.637 152.066 276.26 152.283C275.883 152.496 275.45 152.603 274.96 152.603ZM274.96 151.603C275.227 151.603 275.468 151.54 275.685 151.413C275.905 151.283 276.08 151.11 276.21 150.893C276.34 150.673 276.405 150.428 276.405 150.158V147.538C276.405 147.271 276.34 147.03 276.21 146.813C276.08 146.593 275.905 146.42 275.685 146.293C275.468 146.163 275.227 146.098 274.96 146.098C274.693 146.098 274.45 146.163 274.23 146.293C274.013 146.42 273.84 146.593 273.71 146.813C273.58 147.03 273.515 147.271 273.515 147.538V150.158C273.515 150.428 273.58 150.673 273.71 150.893C273.84 151.11 274.013 151.283 274.23 151.413C274.45 151.54 274.693 151.603 274.96 151.603ZM279.766 152.453L279.066 151.753L285.571 145.253L286.271 145.958L279.766 152.453ZM284.771 152.603C284.441 152.603 284.139 152.523 283.866 152.363C283.596 152.2 283.379 151.983 283.216 151.713C283.053 151.44 282.971 151.136 282.971 150.803C282.971 150.476 283.054 150.176 283.221 149.903C283.388 149.63 283.608 149.411 283.881 149.248C284.154 149.085 284.451 149.003 284.771 149.003C285.101 149.003 285.403 149.085 285.676 149.248C285.949 149.408 286.166 149.625 286.326 149.898C286.489 150.168 286.571 150.47 286.571 150.803C286.571 151.136 286.489 151.44 286.326 151.713C286.166 151.983 285.949 152.2 285.676 152.363C285.403 152.523 285.101 152.603 284.771 152.603ZM284.771 151.698C284.934 151.698 285.083 151.658 285.216 151.578C285.353 151.495 285.461 151.385 285.541 151.248C285.624 151.111 285.666 150.963 285.666 150.803C285.666 150.643 285.624 150.495 285.541 150.358C285.461 150.221 285.353 150.113 285.216 150.033C285.083 149.95 284.934 149.908 284.771 149.908C284.611 149.908 284.463 149.95 284.326 150.033C284.193 150.113 284.084 150.221 284.001 150.358C283.921 150.495 283.881 150.643 283.881 150.803C283.881 150.963 283.921 151.111 284.001 151.248C284.084 151.385 284.193 151.495 284.326 151.578C284.463 151.658 284.611 151.698 284.771 151.698ZM280.566 148.703C280.236 148.703 279.934 148.623 279.661 148.463C279.388 148.3 279.169 148.083 279.006 147.813C278.846 147.54 278.766 147.236 278.766 146.903C278.766 146.576 278.849 146.276 279.016 146.003C279.183 145.73 279.403 145.511 279.676 145.348C279.949 145.185 280.246 145.103 280.566 145.103C280.896 145.103 281.196 145.185 281.466 145.348C281.739 145.508 281.958 145.725 282.121 145.998C282.284 146.268 282.366 146.57 282.366 146.903C282.366 147.236 282.284 147.54 282.121 147.813C281.958 148.083 281.739 148.3 281.466 148.463C281.196 148.623 280.896 148.703 280.566 148.703ZM280.566 147.798C280.726 147.798 280.874 147.758 281.011 147.678C281.148 147.595 281.256 147.485 281.336 147.348C281.419 147.211 281.461 147.063 281.461 146.903C281.461 146.743 281.419 146.595 281.336 146.458C281.256 146.321 281.148 146.213 281.011 146.133C280.874 146.05 280.726 146.008 280.566 146.008C280.406 146.008 280.258 146.05 280.121 146.133C279.988 146.213 279.879 146.321 279.796 146.458C279.713 146.595 279.671 146.743 279.671 146.903C279.671 147.063 279.713 147.211 279.796 147.348C279.879 147.485 279.988 147.595 280.121 147.678C280.254 147.758 280.403 147.798 280.566 147.798Z" fill="#58595A"/>
<path d="M273.705 108.125V102.075L272.35 102.9V101.735L273.705 100.925H274.77V108.125H273.705ZM279.179 108.275C278.689 108.275 278.255 108.168 277.879 107.955C277.502 107.738 277.205 107.442 276.989 107.065C276.775 106.688 276.669 106.255 276.669 105.765V103.285C276.669 102.795 276.775 102.362 276.989 101.985C277.205 101.608 277.502 101.313 277.879 101.1C278.255 100.883 278.689 100.775 279.179 100.775C279.669 100.775 280.102 100.883 280.479 101.1C280.855 101.313 281.15 101.608 281.364 101.985C281.58 102.362 281.689 102.795 281.689 103.285V105.765C281.689 106.255 281.58 106.688 281.364 107.065C281.15 107.442 280.855 107.738 280.479 107.955C280.102 108.168 279.669 108.275 279.179 108.275ZM279.179 107.275C279.445 107.275 279.687 107.212 279.904 107.085C280.124 106.955 280.299 106.782 280.429 106.565C280.559 106.345 280.624 106.1 280.624 105.83V103.21C280.624 102.943 280.559 102.702 280.429 102.485C280.299 102.265 280.124 102.092 279.904 101.965C279.687 101.835 279.445 101.77 279.179 101.77C278.912 101.77 278.669 101.835 278.449 101.965C278.232 102.092 278.059 102.265 277.929 102.485C277.799 102.702 277.734 102.943 277.734 103.21V105.83C277.734 106.1 277.799 106.345 277.929 106.565C278.059 106.782 278.232 106.955 278.449 107.085C278.669 107.212 278.912 107.275 279.179 107.275ZM285.595 108.275C285.105 108.275 284.671 108.168 284.295 107.955C283.918 107.738 283.621 107.442 283.405 107.065C283.191 106.688 283.085 106.255 283.085 105.765V103.285C283.085 102.795 283.191 102.362 283.405 101.985C283.621 101.608 283.918 101.313 284.295 101.1C284.671 100.883 285.105 100.775 285.595 100.775C286.085 100.775 286.518 100.883 286.895 101.1C287.271 101.313 287.566 101.608 287.78 101.985C287.996 102.362 288.105 102.795 288.105 103.285V105.765C288.105 106.255 287.996 106.688 287.78 107.065C287.566 107.442 287.271 107.738 286.895 107.955C286.518 108.168 286.085 108.275 285.595 108.275ZM285.595 107.275C285.861 107.275 286.103 107.212 286.32 107.085C286.54 106.955 286.715 106.782 286.845 106.565C286.975 106.345 287.04 106.1 287.04 105.83V103.21C287.04 102.943 286.975 102.702 286.845 102.485C286.715 102.265 286.54 102.092 286.32 101.965C286.103 101.835 285.861 101.77 285.595 101.77C285.328 101.77 285.085 101.835 284.865 101.965C284.648 102.092 284.475 102.265 284.345 102.485C284.215 102.702 284.15 102.943 284.15 103.21V105.83C284.15 106.1 284.215 106.345 284.345 106.565C284.475 106.782 284.648 106.955 284.865 107.085C285.085 107.212 285.328 107.275 285.595 107.275ZM290.401 108.125L289.701 107.425L296.206 100.925L296.906 101.63L290.401 108.125ZM295.406 108.275C295.076 108.275 294.774 108.195 294.501 108.035C294.231 107.872 294.014 107.655 293.851 107.385C293.687 107.112 293.606 106.808 293.606 106.475C293.606 106.148 293.689 105.848 293.856 105.575C294.022 105.302 294.242 105.083 294.516 104.92C294.789 104.757 295.086 104.675 295.406 104.675C295.736 104.675 296.037 104.757 296.311 104.92C296.584 105.08 296.801 105.297 296.961 105.57C297.124 105.84 297.206 106.142 297.206 106.475C297.206 106.808 297.124 107.112 296.961 107.385C296.801 107.655 296.584 107.872 296.311 108.035C296.037 108.195 295.736 108.275 295.406 108.275ZM295.406 107.37C295.569 107.37 295.717 107.33 295.851 107.25C295.987 107.167 296.096 107.057 296.176 106.92C296.259 106.783 296.301 106.635 296.301 106.475C296.301 106.315 296.259 106.167 296.176 106.03C296.096 105.893 295.987 105.785 295.851 105.705C295.717 105.622 295.569 105.58 295.406 105.58C295.246 105.58 295.097 105.622 294.961 105.705C294.827 105.785 294.719 105.893 294.636 106.03C294.556 106.167 294.516 106.315 294.516 106.475C294.516 106.635 294.556 106.783 294.636 106.92C294.719 107.057 294.827 107.167 294.961 107.25C295.097 107.33 295.246 107.37 295.406 107.37ZM291.201 104.375C290.871 104.375 290.569 104.295 290.296 104.135C290.022 103.972 289.804 103.755 289.641 103.485C289.481 103.212 289.401 102.908 289.401 102.575C289.401 102.248 289.484 101.948 289.651 101.675C289.817 101.402 290.037 101.183 290.311 101.02C290.584 100.857 290.881 100.775 291.201 100.775C291.531 100.775 291.831 100.857 292.101 101.02C292.374 101.18 292.592 101.397 292.756 101.67C292.919 101.94 293.001 102.242 293.001 102.575C293.001 102.908 292.919 103.212 292.756 103.485C292.592 103.755 292.374 103.972 292.101 104.135C291.831 104.295 291.531 104.375 291.201 104.375ZM291.201 103.47C291.361 103.47 291.509 103.43 291.646 103.35C291.782 103.267 291.891 103.157 291.971 103.02C292.054 102.883 292.096 102.735 292.096 102.575C292.096 102.415 292.054 102.267 291.971 102.13C291.891 101.993 291.782 101.885 291.646 101.805C291.509 101.722 291.361 101.68 291.201 101.68C291.041 101.68 290.892 101.722 290.756 101.805C290.622 101.885 290.514 101.993 290.431 102.13C290.347 102.267 290.306 102.415 290.306 102.575C290.306 102.735 290.347 102.883 290.431 103.02C290.514 103.157 290.622 103.267 290.756 103.35C290.889 103.43 291.037 103.47 291.201 103.47Z" fill="#58595A"/>
<path d="M272.25 63.7919L272.255 62.8619L275.39 60.0519C275.643 59.8285 275.815 59.6152 275.905 59.4119C275.998 59.2085 276.045 59.0052 276.045 58.8019C276.045 58.5452 275.988 58.3152 275.875 58.1119C275.762 57.9052 275.605 57.7419 275.405 57.6219C275.205 57.5019 274.975 57.4419 274.715 57.4419C274.448 57.4419 274.21 57.5052 274 57.6319C273.793 57.7552 273.632 57.9202 273.515 58.1269C273.398 58.3335 273.342 58.5569 273.345 58.7969H272.275C272.275 58.3302 272.38 57.9219 272.59 57.5719C272.803 57.2185 273.095 56.9435 273.465 56.7469C273.835 56.5469 274.258 56.4469 274.735 56.4469C275.188 56.4469 275.595 56.5502 275.955 56.7569C276.315 56.9602 276.598 57.2402 276.805 57.5969C277.015 57.9535 277.12 58.3602 277.12 58.8169C277.12 59.1469 277.077 59.4269 276.99 59.6569C276.903 59.8869 276.773 60.1002 276.6 60.2969C276.427 60.4935 276.21 60.7069 275.95 60.9369L273.53 63.0969L273.415 62.7969H277.12V63.7919H272.25ZM280.829 63.9469C280.339 63.9469 279.906 63.8402 279.529 63.6269C279.152 63.4102 278.856 63.1135 278.639 62.7369C278.426 62.3602 278.319 61.9269 278.319 61.4369V58.9569C278.319 58.4669 278.426 58.0335 278.639 57.6569C278.856 57.2802 279.152 56.9852 279.529 56.7719C279.906 56.5552 280.339 56.4469 280.829 56.4469C281.319 56.4469 281.752 56.5552 282.129 56.7719C282.506 56.9852 282.801 57.2802 283.014 57.6569C283.231 58.0335 283.339 58.4669 283.339 58.9569V61.4369C283.339 61.9269 283.231 62.3602 283.014 62.7369C282.801 63.1135 282.506 63.4102 282.129 63.6269C281.752 63.8402 281.319 63.9469 280.829 63.9469ZM280.829 62.9469C281.096 62.9469 281.337 62.8835 281.554 62.7569C281.774 62.6269 281.949 62.4535 282.079 62.2369C282.209 62.0169 282.274 61.7719 282.274 61.5019V58.8819C282.274 58.6152 282.209 58.3735 282.079 58.1569C281.949 57.9369 281.774 57.7635 281.554 57.6369C281.337 57.5069 281.096 57.4419 280.829 57.4419C280.562 57.4419 280.319 57.5069 280.099 57.6369C279.882 57.7635 279.709 57.9369 279.579 58.1569C279.449 58.3735 279.384 58.6152 279.384 58.8819V61.5019C279.384 61.7719 279.449 62.0169 279.579 62.2369C279.709 62.4535 279.882 62.6269 280.099 62.7569C280.319 62.8835 280.562 62.9469 280.829 62.9469ZM287.245 63.9469C286.755 63.9469 286.322 63.8402 285.945 63.6269C285.568 63.4102 285.272 63.1135 285.055 62.7369C284.842 62.3602 284.735 61.9269 284.735 61.4369V58.9569C284.735 58.4669 284.842 58.0335 285.055 57.6569C285.272 57.2802 285.568 56.9852 285.945 56.7719C286.322 56.5552 286.755 56.4469 287.245 56.4469C287.735 56.4469 288.168 56.5552 288.545 56.7719C288.922 56.9852 289.217 57.2802 289.43 57.6569C289.647 58.0335 289.755 58.4669 289.755 58.9569V61.4369C289.755 61.9269 289.647 62.3602 289.43 62.7369C289.217 63.1135 288.922 63.4102 288.545 63.6269C288.168 63.8402 287.735 63.9469 287.245 63.9469ZM287.245 62.9469C287.512 62.9469 287.753 62.8835 287.97 62.7569C288.19 62.6269 288.365 62.4535 288.495 62.2369C288.625 62.0169 288.69 61.7719 288.69 61.5019V58.8819C288.69 58.6152 288.625 58.3735 288.495 58.1569C288.365 57.9369 288.19 57.7635 287.97 57.6369C287.753 57.5069 287.512 57.4419 287.245 57.4419C286.978 57.4419 286.735 57.5069 286.515 57.6369C286.298 57.7635 286.125 57.9369 285.995 58.1569C285.865 58.3735 285.8 58.6152 285.8 58.8819V61.5019C285.8 61.7719 285.865 62.0169 285.995 62.2369C286.125 62.4535 286.298 62.6269 286.515 62.7569C286.735 62.8835 286.978 62.9469 287.245 62.9469ZM292.051 63.7969L291.351 63.0969L297.856 56.5969L298.556 57.3019L292.051 63.7969ZM297.056 63.9469C296.726 63.9469 296.425 63.8669 296.151 63.7069C295.881 63.5435 295.665 63.3269 295.501 63.0569C295.338 62.7835 295.256 62.4802 295.256 62.1469C295.256 61.8202 295.34 61.5202 295.506 61.2469C295.673 60.9735 295.893 60.7552 296.166 60.5919C296.44 60.4285 296.736 60.3469 297.056 60.3469C297.386 60.3469 297.688 60.4285 297.961 60.5919C298.235 60.7519 298.451 60.9685 298.611 61.2419C298.775 61.5119 298.856 61.8135 298.856 62.1469C298.856 62.4802 298.775 62.7835 298.611 63.0569C298.451 63.3269 298.235 63.5435 297.961 63.7069C297.688 63.8669 297.386 63.9469 297.056 63.9469ZM297.056 63.0419C297.22 63.0419 297.368 63.0019 297.501 62.9219C297.638 62.8385 297.746 62.7285 297.826 62.5919C297.91 62.4552 297.951 62.3069 297.951 62.1469C297.951 61.9869 297.91 61.8385 297.826 61.7019C297.746 61.5652 297.638 61.4569 297.501 61.3769C297.368 61.2935 297.22 61.2519 297.056 61.2519C296.896 61.2519 296.748 61.2935 296.611 61.3769C296.478 61.4569 296.37 61.5652 296.286 61.7019C296.206 61.8385 296.166 61.9869 296.166 62.1469C296.166 62.3069 296.206 62.4552 296.286 62.5919C296.37 62.7285 296.478 62.8385 296.611 62.9219C296.748 63.0019 296.896 63.0419 297.056 63.0419ZM292.851 60.0469C292.521 60.0469 292.22 59.9669 291.946 59.8069C291.673 59.6435 291.455 59.4269 291.291 59.1569C291.131 58.8835 291.051 58.5802 291.051 58.2469C291.051 57.9202 291.135 57.6202 291.301 57.3469C291.468 57.0735 291.688 56.8552 291.961 56.6919C292.235 56.5285 292.531 56.4469 292.851 56.4469C293.181 56.4469 293.481 56.5285 293.751 56.6919C294.025 56.8519 294.243 57.0685 294.406 57.3419C294.57 57.6119 294.651 57.9135 294.651 58.2469C294.651 58.5802 294.57 58.8835 294.406 59.1569C294.243 59.4269 294.025 59.6435 293.751 59.8069C293.481 59.9669 293.181 60.0469 292.851 60.0469ZM292.851 59.1419C293.011 59.1419 293.16 59.1019 293.296 59.0219C293.433 58.9385 293.541 58.8285 293.621 58.6919C293.705 58.5552 293.746 58.4069 293.746 58.2469C293.746 58.0869 293.705 57.9385 293.621 57.8019C293.541 57.6652 293.433 57.5569 293.296 57.4769C293.16 57.3935 293.011 57.3519 292.851 57.3519C292.691 57.3519 292.543 57.3935 292.406 57.4769C292.273 57.5569 292.165 57.6652 292.081 57.8019C291.998 57.9385 291.956 58.0869 291.956 58.2469C291.956 58.4069 291.998 58.5552 292.081 58.6919C292.165 58.8285 292.273 58.9385 292.406 59.0219C292.54 59.1019 292.688 59.1419 292.851 59.1419Z" fill="#58595A"/>
<path d="M274.465 19.6038C274.108 19.6038 273.773 19.5371 273.46 19.4037C273.147 19.2671 272.875 19.0737 272.645 18.8237C272.418 18.5737 272.253 18.2787 272.15 17.9387L273.16 17.6587C273.257 17.9687 273.425 18.2071 273.665 18.3737C273.905 18.5371 274.172 18.6171 274.465 18.6137C274.728 18.6104 274.96 18.5487 275.16 18.4287C275.36 18.3087 275.517 18.1471 275.63 17.9437C275.743 17.7371 275.8 17.5004 275.8 17.2337C275.8 16.8337 275.675 16.5037 275.425 16.2437C275.178 15.9837 274.855 15.8537 274.455 15.8537C274.342 15.8537 274.225 15.8704 274.105 15.9037C273.988 15.9371 273.878 15.9804 273.775 16.0337L273.285 15.2087L275.825 12.9637L275.935 13.2637H272.435V12.2687H276.765V13.2637L274.655 15.2937L274.645 14.9537C275.098 14.9537 275.492 15.0554 275.825 15.2587C276.158 15.4587 276.415 15.7321 276.595 16.0787C276.778 16.4221 276.87 16.8071 276.87 17.2337C276.87 17.6937 276.762 18.1021 276.545 18.4587C276.332 18.8154 276.043 19.0954 275.68 19.2987C275.32 19.5021 274.915 19.6038 274.465 19.6038ZM280.683 19.6188C280.193 19.6188 279.759 19.5121 279.383 19.2987C279.006 19.0821 278.709 18.7854 278.493 18.4087C278.279 18.0321 278.173 17.5987 278.173 17.1087V14.6287C278.173 14.1387 278.279 13.7054 278.493 13.3287C278.709 12.9521 279.006 12.6571 279.383 12.4437C279.759 12.2271 280.193 12.1187 280.683 12.1187C281.173 12.1187 281.606 12.2271 281.983 12.4437C282.359 12.6571 282.654 12.9521 282.868 13.3287C283.084 13.7054 283.193 14.1387 283.193 14.6287V17.1087C283.193 17.5987 283.084 18.0321 282.868 18.4087C282.654 18.7854 282.359 19.0821 281.983 19.2987C281.606 19.5121 281.173 19.6188 280.683 19.6188ZM280.683 18.6187C280.949 18.6187 281.191 18.5554 281.408 18.4287C281.628 18.2987 281.803 18.1254 281.933 17.9087C282.063 17.6887 282.128 17.4437 282.128 17.1737V14.5537C282.128 14.2871 282.063 14.0454 281.933 13.8287C281.803 13.6087 281.628 13.4354 281.408 13.3087C281.191 13.1787 280.949 13.1137 280.683 13.1137C280.416 13.1137 280.173 13.1787 279.953 13.3087C279.736 13.4354 279.563 13.6087 279.433 13.8287C279.303 14.0454 279.238 14.2871 279.238 14.5537V17.1737C279.238 17.4437 279.303 17.6887 279.433 17.9087C279.563 18.1254 279.736 18.2987 279.953 18.4287C280.173 18.5554 280.416 18.6187 280.683 18.6187ZM287.099 19.6188C286.609 19.6188 286.175 19.5121 285.799 19.2987C285.422 19.0821 285.125 18.7854 284.909 18.4087C284.695 18.0321 284.589 17.5987 284.589 17.1087V14.6287C284.589 14.1387 284.695 13.7054 284.909 13.3287C285.125 12.9521 285.422 12.6571 285.799 12.4437C286.175 12.2271 286.609 12.1187 287.099 12.1187C287.589 12.1187 288.022 12.2271 288.399 12.4437C288.775 12.6571 289.07 12.9521 289.284 13.3287C289.5 13.7054 289.609 14.1387 289.609 14.6287V17.1087C289.609 17.5987 289.5 18.0321 289.284 18.4087C289.07 18.7854 288.775 19.0821 288.399 19.2987C288.022 19.5121 287.589 19.6188 287.099 19.6188ZM287.099 18.6187C287.365 18.6187 287.607 18.5554 287.824 18.4287C288.044 18.2987 288.219 18.1254 288.349 17.9087C288.479 17.6887 288.544 17.4437 288.544 17.1737V14.5537C288.544 14.2871 288.479 14.0454 288.349 13.8287C288.219 13.6087 288.044 13.4354 287.824 13.3087C287.607 13.1787 287.365 13.1137 287.099 13.1137C286.832 13.1137 286.589 13.1787 286.369 13.3087C286.152 13.4354 285.979 13.6087 285.849 13.8287C285.719 14.0454 285.654 14.2871 285.654 14.5537V17.1737C285.654 17.4437 285.719 17.6887 285.849 17.9087C285.979 18.1254 286.152 18.2987 286.369 18.4287C286.589 18.5554 286.832 18.6187 287.099 18.6187ZM291.905 19.4688L291.205 18.7687L297.71 12.2687L298.41 12.9737L291.905 19.4688ZM296.91 19.6188C296.58 19.6188 296.278 19.5388 296.005 19.3787C295.735 19.2154 295.518 18.9987 295.355 18.7287C295.191 18.4554 295.11 18.1521 295.11 17.8187C295.11 17.4921 295.193 17.1921 295.36 16.9187C295.526 16.6454 295.746 16.4271 296.02 16.2637C296.293 16.1004 296.59 16.0187 296.91 16.0187C297.24 16.0187 297.541 16.1004 297.815 16.2637C298.088 16.4237 298.305 16.6404 298.465 16.9137C298.628 17.1837 298.71 17.4854 298.71 17.8187C298.71 18.1521 298.628 18.4554 298.465 18.7287C298.305 18.9987 298.088 19.2154 297.815 19.3787C297.541 19.5388 297.24 19.6188 296.91 19.6188ZM296.91 18.7137C297.073 18.7137 297.221 18.6737 297.355 18.5937C297.491 18.5104 297.6 18.4004 297.68 18.2637C297.763 18.1271 297.805 17.9787 297.805 17.8187C297.805 17.6587 297.763 17.5104 297.68 17.3737C297.6 17.2371 297.491 17.1287 297.355 17.0487C297.221 16.9654 297.073 16.9237 296.91 16.9237C296.75 16.9237 296.601 16.9654 296.465 17.0487C296.331 17.1287 296.223 17.2371 296.14 17.3737C296.06 17.5104 296.02 17.6587 296.02 17.8187C296.02 17.9787 296.06 18.1271 296.14 18.2637C296.223 18.4004 296.331 18.5104 296.465 18.5937C296.601 18.6737 296.75 18.7137 296.91 18.7137ZM292.705 15.7187C292.375 15.7187 292.073 15.6387 291.8 15.4787C291.526 15.3154 291.308 15.0987 291.145 14.8287C290.985 14.5554 290.905 14.2521 290.905 13.9187C290.905 13.5921 290.988 13.2921 291.155 13.0187C291.321 12.7454 291.541 12.5271 291.815 12.3637C292.088 12.2004 292.385 12.1187 292.705 12.1187C293.035 12.1187 293.335 12.2004 293.605 12.3637C293.878 12.5237 294.096 12.7404 294.26 13.0137C294.423 13.2837 294.505 13.5854 294.505 13.9187C294.505 14.2521 294.423 14.5554 294.26 14.8287C294.096 15.0987 293.878 15.3154 293.605 15.4787C293.335 15.6387 293.035 15.7187 292.705 15.7187ZM292.705 14.8137C292.865 14.8137 293.013 14.7737 293.15 14.6937C293.286 14.6104 293.395 14.5004 293.475 14.3637C293.558 14.2271 293.6 14.0787 293.6 13.9187C293.6 13.7587 293.558 13.6104 293.475 13.4737C293.395 13.3371 293.286 13.2287 293.15 13.1487C293.013 13.0654 292.865 13.0237 292.705 13.0237C292.545 13.0237 292.396 13.0654 292.26 13.1487C292.126 13.2287 292.018 13.3371 291.935 13.4737C291.851 13.6104 291.81 13.7587 291.81 13.9187C291.81 14.0787 291.851 14.2271 291.935 14.3637C292.018 14.5004 292.126 14.6104 292.26 14.6937C292.393 14.7737 292.541 14.8137 292.705 14.8137Z" fill="#58595A"/>
<rect x="209.504" y="72" width="47" height="21" rx="10.5" fill="white"/>
<path d="M217.732 87V80.345L216.241 81.2525V79.971L217.732 79.08H218.903V87H217.732ZM222.372 87V80.345L220.882 81.2525V79.971L222.372 79.08H223.544V87H222.372ZM227.849 87.1485C227.456 87.1485 227.088 87.0752 226.743 86.9285C226.399 86.7782 226.1 86.5655 225.847 86.2905C225.597 86.0155 225.416 85.691 225.302 85.317L226.413 85.009C226.52 85.35 226.705 85.6122 226.969 85.7955C227.233 85.9752 227.526 86.0632 227.849 86.0595C228.138 86.0558 228.393 85.988 228.613 85.856C228.833 85.724 229.006 85.5462 229.13 85.3225C229.255 85.0952 229.317 84.8348 229.317 84.5415C229.317 84.1015 229.18 83.7385 228.905 83.4525C228.633 83.1665 228.278 83.0235 227.838 83.0235C227.713 83.0235 227.585 83.0418 227.453 83.0785C227.324 83.1152 227.203 83.1628 227.09 83.2215L226.551 82.314L229.345 79.8445L229.466 80.1745H225.616V79.08H230.379V80.1745L228.058 82.4075L228.047 82.0335C228.545 82.0335 228.978 82.1453 229.345 82.369C229.711 82.589 229.994 82.8897 230.192 83.271C230.393 83.6487 230.494 84.0722 230.494 84.5415C230.494 85.0475 230.375 85.4967 230.137 85.889C229.902 86.2813 229.585 86.5893 229.185 86.813C228.789 87.0367 228.344 87.1485 227.849 87.1485ZM232.125 87V85.7845H233.341V87H232.125ZM237.291 87.1485C236.899 87.1485 236.53 87.0752 236.186 86.9285C235.841 86.7782 235.542 86.5655 235.289 86.2905C235.04 86.0155 234.858 85.691 234.745 85.317L235.856 85.009C235.962 85.35 236.147 85.6122 236.411 85.7955C236.675 85.9752 236.969 86.0632 237.291 86.0595C237.581 86.0558 237.836 85.988 238.056 85.856C238.276 85.724 238.448 85.5462 238.573 85.3225C238.697 85.0952 238.76 84.8348 238.76 84.5415C238.76 84.1015 238.622 83.7385 238.347 83.4525C238.076 83.1665 237.72 83.0235 237.28 83.0235C237.156 83.0235 237.027 83.0418 236.895 83.0785C236.767 83.1152 236.646 83.1628 236.532 83.2215L235.993 82.314L238.787 79.8445L238.908 80.1745H235.058V79.08H239.821V80.1745L237.5 82.4075L237.489 82.0335C237.988 82.0335 238.421 82.1453 238.787 82.369C239.154 82.589 239.436 82.8897 239.634 83.271C239.836 83.6487 239.937 84.0722 239.937 84.5415C239.937 85.0475 239.818 85.4967 239.579 85.889C239.345 86.2813 239.027 86.5893 238.628 86.813C238.232 87.0367 237.786 87.1485 237.291 87.1485ZM242.36 87L241.59 86.23L248.745 79.08L249.515 79.8555L242.36 87ZM247.865 87.165C247.502 87.165 247.17 87.077 246.87 86.901C246.573 86.7213 246.334 86.483 246.155 86.186C245.975 85.8853 245.885 85.5517 245.885 85.185C245.885 84.8257 245.977 84.4957 246.16 84.195C246.343 83.8943 246.585 83.6542 246.886 83.4745C247.187 83.2948 247.513 83.205 247.865 83.205C248.228 83.205 248.56 83.2948 248.861 83.4745C249.161 83.6505 249.4 83.8888 249.576 84.1895C249.755 84.4865 249.845 84.8183 249.845 85.185C249.845 85.5517 249.755 85.8853 249.576 86.186C249.4 86.483 249.161 86.7213 248.861 86.901C248.56 87.077 248.228 87.165 247.865 87.165ZM247.865 86.1695C248.045 86.1695 248.208 86.1255 248.355 86.0375C248.505 85.9458 248.624 85.8248 248.712 85.6745C248.804 85.5242 248.85 85.361 248.85 85.185C248.85 85.009 248.804 84.8458 248.712 84.6955C248.624 84.5452 248.505 84.426 248.355 84.338C248.208 84.2463 248.045 84.2005 247.865 84.2005C247.689 84.2005 247.526 84.2463 247.376 84.338C247.229 84.426 247.11 84.5452 247.018 84.6955C246.93 84.8458 246.886 85.009 246.886 85.185C246.886 85.361 246.93 85.5242 247.018 85.6745C247.11 85.8248 247.229 85.9458 247.376 86.0375C247.526 86.1255 247.689 86.1695 247.865 86.1695ZM243.24 82.875C242.877 82.875 242.545 82.787 242.244 82.611C241.943 82.4313 241.703 82.193 241.524 81.896C241.348 81.5953 241.26 81.2617 241.26 80.895C241.26 80.5357 241.351 80.2057 241.535 79.905C241.718 79.6043 241.96 79.3642 242.261 79.1845C242.561 79.0048 242.888 78.915 243.24 78.915C243.603 78.915 243.933 79.0048 244.23 79.1845C244.53 79.3605 244.77 79.5988 244.95 79.8995C245.13 80.1965 245.22 80.5283 245.22 80.895C245.22 81.2617 245.13 81.5953 244.95 81.896C244.77 82.193 244.53 82.4313 244.23 82.611C243.933 82.787 243.603 82.875 243.24 82.875ZM243.24 81.8795C243.416 81.8795 243.579 81.8355 243.729 81.7475C243.879 81.6558 243.999 81.5348 244.087 81.3845C244.178 81.2342 244.224 81.071 244.224 80.895C244.224 80.719 244.178 80.5558 244.087 80.4055C243.999 80.2552 243.879 80.136 243.729 80.048C243.579 79.9563 243.416 79.9105 243.24 79.9105C243.064 79.9105 242.9 79.9563 242.75 80.048C242.603 80.136 242.484 80.2552 242.393 80.4055C242.301 80.5558 242.255 80.719 242.255 80.895C242.255 81.071 242.301 81.2342 242.393 81.3845C242.484 81.5348 242.603 81.6558 242.75 81.7475C242.897 81.8355 243.06 81.8795 243.24 81.8795Z" fill="#0D0E0F"/>
<path d="M261.504 60.9004V104.869" stroke="white" stroke-width="2"/>
<path d="M257.609 64.9431L261.503 61.1602L265.398 64.9431" stroke="white" stroke-width="2"/>
<path d="M265.398 102.059L261.504 105.842L257.61 102.059" stroke="white" stroke-width="2"/>
<circle cx="261.504" cy="114.395" r="4" fill="#275CFD"/>
</svg>
