<svg width="40" height="40" viewBox="0 0 40 40" fill="none" xmlns="http://www.w3.org/2000/svg">
<path d="M22.3783 24.1199C27.2092 21.3308 30.4607 17.9186 29.6409 16.4985L27.9161 13.5111L10.4219 23.6113L12.1467 26.5988C12.9666 28.0188 17.5474 26.909 22.3783 24.1199Z" fill="#F2A200"/>
<ellipse cx="19.1047" cy="18.4528" rx="10.1003" ry="2.96903" transform="rotate(-30 19.1047 18.4528)" fill="#FFCA06"/>
<path d="M25.6198 14.6965C25.7138 14.8593 25.6896 15.0823 25.5622 15.3513C25.0471 16.4392 22.8461 18.2805 19.9599 19.9468C17.0737 21.6131 14.3786 22.5986 13.179 22.5008C12.8823 22.4766 12.6771 22.3861 12.5831 22.2233C12.109 21.402 14.643 19.0514 18.243 16.9729C21.843 14.8945 25.1457 13.8753 25.6198 14.6965Z" fill="#FDD74A"/>
<path fill-rule="evenodd" clip-rule="evenodd" d="M25.5622 15.3513C25.0471 16.4392 22.8461 18.2805 19.9599 19.9468C17.0737 21.6131 14.3786 22.5986 13.179 22.5008C13.6941 21.4129 15.8951 19.5716 18.7813 17.9053C21.6674 16.239 24.3626 15.2535 25.5622 15.3513Z" fill="#FDD74A"/>
<path fill-rule="evenodd" clip-rule="evenodd" d="M25.5622 15.3513C25.6896 15.0823 25.7138 14.8593 25.6198 14.6965C25.1457 13.8753 21.843 14.8945 18.243 16.9729C14.643 19.0514 12.109 21.402 12.5831 22.2233C12.6771 22.3861 12.8823 22.4766 13.179 22.5008C13.6941 21.4129 15.8951 19.5716 18.7813 17.9053C21.6674 16.239 24.3626 15.2535 25.5622 15.3513Z" fill="#ECB41B"/>
<path d="M35.2089 11.2185C39.1762 18.0903 37.9717 26.5272 32.805 32.0252L32.3995 31.6448L31.9946 31.2641C36.8347 26.1137 37.9615 18.2097 34.2462 11.7743C30.5307 5.33883 23.122 2.36225 16.2414 3.97878L16.1142 3.43773L15.9875 2.89637C23.3323 1.17087 31.2413 4.34656 35.2089 11.2185ZM5.75196 28.2254C9.46731 34.6603 16.8749 37.6363 23.755 36.0205L24.0098 37.1031C16.6653 38.8281 8.75669 35.6527 4.78928 28.7812C0.821931 21.9096 2.02602 13.4723 7.19225 7.9743L8.00248 8.73624C3.16292 13.8868 2.03667 21.7903 5.75196 28.2254Z" fill="white"/>
<path d="M8.01625 6.78656L8.08729 6.82757L8.22224 12.6269L2.9264 9.56936L8.01625 6.78656Z" fill="white"/>
<path d="M31.9822 33.2126L31.9111 33.1716L31.7762 27.3723L37.072 30.4298L31.9822 33.2126Z" fill="white"/>
</svg>
