<svg preserveAspectRatio="none" width="100%" height="100%" overflow="visible" style="display: block;" viewBox="0 0 11.6667 11.6667" fill="none" xmlns="http://www.w3.org/2000/svg">
<path id="Subtract" fill-rule="evenodd" clip-rule="evenodd" d="M5.83333 11.6667C9.05499 11.6667 11.6667 9.05499 11.6667 5.83333C11.6667 2.61167 9.05499 0 5.83333 0C2.61167 0 0 2.61167 0 5.83333C0 9.05499 2.61167 11.6667 5.83333 11.6667ZM5.83229 2.2978C6.31308 2.2978 6.70283 2.68756 6.70283 3.16834V6.15093C6.70283 6.63172 6.31308 7.02147 5.83229 7.02147C5.35151 7.02147 4.96175 6.63172 4.96175 6.15093V3.16834C4.96175 2.68756 5.35151 2.2978 5.83229 2.2978ZM6.62304 8.57568C6.62304 9.015 6.2669 9.37113 5.82759 9.37113C5.38827 9.37113 5.03213 9.015 5.03213 8.57568C5.03213 8.13636 5.38827 7.78023 5.82759 7.78023C6.2669 7.78023 6.62304 8.13636 6.62304 8.57568Z" fill="var(--fill-0, #9B9C9C)"/>
</svg>
