<svg preserveAspectRatio="none" width="100%" height="100%" overflow="visible" style="display: block;" viewBox="0 0 7.46927 6.79024" fill="none" xmlns="http://www.w3.org/2000/svg">
<g id="solanaLogoMark 1" clip-path="url(#clip0_8811_143705)">
<path id="Vector" d="M7.43082 5.35362L6.19778 6.69777C6.17098 6.72696 6.13854 6.75024 6.10251 6.76615C6.06647 6.78206 6.02759 6.79027 5.98831 6.79024H0.143146C0.115255 6.79024 0.0879725 6.78196 0.06465 6.76642C0.0413272 6.75087 0.0229802 6.72874 0.0118633 6.70273C0.000746361 6.67674 -0.00265626 6.648 0.00207352 6.62006C0.00680328 6.59212 0.0194594 6.5662 0.0384869 6.54547L1.27245 5.20133C1.29918 5.17221 1.33151 5.14897 1.36742 5.13307C1.40335 5.11716 1.4421 5.10892 1.48129 5.10885H7.32613C7.35402 5.10885 7.3813 5.11714 7.40464 5.13268C7.42793 5.14822 7.44627 5.17036 7.45744 5.19636C7.46853 5.22236 7.47194 5.25109 7.4672 5.27903C7.46247 5.30697 7.44982 5.3329 7.43082 5.35362ZM6.19778 2.6469C6.17098 2.6177 6.13854 2.59442 6.10251 2.57851C6.06647 2.56261 6.02759 2.5544 5.98831 2.55443H0.143146C0.115255 2.55443 0.0879725 2.56271 0.06465 2.57826C0.0413272 2.5938 0.0229802 2.61593 0.0118633 2.64193C0.000746361 2.66793 -0.00265626 2.69667 0.00207352 2.72461C0.00680328 2.75254 0.0194594 2.77847 0.0384869 2.7992L1.27245 4.14335C1.29918 4.17247 1.33151 4.19569 1.36742 4.2116C1.40335 4.22751 1.4421 4.23575 1.48129 4.23582H7.32613C7.35402 4.23582 7.3813 4.22754 7.40464 4.21199C7.42793 4.19644 7.44627 4.17431 7.45744 4.14831C7.46853 4.12231 7.47194 4.09358 7.4672 4.06564C7.46247 4.0377 7.44982 4.01178 7.43082 3.99104L6.19778 2.6469ZM0.143146 1.6814H5.98831C6.02759 1.68141 6.06647 1.67322 6.10251 1.65731C6.13854 1.64139 6.17098 1.61812 6.19778 1.58892L7.43082 0.244772C7.44982 0.224045 7.46247 0.198119 7.4672 0.17018C7.47194 0.142242 7.46853 0.113507 7.45744 0.0875077C7.44627 0.061508 7.42793 0.0393754 7.40464 0.0238294C7.3813 0.00828325 7.35402 9.57378e-07 7.32613 0H1.48129C1.4421 6.77788e-05 1.40335 0.00831025 1.36742 0.0242171C1.33151 0.040124 1.29918 0.0633566 1.27245 0.092477L0.0388049 1.43662C0.0197959 1.45733 0.00714535 1.48323 0.00240485 1.51113C-0.00233565 1.53904 0.00103996 1.56775 0.0121177 1.59374C0.0231954 1.61973 0.0414937 1.64186 0.0647685 1.65743C0.0880435 1.673 0.115283 1.68133 0.143146 1.6814Z" fill="url(#paint0_linear_8811_143705)"/>
</g>
<defs>
<linearGradient id="paint0_linear_8811_143705" x1="0.630494" y1="6.95208" x2="6.87234" y2="0.0296512" gradientUnits="userSpaceOnUse">
<stop offset="0.08" stop-color="#9945FF"/>
<stop offset="0.3" stop-color="#8752F3"/>
<stop offset="0.5" stop-color="#5497D5"/>
<stop offset="0.6" stop-color="#43B4CA"/>
<stop offset="0.72" stop-color="#28E0B9"/>
<stop offset="0.97" stop-color="#19FB9B"/>
</linearGradient>
<clipPath id="clip0_8811_143705">
<rect width="7.46927" height="6.79024" fill="white"/>
</clipPath>
</defs>
</svg>
