<svg preserveAspectRatio="none" width="100%" height="100%" overflow="visible" style="display: block;" viewBox="0 0 31.2 39" fill="none" xmlns="http://www.w3.org/2000/svg">
<g id="Vector">
<path fill-rule="evenodd" clip-rule="evenodd" d="M0 3C0 1.34315 1.38838 1.23973e-08 3.10104 1.23973e-08H13.9547V11.25C13.9547 13.8125 15.5052 15.875 18.6063 15.875H31.2L31.0104 36C31.0104 37.6569 29.622 39 27.9094 39H3.10104C1.38839 39 0 37.6569 0 36V3ZM7.23577 23.2917C7.23577 22.3942 7.92996 21.6667 8.78629 21.6667H22.2241C23.0805 21.6667 23.7747 22.3942 23.7747 23.2917C23.7747 24.1891 23.0805 24.9167 22.2241 24.9167H8.78629C7.92996 24.9167 7.23577 24.1891 7.23577 23.2917ZM8.78629 28.1667C7.92996 28.1667 7.23577 28.8942 7.23577 29.7917C7.23577 30.6891 7.92996 31.4167 8.78629 31.4167H18.0894C18.9457 31.4167 19.6399 30.6891 19.6399 29.7917C19.6399 28.8942 18.9457 28.1667 18.0894 28.1667H8.78629Z" fill="var(--fill-0, #58595A)"/>
<path d="M19.4685 11.375H28.5959C29.3641 11.375 29.7488 10.4016 29.2056 9.83237L20.0782 0.266486C19.535 -0.302784 18.6063 0.100396 18.6063 0.905465V10.4713C18.6063 10.9704 18.9923 11.375 19.4685 11.375Z" fill="var(--fill-0, #58595A)"/>
</g>
</svg>
