<svg preserveAspectRatio="none" width="100%" height="100%" overflow="visible" style="display: block;" viewBox="0 0 10.9358 14.4756" fill="none" xmlns="http://www.w3.org/2000/svg">
<path id="Shape" d="M6.65137 0.3125L6.14746 2.33203C6.48383 2.4088 6.82275 2.48624 7.15234 2.56836L7.65332 0.5625L8.90723 0.875L8.39355 2.93555C9.97698 3.48101 11.1346 4.29845 10.9072 5.81934C10.7425 6.93281 10.1251 7.47216 9.30566 7.66113C10.4309 8.24699 11.0045 9.14561 10.459 10.7031C9.78202 12.6374 8.17287 12.8002 6.03418 12.3955L5.51562 14.4756L4.26172 14.1631L4.77344 12.1113C4.44848 12.0306 4.11651 11.9444 3.77441 11.8516L3.25977 13.9141L2.00684 13.6006L2.52637 11.5166C2.23345 11.4416 1.93546 11.3622 1.63184 11.2861L0 10.8789L0.623047 9.44336C0.641926 9.44838 1.54655 9.68893 1.53418 9.6709C1.88926 9.75878 2.04722 9.52737 2.10938 9.37305L2.92969 6.08496C2.97556 6.09599 3.0199 6.10785 3.06152 6.11816C3.01168 6.09824 2.96658 6.08509 2.93164 6.07617L3.5166 3.72852C3.5319 3.46206 3.43948 3.1258 2.93164 2.99902C2.95112 2.98592 2.03718 2.77606 2.02148 2.77246L2.35449 1.43359L4.08496 1.86523L4.08301 1.87109C4.34299 1.93573 4.61096 1.99743 4.88379 2.05957L5.39844 0L6.65137 0.3125ZM4.17969 10.3428C5.02986 10.5539 7.65232 11.3962 8.04004 9.83887C8.44513 8.21455 5.71836 7.79422 4.86816 7.58203L4.17969 10.3428ZM5.18652 6.31836C5.89478 6.49493 8.07705 7.21447 8.43066 5.79785C8.79894 4.32002 6.51857 3.99092 5.81055 3.81445L5.18652 6.31836Z" fill="var(--fill-0, white)"/>
</svg>
