<svg preserveAspectRatio="none" width="100%" height="100%" overflow="visible" style="display: block;" viewBox="0 0 13.0712 11.8829" fill="none" xmlns="http://www.w3.org/2000/svg">
<g id="solanaLogoMark 1" clip-path="url(#clip0_8811_143803)">
<path id="Vector" d="M13.0039 9.36884L10.8461 11.7211C10.7992 11.7722 10.7425 11.8129 10.6794 11.8408C10.6163 11.8686 10.5483 11.883 10.4795 11.8829H0.250506C0.201697 11.8829 0.153952 11.8684 0.113138 11.8412C0.0723226 11.814 0.0402154 11.7753 0.0207607 11.7298C0.00130613 11.6843 -0.00464845 11.634 0.00362865 11.5851C0.0119057 11.5362 0.0340539 11.4908 0.067352 11.4546L2.22678 9.10232C2.27357 9.05136 2.33013 9.0107 2.39299 8.98287C2.45586 8.95503 2.52368 8.94061 2.59226 8.94049H12.8207C12.8695 8.94049 12.9173 8.95499 12.9581 8.98218C12.9989 9.00939 13.031 9.04813 13.0505 9.09363C13.0699 9.13913 13.0759 9.18941 13.0676 9.2383C13.0593 9.2872 13.0372 9.33257 13.0039 9.36884ZM10.8461 4.63207C10.7992 4.58098 10.7425 4.54024 10.6794 4.51239C10.6163 4.48456 10.5483 4.47021 10.4795 4.47025H0.250506C0.201697 4.47025 0.153952 4.48474 0.113138 4.51195C0.0723226 4.53916 0.0402154 4.57788 0.0207607 4.62338C0.00130613 4.66888 -0.00464845 4.71917 0.00362865 4.76806C0.0119057 4.81695 0.0340539 4.86232 0.067352 4.8986L2.22678 7.25085C2.27357 7.30182 2.33013 7.34246 2.39299 7.3703C2.45586 7.39814 2.52368 7.41257 2.59226 7.41268H12.8207C12.8695 7.41268 12.9173 7.39819 12.9581 7.37098C12.9989 7.34377 13.031 7.30504 13.0505 7.25955C13.0699 7.21404 13.0759 7.16376 13.0676 7.11486C13.0593 7.06598 13.0372 7.02061 13.0039 6.98433L10.8461 4.63207ZM0.250506 2.94244H10.4795C10.5483 2.94247 10.6163 2.92813 10.6794 2.90028C10.7425 2.87244 10.7992 2.8317 10.8461 2.7806L13.0039 0.428351C13.0372 0.392079 13.0593 0.346709 13.0676 0.297816C13.0759 0.248923 13.0699 0.198638 13.0505 0.153139C13.031 0.107639 12.9989 0.0689069 12.9581 0.0417014C12.9173 0.0144957 12.8695 1.67541e-06 12.8207 0H2.59226C2.52368 0.000118613 2.45586 0.0145429 2.39299 0.0423799C2.33013 0.070217 2.27357 0.110874 2.22678 0.161835L0.0679087 2.51409C0.0346428 2.55032 0.0125044 2.59565 0.00420848 2.64448C-0.0040874 2.69332 0.00181993 2.74357 0.0212059 2.78904C0.040592 2.83452 0.072614 2.87325 0.113345 2.9005C0.154076 2.92775 0.201745 2.94232 0.250506 2.94244Z" fill="url(#paint0_linear_8811_143803)"/>
</g>
<defs>
<linearGradient id="paint0_linear_8811_143803" x1="1.10336" y1="12.1661" x2="12.0266" y2="0.0518896" gradientUnits="userSpaceOnUse">
<stop offset="0.08" stop-color="#9945FF"/>
<stop offset="0.3" stop-color="#8752F3"/>
<stop offset="0.5" stop-color="#5497D5"/>
<stop offset="0.6" stop-color="#43B4CA"/>
<stop offset="0.72" stop-color="#28E0B9"/>
<stop offset="0.97" stop-color="#19FB9B"/>
</linearGradient>
<clipPath id="clip0_8811_143803">
<rect width="13.0712" height="11.8829" fill="white"/>
</clipPath>
</defs>
</svg>
