<svg preserveAspectRatio="none" width="100%" height="100%" overflow="visible" style="display: block;" viewBox="0 0 18.0002 18.0002" fill="none" xmlns="http://www.w3.org/2000/svg">
<path id="Vector" d="M2.34176 2.33673C5.46439 -0.778911 10.5277 -0.778911 13.6503 2.33673C16.49 5.17033 16.7456 9.60396 14.4199 12.7274L17.6474 15.9481C18.1177 16.4176 18.1179 17.1789 17.6474 17.6483C17.1769 18.1176 16.4138 18.1175 15.9433 17.6483L12.7109 14.4227C9.58299 16.7067 5.16779 16.4387 2.34176 13.619C-0.780558 10.5034 -0.780612 5.45231 2.34176 2.33673ZM11.9462 4.03693C9.76468 1.86025 6.22743 1.86024 4.04586 4.03693C1.8645 6.21355 1.86455 9.74211 4.04586 11.9188C6.22743 14.0955 9.76468 14.0954 11.9462 11.9188C14.1274 9.74213 14.1275 6.21353 11.9462 4.03693Z" fill="var(--fill-0, white)"/>
</svg>
