<svg preserveAspectRatio="none" width="100%" height="100%" overflow="visible" style="display: block;" viewBox="0 0 6.24873 8.27148" fill="none" xmlns="http://www.w3.org/2000/svg">
<path id="Shape" d="M3.80078 0.178711L3.5127 1.33301C3.70487 1.37687 3.89861 1.42085 4.08691 1.46777L4.37305 0.321289L5.08984 0.5L4.7959 1.67773C5.70073 1.98942 6.36232 2.45614 6.23242 3.3252C6.13832 3.96147 5.78566 4.26995 5.31738 4.37793C5.96039 4.7127 6.28827 5.22621 5.97656 6.11621C5.5897 7.22141 4.67031 7.31427 3.44824 7.08301L3.15137 8.27148L2.43555 8.09375L2.72754 6.9209C2.54183 6.87478 2.35175 6.82552 2.15625 6.77246L1.86328 7.9502L1.14746 7.77246L1.44336 6.58105C1.27605 6.53821 1.10604 6.49268 0.932617 6.44922L0 6.2168L0.355469 5.39648C0.355469 5.39648 0.882098 5.5362 0.876953 5.52637C1.07951 5.5764 1.16949 5.4446 1.20508 5.35645L1.67383 3.47754C1.70014 3.48386 1.72613 3.49018 1.75 3.49609C1.72142 3.48466 1.69481 3.47678 1.6748 3.47168L2.00977 2.13086C2.01854 1.97862 1.96582 1.78638 1.67578 1.71387C1.68171 1.70536 1.16657 1.58658 1.15527 1.58398L1.3457 0.819336L2.33398 1.06543L2.33301 1.06934C2.48161 1.10628 2.63506 1.14124 2.79102 1.17676L3.08496 0L3.80078 0.178711ZM2.38867 5.91016C2.8747 6.03088 4.37223 6.51183 4.59375 5.62207C4.82518 4.6941 3.26843 4.45429 2.78223 4.33301L2.38867 5.91016ZM2.96387 3.61035C3.36862 3.71127 4.61501 4.12235 4.81738 3.31348C5.02784 2.46899 3.7249 2.28053 3.32031 2.17969L2.96387 3.61035Z" fill="var(--fill-0, white)"/>
</svg>
