<svg preserveAspectRatio="none" width="100%" height="100%" overflow="visible" style="display: block;" viewBox="0 0 15.75 15.75" fill="none" xmlns="http://www.w3.org/2000/svg">
<path id="Vector" fill-rule="evenodd" clip-rule="evenodd" d="M7.875 0C7.25368 0 6.75 0.50368 6.75 1.125V6.75H1.125C0.50368 6.75 0 7.25368 0 7.875C0 8.49632 0.50368 9 1.125 9H6.75V14.625C6.75 15.2463 7.25368 15.75 7.875 15.75C8.49632 15.75 9 15.2463 9 14.625V9H14.625C15.2463 9 15.75 8.49632 15.75 7.875C15.75 7.25368 15.2463 6.75 14.625 6.75H9V1.125C9 0.50368 8.49632 0 7.875 0Z" fill="var(--fill-0, white)"/>
</svg>
